{
.appVersion = "895";
classes = (
{
code = z;
name = public.kern1.kc0_10;
},
{
code = r;
name = public.kern1.kc0_5;
},
{
code = r;
name = public.kern2.kc0_6;
},
{
code = "u v w x y ugrave uacute ucircumflex udieresis yacute ydieresis";
name = public.kern2.kc0_3;
},
{
code = "i igrave iacute icircumflex idieresis dotlessi";
name = public.kern1.kc0_2;
},
{
code = v;
name = public.kern1.kc0_7;
},
{
code = "i j igrave iacute icircumflex idieresis dotlessi dotlessj";
name = public.kern2.kc0_5;
},
{
code = "o ograve oacute ocircumflex otilde odieresis";
name = public.kern1.kc0_4;
},
{
code = w;
name = public.kern1.kc0_9;
},
{
code = s;
name = public.kern2.kc0_2;
},
{
code = d;
name = public.kern1.kc0_1;
},
{
code = t;
name = public.kern1.kc0_6;
},
{
code = "n m";
name = public.kern2.kc0_7;
},
{
code = z;
name = public.kern2.kc0_4;
},
{
code = f;
name = public.kern1.kc0_3;
},
{
code = x;
name = public.kern1.kc0_8;
},
{
code = t;
name = public.kern2.kc0_1;
}
);
copyright = "Copyright (c) 1997, 2009, 2011 American Mathematical Society (<http://www.ams.org>), with Reserved Font Name EURB10.";
customParameters = (
{
name = glyphOrder;
value = (
Gamma,
Delta,
Theta,
Lambda,
Xi,
Pi,
Sigma,
Upsilon,
Phi,
Psi,
Omega,
alpha,
beta,
gamma,
delta,
epsilon1,
zeta,
eta,
theta,
iota,
kappa,
lambda,
mu,
nu,
xi,
pi,
rho,
sigma,
tau,
upsilon,
phi,
chi,
psi,
omega,
epsilon,
theta1,
pi1,
phi1,
zero,
one,
two,
three,
four,
five,
six,
seven,
eight,
nine,
period,
comma,
less,
slash,
greater,
partialdiff,
A,
B,
C,
D,
E,
F,
G,
H,
I,
J,
K,
L,
M,
N,
O,
P,
Q,
R,
S,
T,
U,
V,
W,
X,
Y,
Z,
lscript,
a,
b,
c,
d,
e,
f,
g,
h,
i,
j,
k,
l,
m,
n,
o,
p,
q,
r,
s,
t,
u,
v,
w,
x,
y,
z,
dotlessi,
dotlessj,
weierstrass,
space,
f.alt,
bracketleft,
bracketright,
asciicircum,
exclam,
ampersand,
quotedbl,
quotesingle,
parenleft,
parenright,
asterisk,
plus,
minus,
equal,
question,
colon,
semicolon,
quoteleft,
quoteright,
asciitilde,
braceleft,
braceright,
bar,
backslash,
logicalnot,
section,
hyphen,
dollar,
percent,

glyphs = (
{
color = 1;
glyphname = Gamma;
lastChange = "2016-09-03 06:59:20 +0000";
layers = (
{
layerId = "2927A78B-FE88-4016-B2C6-41428F7EDB2B";
paths = (
{
closed = 1;
nodes = (
"544 692 LINE",
"561 511 LINE",
"533 508 LINE",
"492 586 LINE SMOOTH",
"465 638 OFFCURVE",
"386 632 OFFCURVE",
"329 633 CURVE SMOOTH",
"290 633 OFFCURVE",
"210 639 OFFCURVE",
"210 606 CURVE",
"207 569 OFFCURVE",
"207 479 OFFCURVE",
"207 416 CURVE SMOOTH",
"207 287 OFFCURVE",
"208 159 OFFCURVE",
"216 31 CURVE",
"100 -9 LINE",
"83 3 LINE",
"87 182 OFFCURVE",
"88 539 OFFCURVE",
"88 587 CURVE SMOOTH",
"88 608 OFFCURVE",
"84 630 OFFCURVE",
"68 645 CURVE SMOOTH",
"36 675 LINE",
"38 692 LINE"
);
}
);
width = 584;
}
);
unicode = 0393;
},
{
color = 1;
glyphname = Delta;
lastChange = "2016-09-03 06:59:20 +0000";
layers = (
{
layerId = "2927A78B-FE88-4016-B2C6-41428F7EDB2B";
paths = (
{
closed = 1;
nodes = (
"413 669 CURVE",
"538 699 LINE",
"596 478 OFFCURVE",
"669 264 OFFCURVE",
"778 55 CURVE",
"779 44 LINE",
"656 -7 LINE",
"588 -1 OFFCURVE",
"285 6 OFFCURVE",
"285 6 CURVE",
"179 6 OFFCURVE",
"74 0 OFFCURVE",
"54 -1 CURVE",
"54 0 OFFCURVE",
"52 20 OFFCURVE",
"51 34 CURVE",
"178 243 OFFCURVE",
"323 483 OFFCURVE"
);
},
{
closed = 1;
nodes = (
"148 67 CURVE",
"592 55 LINE",
"604 64 OFFCURVE",
"612 69 OFFCURVE",
"612 69 CURVE",
"544 230 OFFCURVE",
"485 404 OFFCURVE",
"431 568 CURVE",
"427 566 OFFCURVE",
"418 564 OFFCURVE",
"417 564 CURVE",
"334 400 OFFCURVE",
"238 225 OFFCURVE"
);
}
);
width = 831;
}
);
unicode = 2206;
},
{
color = 1;
glyphname = Theta;
lastChange = "2016-09-03 06:59:20 +0000";
layers = (
{
layerId = "2927A78B-FE88-4016-B2C6-41428F7EDB2B";
paths = (
{
closed = 1;
nodes = (
"569 429 CURVE SMOOTH",
"584 473 LINE",
"605 473 LINE",
"605 229 LINE",
"579 229 LINE",
"565 285 LINE SMOOTH",
"559 308 OFFCURVE",
"510 303 OFFCURVE",
"459 303 CURVE SMOOTH",
"406 303 OFFCURVE",
"316 310 OFFCURVE",
"307 284 CURVE SMOOTH",
"288 229 LINE",
"269 229 LINE",
"269 473 LINE",
"295 473 LINE",
"307 422 LINE SMOOTH",
"311 406 OFFCURVE",
"413 409 OFFCURVE",
"466 409 CURVE SMOOTH",
"504 409 OFFCURVE",
"560 402 OFFCURVE"
);
},
{
closed = 1;
nodes = (
"389 -14 CURVE SMOOTH",
"299 -14 OFFCURVE",
"205 5 OFFCURVE",
"140 64 CURVE SMOOTH",
"66 131 OFFCURVE",
"38 227 OFFCURVE",
"38 321 CURVE SMOOTH",
"38 424 OFFCURVE",
"72 526 OFFCURVE",
"152 598 CURVE SMOOTH",
"236 674 OFFCURVE",
"364 699 OFFCURVE",
"482 699 CURVE SMOOTH",
"576 699 OFFCURVE",
"673 682 OFFCURVE",
"741 621 CURVE SMOOTH",
"809 559 OFFCURVE",
"833 470 OFFCURVE",
"833 383 CURVE SMOOTH",
"833 276 OFFCURVE",
"806 166 OFFCURVE",
"721 89 CURVE SMOOTH",
"634 10 OFFCURVE",
"510 -14 OFFCURVE"
);
},
{
closed = 1;
nodes = (
"454 32 CURVE SMOOTH",
"519 31 OFFCURVE",
"578 56 OFFCURVE",
"624 98 CURVE SMOOTH",
"685 153 OFFCURVE",
"699 251 OFFCURVE",
"699 331 CURVE SMOOTH",
"699 546 OFFCURVE",
"593 655 OFFCURVE",
"429 655 CURVE SMOOTH",
"214 655 OFFCURVE",
"176 486 OFFCURVE",
"176 348 CURVE SMOOTH",
"176 200 OFFCURVE",
"259 32 OFFCURVE"
);
}
);
width = 873;
}
);
unicode = 0398;
},
{
color = 1;
glyphname = Lambda;
lastChange = "2016-09-03 06:59:20 +0000";
layers = (
{
layerId = "2927A78B-FE88-4016-B2C6-41428F7EDB2B";
paths = (
{
closed = 1;
nodes = (
"395 672 CURVE",
"500 694 LINE",
"543 524 OFFCURVE",
"586 350 OFFCURVE",
"659 188 CURVE SMOOTH",
"683 134 OFFCURVE",
"715 62 OFFCURVE",
"777 62 CURVE SMOOTH",
"787 62 OFFCURVE",
"797 63 OFFCURVE",
"806 66 CURVE",
"808 39 LINE",
"621 -13 LINE",
"593 -2 OFFCURVE",
"571 19 OFFCURVE",
"562 45 CURVE SMOOTH",
"550 77 OFFCURVE",
"456 374 OFFCURVE",
"404 539 CURVE",
"389 539 LINE",
"293 366 OFFCURVE",
"214 200 OFFCURVE",
"134 20 CURVE",
"22 -4 LINE",
"10 16 LINE",
"151 228 OFFCURVE",
"279 447 OFFCURVE"
);
}
);
width = 816;
}
);
unicode = 039B;
},
{
color = 1;
glyphname = Xi;
lastChange = "2016-09-03 06:59:20 +0000";
layers = (
{
layerId = "2927A78B-FE88-4016-B2C6-41428F7EDB2B";
paths = (
{
closed = 1;
nodes = (
"641 186 LINE",
"620 -6 LINE",
"68 -6 LINE",
"47 186 LINE",
"73 188 LINE",
"90 136 LINE SMOOTH",
"97 115 OFFCURVE",
"122 106 OFFCURVE",
"146 106 CURVE SMOOTH",
"540 106 LINE SMOOTH",
"561 106 OFFCURVE",
"584 113 OFFCURVE",
"592 133 CURVE SMOOTH",
"613 189 LINE"
);
},
{
closed = 1;
nodes = (
"167 413 LINE",
"521 413 LINE",
"525 406 LINE",
"495 308 LINE",
"225 307 LINE SMOOTH",
"198 307 OFFCURVE",
"170 305 OFFCURVE",
"143 302 CURVE",
"135 308 LINE"
);
},
{
closed = 1;
nodes = (
"616 693 LINE",
"638 505 LINE",
"615 505 LINE",
"593 547 LINE SMOOTH",
"578 575 OFFCURVE",
"533 584 OFFCURVE",
"497 584 CURVE SMOOTH",
"159 585 LINE SMOOTH",
"137 585 OFFCURVE",
"112 582 OFFCURVE",
"102 562 CURVE SMOOTH",
"74 505 LINE",
"44 505 LINE",
"64 693 LINE"
);
}
);
width = 684;
}
);
unicode = 039E;
},
{
color = 1;
glyphname = Pi;
lastChange = "2016-09-03 06:59:20 +0000";
layers = (
{
layerId = "2927A78B-FE88-4016-B2C6-41428F7EDB2B";
paths = (
{
closed = 1;
nodes = (
"703 214 CURVE",
"703 19 LINE",
"577 -14 LINE",
"561 -3 LINE",
"566 191 LINE SMOOTH",
"567 231 OFFCURVE",
"568 440 OFFCURVE",
"568 601 CURVE SMOOTH",
"568 617 OFFCURVE",
"552 623 OFFCURVE",
"530 623 CURVE SMOOTH",
"263 623 LINE SMOOTH",
"247 623 OFFCURVE",
"230 615 OFFCURVE",
"228 599 CURVE SMOOTH",
"223 562 OFFCURVE",
"223 411 OFFCURVE",
"223 316 CURVE SMOOTH",
"223 220 OFFCURVE",
"225 124 OFFCURVE",
"231 27 CURVE",
"109 -9 LINE",
"94 1 LINE",
"97 103 OFFCURVE",
"98 206 OFFCURVE",
"98 309 CURVE SMOOTH",
"98 408 OFFCURVE",
"95 507 OFFCURVE",
"95 605 CURVE SMOOTH",
"95 619 OFFCURVE",
"90 633 OFFCURVE",
"75 638 CURVE SMOOTH",
"8 659 LINE",
"8 690 LINE",
"79 687 OFFCURVE",
"149 686 OFFCURVE",
"220 686 CURVE SMOOTH",
"792 686 LINE",
"790 653 LINE",
"730 641 LINE SMOOTH",
"677 630 OFFCURVE",
"692 527 OFFCURVE",
"692 471 CURVE SMOOTH",
"692 385 OFFCURVE",
"692 288 OFFCURVE"
);
}
);
width = 800;
}
);
unicode = 03A0;
},
{
color = 1;
glyphname = Sigma;
lastChange = "2016-09-03 06:59:20 +0000";
layers = (
{
layerId = "2927A78B-FE88-4016-B2C6-41428F7EDB2B";
paths = (
{
closed = 1;
nodes = (
"361 378 CURVE SMOOTH",
"157 125 LINE",
"318 125 OFFCURVE",
"478 126 OFFCURVE",
"637 134 CURVE",
"643 119 LINE",
"610 -1 LINE",
"539 4 OFFCURVE",
"466 2 OFFCURVE",
"393 2 CURVE SMOOTH",
"266 2 OFFCURVE",
"139 1 OFFCURVE",
"12 1 CURVE",
"31 68 LINE",
"109 150 OFFCURVE",
"198 260 OFFCURVE",
"268 350 CURVE",
"71 626 LINE",
"71 639 LINE",
"150 690 LINE",
"305 690 OFFCURVE",
"461 690 OFFCURVE",
"616 699 CURVE",
"626 691 LINE",
"588 623 LINE",
"522 626 OFFCURVE",
"363 626 OFFCURVE",
"247 626 CURVE",
"242 619 LINE",
"363 442 LINE SMOOTH",
"373 428 OFFCURVE",
"376 419 OFFCURVE",
"376 411 CURVE",
"375 403 OFFCURVE",
"369 388 OFFCURVE"
);
}
);
width = 664;
}
);
unicode = 03A3;
},
{
color = 1;
glyphname = Upsilon;
lastChange = "2016-09-03 06:59:20 +0000";
layers = (
{
layerId = "2927A78B-FE88-4016-B2C6-41428F7EDB2B";
paths = (
{
closed = 1;
nodes = (
"454 27 CURVE",
"332 -6 LINE",
"312 2 LINE",
"317 68 OFFCURVE",
"318 134 OFFCURVE",
"318 200 CURVE SMOOTH",
"318 276 OFFCURVE",
"310 353 OFFCURVE",
"288 426 CURVE SMOOTH",
"265 502 OFFCURVE",
"217 602 OFFCURVE",
"121 602 CURVE SMOOTH",
"68 602 OFFCURVE",
"48 567 OFFCURVE",
"33 530 CURVE",
"13 535 LINE",
"20 616 OFFCURVE",
"77 691 OFFCURVE",
"181 691 CURVE SMOOTH",
"357 691 OFFCURVE",
"375 506 OFFCURVE",
"380 371 CURVE",
"390 371 LINE",
"415 491 OFFCURVE",
"464 707 OFFCURVE",
"622 707 CURVE SMOOTH",
"734 707 OFFCURVE",
"747 614 OFFCURVE",
"747 536 CURVE",
"722 534 LINE",
"714 572 OFFCURVE",
"690 601 OFFCURVE",
"648 601 CURVE SMOOTH",
"617 601 OFFCURVE",
"591 592 OFFCURVE",
"570 573 CURVE SMOOTH",
"472 484 OFFCURVE",
"446 338 OFFCURVE",
"446 210 CURVE SMOOTH",
"446 149 OFFCURVE",
"450 88 OFFCURVE"
);
}
);
width = 764;
}
);
unicode = 03A5;
},
{
color = 1;
glyphname = Phi;
lastChange = "2016-09-03 06:59:20 +0000";
layers = (
{
layerId = "2927A78B-FE88-4016-B2C6-41428F7EDB2B";
paths = (
{
closed = 1;
nodes = (
"594 661 LINE",
"516 646 LINE SMOOTH",
"505 644 OFFCURVE",
"494 636 OFFCURVE",
"494 625 CURVE SMOOTH",
"494 598 LINE",
"504 587 LINE",
"752 587 OFFCURVE",
"836 503 OFFCURVE",
"836 367 CURVE SMOOTH",
"836 296 OFFCURVE",
"818 222 OFFCURVE",
"762 172 CURVE SMOOTH",
"695 112 OFFCURVE",
"597 92 OFFCURVE",
"504 90 CURVE",
"494 80 LINE",
"494 54 LINE",
"496 48 OFFCURVE",
"512 45 OFFCURVE",
"522 43 CURVE SMOOTH",
"604 28 LINE",
"604 0 LINE",
"271 0 LINE",
"272 27 LINE",
"339 39 OFFCURVE",
"366 37 OFFCURVE",
"369 59 CURVE",
"369 80 LINE",
"359 90 LINE",
"126 95 OFFCURVE",
"30 198 OFFCURVE",
"30 342 CURVE SMOOTH",
"30 518 OFFCURVE",
"194 584 OFFCURVE",
"359 588 CURVE SMOOTH",
"361 588 OFFCURVE",
"368 597 OFFCURVE",
"369 598 CURVE",
"369 622 LINE SMOOTH",
"369 633 OFFCURVE",
"362 642 OFFCURVE",
"349 644 CURVE SMOOTH",
"271 658 LINE",
"271 685 LINE",
"594 685 LINE"
);
},
{
closed = 1;
nodes = (
"504 116 LINE",
"653 123 OFFCURVE",
"696 246 OFFCURVE",
"696 358 CURVE SMOOTH",
"696 520 OFFCURVE",
"602 554 OFFCURVE",
"504 556 CURVE",
"494 546 LINE",
"494 127 LINE"
);
},
{
closed = 1;
nodes = (
"359 556 LINE",
"222 549 OFFCURVE",
"173 445 OFFCURVE",
"173 344 CURVE SMOOTH",
"173 282 OFFCURVE",
"188 217 OFFCURVE",
"237 173 CURVE SMOOTH",
"269 144 OFFCURVE",
"314 119 OFFCURVE",
"359 116 CURVE",
"369 126 LINE",
"369 546 LINE"
);
}
);
width = 868;
}
);
unicode = 03A6;
},
{
color = 1;
glyphname = Psi;
lastChange = "2016-09-03 06:59:20 +0000";
layers = (
{
layerId = "2927A78B-FE88-4016-B2C6-41428F7EDB2B";
paths = (
{
closed = 1;
nodes = (
"756 592 CURVE SMOOTH",
"720 418 LINE SMOOTH",
"700 324 OFFCURVE",
"671 278 OFFCURVE",
"498 252 CURVE",
"491 243 LINE",
"491 184 OFFCURVE",
"487 57 OFFCURVE",
"525 46 CURVE SMOOTH",
"601 26 LINE",
"601 -1 LINE",
"270 -1 LINE",
"270 28 LINE",
"341 44 LINE SMOOTH",
"357 47 OFFCURVE",
"368 59 OFFCURVE",
"368 74 CURVE SMOOTH",
"368 240 LINE",
"361 249 LINE",
"324 254 OFFCURVE",
"286 259 OFFCURVE",
"251 270 CURVE SMOOTH",
"12 342 OFFCURVE",
"206 649 OFFCURVE",
"56 649 CURVE SMOOTH",
"48 649 OFFCURVE",
"28 646 OFFCURVE",
"13 640 CURVE",
"7 664 LINE",
"65 678 OFFCURVE",
"167 703 OFFCURVE",
"186 703 CURVE SMOOTH",
"269 703 OFFCURVE",
"243 597 OFFCURVE",
"246 511 CURVE SMOOTH",
"249 432 OFFCURVE",
"273 315 OFFCURVE",
"363 285 CURVE",
"372 291 LINE",
"372 420 OFFCURVE",
"372 607 OFFCURVE",
"368 666 CURVE",
"482 698 LINE",
"497 686 LINE",
"493 559 OFFCURVE",
"493 420 OFFCURVE",
"493 287 CURVE",
"501 281 LINE",
"557 295 OFFCURVE",
"588 344 OFFCURVE",
"596 394 CURVE SMOOTH",
"624 581 LINE SMOOTH",
"628 607 OFFCURVE",
"635 633 OFFCURVE",
"652 655 CURVE",
"702 670 OFFCURVE",
"754 682 OFFCURVE",
"807 688 CURVE",
"803 661 LINE",
"773 650 OFFCURVE",
"762 620 OFFCURVE"
);
}
);
width = 819;
}
);
unicode = 03A8;
},
{
color = 1;
glyphname = Omega;
lastChange = "2016-09-03 06:59:20 +0000";
layers = (
{
layerId = "2927A78B-FE88-4016-B2C6-41428F7EDB2B";
paths = (
{
closed = 1;
nodes = (
"954 105 CURVE",
"918 -5 LINE",
"857 -1 OFFCURVE",
"759 5 OFFCURVE",
"735 5 CURVE SMOOTH",
"667 5 OFFCURVE",
"598 4 OFFCURVE",
"530 -1 CURVE",
"556 94 LINE",
"705 131 OFFCURVE",
"742 251 OFFCURVE",
"742 379 CURVE SMOOTH",
"742 503 OFFCURVE",
"687 659 OFFCURVE",
"509 659 CURVE SMOOTH",
"316 659 OFFCURVE",
"267 503 OFFCURVE",
"267 373 CURVE SMOOTH",
"267 257 OFFCURVE",
"327 133 OFFCURVE",
"449 95 CURVE",
"416 3 LINE",
"356 7 OFFCURVE",
"296 8 OFFCURVE",
"235 8 CURVE SMOOTH",
"176 8 OFFCURVE",
"117 6 OFFCURVE",
"58 3 CURVE",
"52 14 LINE",
"80 109 LINE",
"162 103 OFFCURVE",
"238 97 OFFCURVE",
"320 96 CURVE",
"323 108 LINE",
"200 154 OFFCURVE",
"123 264 OFFCURVE",
"123 385 CURVE SMOOTH",
"123 469 OFFCURVE",
"156 554 OFFCURVE",
"222 614 CURVE SMOOTH",
"295 680 OFFCURVE",
"414 700 OFFCURVE",
"519 700 CURVE SMOOTH",
"803 700 OFFCURVE",
"883 554 OFFCURVE",
"883 395 CURVE SMOOTH",
"883 270 OFFCURVE",
"815 149 OFFCURVE",
"669 106 CURVE",
"673 95 LINE",
"760 100 OFFCURVE",
"868 105 OFFCURVE"
);
}
);
width = 1007;
}
);
unicode = 2126;
},
{
color = 1;
glyphname = alpha;
lastChange = "2016-09-03 06:59:20 +0000";
layers = (
{
layerId = "2927A78B-FE88-4016-B2C6-41428F7EDB2B";
paths = (
{
closed = 1;
nodes = (
"559 476 LINE",
"626 440 LINE",
"492 261 LINE",
"539 112 LINE SMOOTH",
"545 91 OFFCURVE",
"561 64 OFFCURVE",
"586 64 CURVE SMOOTH",
"596 64 OFFCURVE",
"620 81 OFFCURVE",
"638 95 CURVE",
"651 94 LINE",
"661 79 LINE",
"620 38 OFFCURVE",
"565 -18 OFFCURVE",
"515 -18 CURVE SMOOTH",
"454 -18 OFFCURVE",
"437 65 OFFCURVE",
"411 158 CURVE",
"403 159 LINE",
"377 129 OFFCURVE",
"335 86 OFFCURVE",
"317 69 CURVE SMOOTH",
"272 27 OFFCURVE",
"209 -14 OFFCURVE",
"145 -14 CURVE SMOOTH",
"49 -14 OFFCURVE",
"29 96 OFFCURVE",
"29 168 CURVE SMOOTH",
"29 312 OFFCURVE",
"133 474 OFFCURVE",
"305 474 CURVE SMOOTH",
"378 474 OFFCURVE",
"426 441 OFFCURVE",
"466 333 CURVE",
"475 333 LINE"
);
},
{
closed = 1;
nodes = (
"394 220 CURVE",
"376 276 OFFCURVE",
"343 414 OFFCURVE",
"250 414 CURVE SMOOTH",
"155 414 OFFCURVE",
"136 300 OFFCURVE",
"136 217 CURVE SMOOTH",
"136 162 OFFCURVE",
"153 72 OFFCURVE",
"222 72 CURVE SMOOTH",
"252 72 OFFCURVE",
"276 90 OFFCURVE",
"297 108 CURVE SMOOTH",
"319 127 OFFCURVE",
"350 158 OFFCURVE"
);
}
);
width = 661;
}
);
unicode = 03B1;
},
{
color = 1;
glyphname = beta;
lastChange = "2016-09-03 06:59:20 +0000";
layers = (
{
layerId = "2927A78B-FE88-4016-B2C6-41428F7EDB2B";
paths = (
{
closed = 1;
nodes = (
"177 -152 CURVE",
"71 -194 LINE",
"57 -184 LINE",
"62 -62 OFFCURVE",
"62 156 OFFCURVE",
"62 326 CURVE SMOOTH",
"62 383 OFFCURVE",
"63 442 OFFCURVE",
"82 497 CURVE SMOOTH",
"121 610 OFFCURVE",
"209 676 OFFCURVE",
"328 676 CURVE SMOOTH",
"411 676 OFFCURVE",
"499 641 OFFCURVE",
"499 552 CURVE SMOOTH",
"499 476 OFFCURVE",
"444 409 OFFCURVE",
"360 383 CURVE",
"358 372 LINE",
"490 359 OFFCURVE",
"565 305 OFFCURVE",
"565 206 CURVE SMOOTH",
"565 55 OFFCURVE",
"440 -11 OFFCURVE",
"301 -11 CURVE SMOOTH",
"259 -11 OFFCURVE",
"208 -5 OFFCURVE",
"189 34 CURVE",
"250 109 LINE",
"262 106 LINE",
"269 70 OFFCURVE",
"293 26 OFFCURVE",
"334 26 CURVE SMOOTH",
"423 26 OFFCURVE",
"441 127 OFFCURVE",
"441 194 CURVE SMOOTH",
"441 222 OFFCURVE",
"425 278 OFFCURVE",
"391 309 CURVE SMOOTH",
"359 338 OFFCURVE",
"282 338 OFFCURVE",
"226 338 CURVE",
"227 372 LINE",
"326 372 OFFCURVE",
"398 439 OFFCURVE",
"398 531 CURVE SMOOTH",
"398 591 OFFCURVE",
"344 630 OFFCURVE",
"286 630 CURVE SMOOTH",
"178 630 OFFCURVE",
"167 517 OFFCURVE",
"167 424 CURVE SMOOTH",
"167 423 OFFCURVE",
"173 40 OFFCURVE"
);
}
);
width = 582;
}
);
unicode = 03B2;
},
{
color = 1;
glyphname = gamma;
lastChange = "2016-09-03 06:59:20 +0000";
layers = (
{
layerId = "2927A78B-FE88-4016-B2C6-41428F7EDB2B";
paths = (
{
closed = 1;
nodes = (
"303 -201 LINE",
"231 -152 LINE",
"292 -7 LINE",
"286 68 OFFCURVE",
"271 174 OFFCURVE",
"249 246 CURVE SMOOTH",
"229 310 OFFCURVE",
"197 408 OFFCURVE",
"110 408 CURVE SMOOTH",
"75 408 OFFCURVE",
"38 387 OFFCURVE",
"12 366 CURVE",
"-5 391 LINE",
"44 435 OFFCURVE",
"106 471 OFFCURVE",
"176 471 CURVE SMOOTH",
"344 471 OFFCURVE",
"359 285 OFFCURVE",
"363 133 CURVE",
"372 131 LINE",
"438 241 OFFCURVE",
"487 342 OFFCURVE",
"525 463 CURVE",
"544 475 LINE",
"623 444 LINE",
"558 328 OFFCURVE",
"488 233 OFFCURVE",
"420 138 CURVE SMOOTH",
"405 118 OFFCURVE",
"376 61 OFFCURVE",
"366 33 CURVE",
"366 -27 OFFCURVE",
"366 -112 OFFCURVE",
"358 -166 CURVE"
);
}
);
width = 622;
}
);
unicode = 03B3;
},
{
color = 1;
glyphname = delta;
lastChange = "2016-09-03 06:59:20 +0000";
layers = (
{
layerId = "2927A78B-FE88-4016-B2C6-41428F7EDB2B";
paths = (
{
closed = 1;
nodes = (
"194 390 LINE",
"147 350 OFFCURVE",
"124 293 OFFCURVE",
"124 236 CURVE SMOOTH",
"124 167 OFFCURVE",
"163 58 OFFCURVE",
"249 58 CURVE SMOOTH",
"324 58 OFFCURVE",
"367 91 OFFCURVE",
"367 169 CURVE SMOOTH",
"367 236 OFFCURVE",
"289 309 OFFCURVE",
"226 361 CURVE SMOOTH"
);
},
{
closed = 1;
nodes = (
"394 655 LINE",
"376 612 LINE",
"356 616 OFFCURVE",
"300 624 OFFCURVE",
"263 624 CURVE SMOOTH",
"224 624 OFFCURVE",
"164 621 OFFCURVE",
"164 577 CURVE SMOOTH",
"164 503 OFFCURVE",
"445 397 OFFCURVE",
"445 244 CURVE SMOOTH",
"445 108 OFFCURVE",
"325 -11 OFFCURVE",
"181 -11 CURVE SMOOTH",
"64 -11 OFFCURVE",
"21 73 OFFCURVE",
"21 163 CURVE SMOOTH",
"21 263 OFFCURVE",
"85 351 OFFCURVE",
"170 411 CURVE",
"141 437 OFFCURVE",
"95 480 OFFCURVE",
"95 518 CURVE SMOOTH",
"95 561 OFFCURVE",
"119 599 OFFCURVE",
"152 629 CURVE SMOOTH",
"194 667 OFFCURVE",
"277 672 OFFCURVE",
"303 672 CURVE SMOOTH",
"320 672 OFFCURVE",
"361 667 OFFCURVE",
"388 664 CURVE"
);
}
);
width = 463;
}
);
unicode = 03B4;
},
{
color = 1;
glyphname = epsilon1;
lastChange = "2016-09-03 06:59:20 +0000";
layers = (
{
layerId = "2927A78B-FE88-4016-B2C6-41428F7EDB2B";
paths = (
{
closed = 1;
nodes = (
"384 263 CURVE",
"368 219 LINE",
"334 219 LINE SMOOTH",
"261 219 OFFCURVE",
"187 218 OFFCURVE",
"150 216 CURVE",
"144 207 LINE",
"155 124 OFFCURVE",
"212 55 OFFCURVE",
"319 55 CURVE SMOOTH",
"370 55 OFFCURVE",
"420 72 OFFCURVE",
"459 100 CURVE",
"468 99 LINE",
"480 80 LINE",
"413 24 OFFCURVE",
"324 -7 OFFCURVE",
"233 -7 CURVE SMOOTH",
"181 -7 OFFCURVE",
"126 1 OFFCURVE",
"88 36 CURVE SMOOTH",
"39 80 OFFCURVE",
"25 145 OFFCURVE",
"25 206 CURVE SMOOTH",
"25 347 OFFCURVE",
"130 471 OFFCURVE",
"291 471 CURVE SMOOTH",
"356 471 OFFCURVE",
"418 446 OFFCURVE",
"462 403 CURVE",
"408 339 LINE",
"394 342 LINE",
"367 391 OFFCURVE",
"335 429 OFFCURVE",
"275 429 CURVE SMOOTH",
"183 429 OFFCURVE",
"139 345 OFFCURVE",
"138 273 CURVE",
"145 264 LINE",
"181 262 OFFCURVE",
"219 262 OFFCURVE",
"254 262 CURVE SMOOTH",
"297 262 OFFCURVE",
"341 262 OFFCURVE"
);
}
);
width = 479;
}
);
},
{
color = 1;
glyphname = zeta;
lastChange = "2016-09-03 06:59:20 +0000";
layers = (
{
layerId = "2927A78B-FE88-4016-B2C6-41428F7EDB2B";
paths = (
{
closed = 1;
nodes = (
"371 -129 CURVE",
"349 -115 LINE",
"364 -93 OFFCURVE",
"377 -69 OFFCURVE",
"377 -42 CURVE SMOOTH",
"377 -16 OFFCURVE",
"354 -1 OFFCURVE",
"312 -1 CURVE SMOOTH",
"276 -1 OFFCURVE",
"215 -9 OFFCURVE",
"188 -9 CURVE SMOOTH",
"168 -9 OFFCURVE",
"105 1 OFFCURVE",
"80 24 CURVE SMOOTH",
"40 60 OFFCURVE",
"24 112 OFFCURVE",
"24 162 CURVE SMOOTH",
"24 323 OFFCURVE",
"163 482 OFFCURVE",
"299 580 CURVE",
"297 589 LINE",
"247 591 OFFCURVE",
"169 600 OFFCURVE",
"121 623 CURVE",
"119 634 LINE",
"156 674 LINE",
"167 674 LINE",
"210 643 OFFCURVE",
"266 617 OFFCURVE",
"367 617 CURVE SMOOTH",
"390 617 OFFCURVE",
"413 620 OFFCURVE",
"433 623 CURVE",
"433 599 LINE",
"269 550 OFFCURVE",
"139 393 OFFCURVE",
"139 214 CURVE SMOOTH",
"139 172 OFFCURVE",
"146 128 OFFCURVE",
"178 97 CURVE SMOOTH",
"200 76 OFFCURVE",
"251 72 OFFCURVE",
"260 72 CURVE SMOOTH",
"291 72 OFFCURVE",
"340 78 OFFCURVE",
"373 78 CURVE SMOOTH",
"388 78 OFFCURVE",
"456 74 OFFCURVE",
"456 26 CURVE SMOOTH",
"456 -18 OFFCURVE",
"407 -82 OFFCURVE"
);
}
);
width = 451;
}
);
unicode = 03B6;
},
{
color = 1;
glyphname = eta;
lastChange = "2016-09-03 06:59:20 +0000";
layers = (
{
layerId = "2927A78B-FE88-4016-B2C6-41428F7EDB2B";
paths = (
{
closed = 1;
nodes = (
"524 -156 CURVE",
"418 -197 LINE",
"404 -185 LINE",
"410 -79 OFFCURVE",
"410 61 OFFCURVE",
"410 184 CURVE SMOOTH",
"410 298 OFFCURVE",
"419 402 OFFCURVE",
"327 402 CURVE SMOOTH",
"285 402 OFFCURVE",
"248 386 OFFCURVE",
"214 365 CURVE",
"214 291 OFFCURVE",
"216 53 OFFCURVE",
"218 31 CURVE",
"115 -7 LINE",
"104 3 LINE",
"104 104 OFFCURVE",
"112 206 OFFCURVE",
"112 307 CURVE SMOOTH",
"112 344 OFFCURVE",
"113 396 OFFCURVE",
"73 396 CURVE SMOOTH",
"55 396 OFFCURVE",
"30 381 OFFCURVE",
"11 369 CURVE",
"-5 392 LINE",
"45 434 OFFCURVE",
"90 470 OFFCURVE",
"149 470 CURVE SMOOTH",
"182 470 OFFCURVE",
"203 457 OFFCURVE",
"211 406 CURVE",
"221 403 LINE",
"278 436 OFFCURVE",
"344 469 OFFCURVE",
"410 469 CURVE SMOOTH",
"441 469 OFFCURVE",
"466 456 OFFCURVE",
"487 437 CURVE SMOOTH",
"540 387 OFFCURVE",
"507 59 OFFCURVE"
);
}
);
width = 575;
}
);
unicode = 03B7;
},
{
color = 1;
glyphname = theta;
lastChange = "2016-09-03 06:59:20 +0000";
layers = (
{
layerId = "2927A78B-FE88-4016-B2C6-41428F7EDB2B";
paths = (
{
closed = 1;
nodes = (
"331 677 CURVE SMOOTH",
"490 677 OFFCURVE",
"523 516 OFFCURVE",
"523 398 CURVE SMOOTH",
"523 330 OFFCURVE",
"517 261 OFFCURVE",
"495 196 CURVE SMOOTH",
"458 83 OFFCURVE",
"362 -14 OFFCURVE",
"234 -14 CURVE SMOOTH",
"71 -14 OFFCURVE",
"44 176 OFFCURVE",
"44 310 CURVE SMOOTH",
"44 369 OFFCURVE",
"47 440 OFFCURVE",
"67 496 CURVE SMOOTH",
"108 610 OFFCURVE",
"208 677 OFFCURVE"
);
},
{
closed = 1;
nodes = (
"274 361 LINE",
"411 361 LINE",
"419 370 LINE",
"415 440 OFFCURVE",
"398 622 OFFCURVE",
"265 622 CURVE SMOOTH",
"140 622 OFFCURVE",
"137 457 OFFCURVE",
"137 371 CURVE",
"148 361 LINE"
);
},
{
closed = 1;
nodes = (
"140 306 LINE",
"148 233 OFFCURVE",
"177 53 OFFCURVE",
"295 53 CURVE SMOOTH",
"417 53 OFFCURVE",
"421 182 OFFCURVE",
"421 308 CURVE",
"412 317 LINE",
"150 317 LINE"
);
}
);
width = 555;
}
);
unicode = 03B8;
},
{
color = 1;
glyphname = iota;
lastChange = "2016-09-03 06:59:20 +0000";
layers = (
{
layerId = "2927A78B-FE88-4016-B2C6-41428F7EDB2B";
paths = (
{
closed = 1;
nodes = (
"276 104 LINE",
"288 92 LINE",
"254 43 OFFCURVE",
"204 -11 OFFCURVE",
"134 -11 CURVE SMOOTH",
"63 -11 OFFCURVE",
"59 79 OFFCURVE",
"59 139 CURVE SMOOTH",
"59 239 OFFCURVE",
"59 338 OFFCURVE",
"54 438 CURVE",
"157 469 LINE",
"170 461 LINE",
"165 362 OFFCURVE",
"163 264 OFFCURVE",
"163 165 CURVE SMOOTH",
"163 119 OFFCURVE",
"166 68 OFFCURVE",
"203 68 CURVE SMOOTH",
"230 68 OFFCURVE",
"250 86 OFFCURVE",
"268 104 CURVE"
);
}
);
width = 284;
}
);
unicode = 03B9;
},
{
color = 1;
glyphname = kappa;
lastChange = "2016-09-03 06:59:20 +0000";
layers = (
{
layerId = "2927A78B-FE88-4016-B2C6-41428F7EDB2B";
paths = (
{
closed = 1;
nodes = (
"434 467 CURVE",
"509 437 LINE",
"509 427 LINE",
"429 393 OFFCURVE",
"314 330 OFFCURVE",
"251 278 CURVE",
"328 193 OFFCURVE",
"415 113 OFFCURVE",
"501 49 CURVE",
"502 40 LINE",
"395 -12 LINE",
"353 27 OFFCURVE",
"309 64 OFFCURVE",
"270 106 CURVE SMOOTH",
"175 208 LINE",
"166 201 LINE",
"166 141 OFFCURVE",
"167 85 OFFCURVE",
"169 25 CURVE",
"72 -7 LINE",
"61 -1 LINE",
"61 75 OFFCURVE",
"63 150 OFFCURVE",
"63 226 CURVE SMOOTH",
"63 233 OFFCURVE",
"60 367 OFFCURVE",
"58 437 CURVE",
"163 471 LINE",
"166 459 LINE",
"166 259 LINE",
"173 255 LINE",
"280 357 OFFCURVE",
"344 411 OFFCURVE"
);
}
);
width = 511;
}
);
unicode = 03BA;
},
{
color = 1;
glyphname = lambda;
lastChange = "2016-09-03 06:59:20 +0000";
layers = (
{
layerId = "2927A78B-FE88-4016-B2C6-41428F7EDB2B";
paths = (
{
closed = 1;
nodes = (
"259 374 LINE",
"173 206 OFFCURVE",
"135 125 OFFCURVE",
"102 20 CURVE",
"6 -6 LINE",
"-2 7 LINE",
"34 79 OFFCURVE",
"73 150 OFFCURVE",
"115 220 CURVE SMOOTH",
"228 408 LINE SMOOTH",
"233 416 OFFCURVE",
"239 427 OFFCURVE",
"243 436 CURVE",
"226 484 OFFCURVE",
"206 530 OFFCURVE",
"199 545 CURVE SMOOTH",
"180 584 OFFCURVE",
"150 626 OFFCURVE",
"102 626 CURVE SMOOTH",
"80 626 OFFCURVE",
"56 622 OFFCURVE",
"33 615 CURVE",
"23 638 LINE",
"72 659 OFFCURVE",
"124 679 OFFCURVE",
"179 679 CURVE SMOOTH",
"242 679 OFFCURVE",
"278 640 OFFCURVE",
"303 586 CURVE SMOOTH",
"331 525 OFFCURVE",
"352 461 OFFCURVE",
"377 398 CURVE SMOOTH",
"425 277 OFFCURVE",
"477 158 OFFCURVE",
"534 41 CURVE",
"532 29 LINE",
"432 -8 LINE",
"408 3 LINE",
"362 131 OFFCURVE",
"318 247 OFFCURVE",
"266 374 CURVE"
);
}
);
width = 536;
}
);
unicode = 03BB;
},
{
color = 1;
glyphname = mu;
lastChange = "2016-09-03 06:59:20 +0000";
layers = (
{
layerId = "2927A78B-FE88-4016-B2C6-41428F7EDB2B";
paths = (
{
closed = 1;
nodes = (
"432 116 CURVE",
"433 255 LINE SMOOTH",
"433 307 OFFCURVE",
"431 379 OFFCURVE",
"430 441 CURVE",
"528 474 LINE",
"540 468 LINE",
"539 378 OFFCURVE",
"537 247 OFFCURVE",
"537 199 CURVE SMOOTH",
"537 146 OFFCURVE",
"536 84 OFFCURVE",
"576 84 CURVE SMOOTH",
"597 84 OFFCURVE",
"617 97 OFFCURVE",
"636 110 CURVE",
"645 109 LINE",
"654 96 LINE",
"614 53 OFFCURVE",
"554 -10 OFFCURVE",
"504 -10 CURVE SMOOTH",
"451 -10 OFFCURVE",
"435 31 OFFCURVE",
"432 74 CURVE",
"378 36 OFFCURVE",
"311 -6 OFFCURVE",
"248 -6 CURVE SMOOTH",
"222 -6 OFFCURVE",
"196 0 OFFCURVE",
"176 22 CURVE",
"168 19 LINE",
"168 -27 LINE SMOOTH",
"168 -74 OFFCURVE",
"177 -120 OFFCURVE",
"195 -164 CURVE",
"124 -196 LINE",
"108 -182 LINE",
"123 26 OFFCURVE",
"124 254 OFFCURVE",
"124 254 CURVE",
"124 315 OFFCURVE",
"120 376 OFFCURVE",
"117 437 CURVE",
"221 473 LINE",
"235 465 LINE",
"232 395 OFFCURVE",
"229 324 OFFCURVE",
"229 254 CURVE SMOOTH",
"229 183 OFFCURVE",
"215 69 OFFCURVE",
"318 69 CURVE SMOOTH",
"361 69 OFFCURVE",
"400 94 OFFCURVE"
);
}
);
width = 701;
}
);
unicode = 00B5;
},
{
color = 1;
glyphname = nu;
lastChange = "2016-09-03 06:59:20 +0000";
layers = (
{
layerId = "2927A78B-FE88-4016-B2C6-41428F7EDB2B";
paths = (
{
closed = 1;
nodes = (
"496 471 LINE",
"567 445 LINE",
"572 432 LINE",
"563 413 OFFCURVE",
"554 393 OFFCURVE",
"544 373 CURVE SMOOTH",
"363 20 LINE",
"291 -6 LINE",
"281 -1 LINE",
"258 110 OFFCURVE",
"235 229 OFFCURVE",
"179 330 CURVE SMOOTH",
"170 346 OFFCURVE",
"132 405 OFFCURVE",
"79 405 CURVE SMOOTH",
"56 405 OFFCURVE",
"33 397 OFFCURVE",
"14 387 CURVE",
"-5 416 LINE",
"35 452 OFFCURVE",
"92 473 OFFCURVE",
"148 473 CURVE SMOOTH",
"183 473 OFFCURVE",
"220 465 OFFCURVE",
"245 441 CURVE SMOOTH",
"311 376 OFFCURVE",
"337 236 OFFCURVE",
"359 131 CURVE",
"368 130 LINE",
"422 256 LINE",
"445 322 OFFCURVE",
"463 389 OFFCURVE",
"471 456 CURVE"
);
}
);
width = 575;
}
);
unicode = 03BD;
},
{
color = 1;
glyphname = xi;
lastChange = "2016-09-03 06:59:20 +0000";
layers = (
{
layerId = "2927A78B-FE88-4016-B2C6-41428F7EDB2B";
paths = (
{
closed = 1;
nodes = (
"432 -126 CURVE",
"411 -110 LINE",
"426 -91 OFFCURVE",
"445 -64 OFFCURVE",
"445 -46 CURVE SMOOTH",
"445 -9 OFFCURVE",
"408 3 OFFCURVE",
"372 3 CURVE SMOOTH",
"319 3 OFFCURVE",
"240 -9 OFFCURVE",
"202 -9 CURVE SMOOTH",
"69 -9 OFFCURVE",
"16 61 OFFCURVE",
"16 145 CURVE SMOOTH",
"16 228 OFFCURVE",
"112 302 OFFCURVE",
"193 331 CURVE",
"193 342 LINE",
"162 348 OFFCURVE",
"79 370 OFFCURVE",
"79 449 CURVE SMOOTH",
"79 524 OFFCURVE",
"164 570 OFFCURVE",
"233 596 CURVE",
"231 606 LINE",
"185 608 OFFCURVE",
"100 610 OFFCURVE",
"78 640 CURVE",
"122 689 LINE",
"130 688 LINE",
"170 650 OFFCURVE",
"232 635 OFFCURVE",
"292 635 CURVE SMOOTH",
"332 635 OFFCURVE",
"360 637 OFFCURVE",
"395 641 CURVE",
"398 612 LINE",
"325 603 OFFCURVE",
"194 572 OFFCURVE",
"194 478 CURVE SMOOTH",
"194 374 OFFCURVE",
"287 369 OFFCURVE",
"369 367 CURVE",
"369 341 LINE",
"304 336 OFFCURVE",
"237 323 OFFCURVE",
"190 280 CURVE SMOOTH",
"161 254 OFFCURVE",
"136 221 OFFCURVE",
"136 183 CURVE SMOOTH",
"136 154 OFFCURVE",
"138 123 OFFCURVE",
"161 103 CURVE SMOOTH",
"187 80 OFFCURVE",
"225 77 OFFCURVE",
"261 77 CURVE SMOOTH",
"309 77 OFFCURVE",
"382 88 OFFCURVE",
"418 88 CURVE SMOOTH",
"488 88 OFFCURVE",
"519 71 OFFCURVE",
"519 29 CURVE SMOOTH",
"519 -32 OFFCURVE",
"474 -82 OFFCURVE"
);
}
);
width = 516;
}
);
unicode = 03BE;
},
{
color = 1;
glyphname = pi;
lastChange = "2016-09-03 06:59:20 +0000";
layers = (
{
layerId = "2927A78B-FE88-4016-B2C6-41428F7EDB2B";
paths = (
{
closed = 1;
nodes = (
"162 485 CURVE SMOOTH",
"534 485 LINE SMOOTH",
"580 485 OFFCURVE",
"633 493 OFFCURVE",
"660 523 CURVE",
"676 511 LINE",
"652 461 OFFCURVE",
"617 388 OFFCURVE",
"587 388 CURVE SMOOTH",
"509 388 LINE",
"504 344 OFFCURVE",
"500 294 OFFCURVE",
"500 258 CURVE SMOOTH",
"500 174 OFFCURVE",
"502 81 OFFCURVE",
"573 81 CURVE SMOOTH",
"589 81 OFFCURVE",
"611 94 OFFCURVE",
"625 107 CURVE",
"635 105 LINE",
"645 85 LINE",
"606 48 OFFCURVE",
"557 1 OFFCURVE",
"498 1 CURVE SMOOTH",
"390 1 OFFCURVE",
"395 96 OFFCURVE",
"395 183 CURVE SMOOTH",
"395 248 OFFCURVE",
"401 315 OFFCURVE",
"409 380 CURVE",
"402 388 LINE",
"274 388 LINE",
"249 254 OFFCURVE",
"212 131 OFFCURVE",
"158 4 CURVE",
"145 -4 LINE",
"67 8 LINE",
"66 21 LINE",
"80 40 OFFCURVE",
"136 125 OFFCURVE",
"171 200 CURVE SMOOTH",
"191 243 OFFCURVE",
"212 333 OFFCURVE",
"220 388 CURVE",
"126 388 LINE SMOOTH",
"83 388 OFFCURVE",
"53 325 OFFCURVE",
"37 279 CURVE",
"9 291 LINE",
"22 355 OFFCURVE",
"46 450 OFFCURVE",
"70 468 CURVE SMOOTH",
"92 485 OFFCURVE",
"130 485 OFFCURVE"
);
}
);
width = 667;
}
);
unicode = 03C0;
},
{
color = 1;
glyphname = rho;
lastChange = "2016-09-03 06:59:20 +0000";
layers = (
{
layerId = "2927A78B-FE88-4016-B2C6-41428F7EDB2B";
paths = (
{
closed = 1;
nodes = (
"166 -166 LINE",
"74 -196 LINE",
"60 -193 OFFCURVE",
"49 -188 OFFCURVE",
"49 -181 CURVE SMOOTH",
"45 -68 OFFCURVE",
"42 55 OFFCURVE",
"42 162 CURVE SMOOTH",
"42 417 OFFCURVE",
"158 474 OFFCURVE",
"292 474 CURVE SMOOTH",
"350 474 OFFCURVE",
"409 459 OFFCURVE",
"451 421 CURVE SMOOTH",
"495 381 OFFCURVE",
"504 325 OFFCURVE",
"504 270 CURVE SMOOTH",
"504 91 OFFCURVE",
"410 -2 OFFCURVE",
"292 -2 CURVE SMOOTH",
"243 -2 OFFCURVE",
"191 14 OFFCURVE",
"153 55 CURVE",
"144 53 LINE",
"144 -15 OFFCURVE",
"158 -88 OFFCURVE",
"174 -154 CURVE"
);
},
{
closed = 1;
nodes = (
"159 133 CURVE SMOOTH",
"173 85 OFFCURVE",
"207 53 OFFCURVE",
"260 53 CURVE SMOOTH",
"369 53 OFFCURVE",
"382 177 OFFCURVE",
"382 266 CURVE SMOOTH",
"382 334 OFFCURVE",
"365 439 OFFCURVE",
"284 439 CURVE SMOOTH",
"176 439 OFFCURVE",
"148 318 OFFCURVE",
"148 222 CURVE SMOOTH",
"148 198 OFFCURVE",
"150 160 OFFCURVE"
);
}
);
width = 534;
}
);
unicode = 03C1;
},
{
color = 1;
glyphname = sigma;
lastChange = "2016-09-03 06:59:20 +0000";
layers = (
{
layerId = "2927A78B-FE88-4016-B2C6-41428F7EDB2B";
paths = (
{
closed = 1;
nodes = (
"271 425 CURVE SMOOTH",
"229 425 OFFCURVE",
"158 406 OFFCURVE",
"158 228 CURVE SMOOTH",
"158 154 OFFCURVE",
"169 32 OFFCURVE",
"267 32 CURVE SMOOTH",
"367 32 OFFCURVE",
"386 154 OFFCURVE",
"386 233 CURVE SMOOTH",
"386 303 OFFCURVE",
"377 425 OFFCURVE"
);
},
{
closed = 1;
nodes = (
"619 475 CURVE",
"627 471 LINE",
"605 393 LINE",
"595 386 LINE",
"398 421 LINE",
"392 414 LINE",
"468 370 OFFCURVE",
"493 305 OFFCURVE",
"493 231 CURVE SMOOTH",
"493 166 OFFCURVE",
"478 99 OFFCURVE",
"427 53 CURVE SMOOTH",
"384 14 OFFCURVE",
"325 -11 OFFCURVE",
"265 -11 CURVE SMOOTH",
"205 -11 OFFCURVE",
"142 -2 OFFCURVE",
"98 38 CURVE SMOOTH",
"45 86 OFFCURVE",
"32 157 OFFCURVE",
"32 224 CURVE SMOOTH",
"32 289 OFFCURVE",
"40 360 OFFCURVE",
"92 408 CURVE SMOOTH",
"140 452 OFFCURVE",
"204 464 OFFCURVE",
"271 464 CURVE SMOOTH",
"384 464 OFFCURVE",
"506 472 OFFCURVE"
);
}
);
width = 625;
}
);
unicode = 03C3;
},
{
color = 1;
glyphname = tau;
lastChange = "2016-09-03 06:59:20 +0000";
layers = (
{
layerId = "2927A78B-FE88-4016-B2C6-41428F7EDB2B";
paths = (
{
closed = 1;
nodes = (
"476 372 CURVE SMOOTH",
"354 372 LINE",
"343 361 LINE",
"337 320 OFFCURVE",
"330 261 OFFCURVE",
"330 223 CURVE SMOOTH",
"330 167 OFFCURVE",
"337 69 OFFCURVE",
"406 69 CURVE SMOOTH",
"420 69 OFFCURVE",
"441 80 OFFCURVE",
"459 93 CURVE",
"469 92 LINE",
"479 77 LINE",
"439 37 OFFCURVE",
"383 -7 OFFCURVE",
"327 -7 CURVE SMOOTH",
"227 -7 OFFCURVE",
"220 74 OFFCURVE",
"220 127 CURVE SMOOTH",
"220 220 OFFCURVE",
"232 286 OFFCURVE",
"240 361 CURVE",
"231 371 LINE",
"157 371 LINE SMOOTH",
"135 371 OFFCURVE",
"96 368 OFFCURVE",
"79 353 CURVE SMOOTH",
"56 332 OFFCURVE",
"44 298 OFFCURVE",
"34 268 CURVE",
"8 276 LINE",
"16 315 OFFCURVE",
"28 370 OFFCURVE",
"33 391 CURVE SMOOTH",
"46 445 OFFCURVE",
"91 460 OFFCURVE",
"138 460 CURVE SMOOTH",
"433 460 LINE SMOOTH",
"475 460 OFFCURVE",
"517 472 OFFCURVE",
"549 497 CURVE",
"561 488 LINE",
"552 450 OFFCURVE",
"504 372 OFFCURVE"
);
}
);
width = 555;
}
);
unicode = 03C4;
},
{
color = 1;
glyphname = upsilon;
lastChange = "2016-09-03 06:59:20 +0000";
layers = (
{
layerId = "2927A78B-FE88-4016-B2C6-41428F7EDB2B";
paths = (
{
closed = 1;
nodes = (
"400 399 CURVE",
"397 411 LINE",
"480 472 LINE",
"496 466 LINE",
"547 422 OFFCURVE",
"561 357 OFFCURVE",
"561 295 CURVE SMOOTH",
"561 152 OFFCURVE",
"442 -2 OFFCURVE",
"279 -2 CURVE SMOOTH",
"179 -2 OFFCURVE",
"116 66 OFFCURVE",
"116 145 CURVE",
"117 149 OFFCURVE",
"114 252 OFFCURVE",
"114 305 CURVE SMOOTH",
"114 347 OFFCURVE",
"105 392 OFFCURVE",
"71 392 CURVE SMOOTH",
"51 392 OFFCURVE",
"29 381 OFFCURVE",
"9 371 CURVE",
"-6 390 LINE",
"43 423 OFFCURVE",
"112 471 OFFCURVE",
"150 471 CURVE SMOOTH",
"217 471 OFFCURVE",
"218 396 OFFCURVE",
"218 371 CURVE SMOOTH",
"218 240 LINE SMOOTH",
"218 141 OFFCURVE",
"255 65 OFFCURVE",
"347 65 CURVE SMOOTH",
"444 65 OFFCURVE",
"476 151 OFFCURVE",
"476 230 CURVE SMOOTH",
"476 293 OFFCURVE",
"446 352 OFFCURVE"
);
}
);
width = 590;
}
);
unicode = 03C5;
},
{
color = 1;
glyphname = phi;
lastChange = "2016-09-03 06:59:20 +0000";
layers = (
{
layerId = "2927A78B-FE88-4016-B2C6-41428F7EDB2B";
paths = (
{
closed = 1;
nodes = (
"323 -196 LINE",
"309 -185 LINE",
"313 -130 OFFCURVE",
"317 -73 OFFCURVE",
"317 -16 CURVE",
"308 -7 LINE",
"87 -7 OFFCURVE",
"27 97 OFFCURVE",
"27 227 CURVE SMOOTH",
"27 291 OFFCURVE",
"43 358 OFFCURVE",
"94 404 CURVE SMOOTH",
"124 431 OFFCURVE",
"180 469 OFFCURVE",
"307 469 CURVE",
"316 479 LINE",
"315 532 OFFCURVE",
"312 584 OFFCURVE",
"311 637 CURVE",
"416 672 LINE",
"424 663 LINE",
"422 637 OFFCURVE",
"422 561 OFFCURVE",
"421 479 CURVE",
"431 469 LINE",
"477 468 OFFCURVE",
"525 469 OFFCURVE",
"584 454 CURVE SMOOTH",
"695 424 OFFCURVE",
"731 345 OFFCURVE",
"731 259 CURVE SMOOTH",
"731 186 OFFCURVE",
"708 114 OFFCURVE",
"651 62 CURVE SMOOTH",
"589 5 OFFCURVE",
"504 -7 OFFCURVE",
"430 -7 CURVE",
"422 -16 LINE",
"422 -64 OFFCURVE",
"422 -111 OFFCURVE",
"423 -159 CURVE"
);
},
{
closed = 1;
nodes = (
"306 437 LINE",
"263 437 OFFCURVE",
"232 421 OFFCURVE",
"199 391 CURVE SMOOTH",
"158 353 OFFCURVE",
"154 292 OFFCURVE",
"154 236 CURVE SMOOTH",
"154 126 OFFCURVE",
"199 28 OFFCURVE",
"308 28 CURVE",
"316 38 LINE",
"316 427 LINE"
);
},
{
closed = 1;
nodes = (
"430 28 LINE",
"568 28 OFFCURVE",
"604 148 OFFCURVE",
"604 248 CURVE SMOOTH",
"604 435 OFFCURVE",
"493 437 OFFCURVE",
"431 437 CURVE",
"421 428 LINE",
"421 36 LINE"
);
}
);
width = 756;
}
);
unicode = 03C6;
},
{
color = 1;
glyphname = chi;
lastChange = "2016-09-03 06:59:20 +0000";
layers = (
{
layerId = "2927A78B-FE88-4016-B2C6-41428F7EDB2B";
paths = (
{
closed = 1;
nodes = (
"597 -116 CURVE",
"602 -138 LINE",
"555 -162 OFFCURVE",
"502 -193 OFFCURVE",
"454 -193 CURVE SMOOTH",
"367 -193 OFFCURVE",
"332 -86 OFFCURVE",
"259 71 CURVE",
"248 71 LINE",
"224 41 OFFCURVE",
"167 -44 OFFCURVE",
"110 -191 CURVE",
"97 -197 LINE",
"14 -162 LINE",
"82 -62 OFFCURVE",
"156 32 OFFCURVE",
"232 124 CURVE",
"202 190 OFFCURVE",
"165 270 OFFCURVE",
"150 299 CURVE SMOOTH",
"130 338 OFFCURVE",
"103 386 OFFCURVE",
"69 386 CURVE SMOOTH",
"57 386 OFFCURVE",
"40 378 OFFCURVE",
"13 359 CURVE",
"-5 381 LINE",
"36 417 OFFCURVE",
"91 462 OFFCURVE",
"143 462 CURVE SMOOTH",
"188 462 OFFCURVE",
"210 417 OFFCURVE",
"226 385 CURVE",
"229 381 OFFCURVE",
"271 291 OFFCURVE",
"303 222 CURVE",
"313 222 LINE",
"497 464 LINE",
"512 470 LINE",
"567 436 LINE",
"565 425 LINE",
"493 334 OFFCURVE",
"405 255 OFFCURVE",
"328 167 CURVE",
"397 21 OFFCURVE",
"460 -122 OFFCURVE",
"544 -122 CURVE SMOOTH",
"562 -122 OFFCURVE",
"580 -119 OFFCURVE"
);
}
);
width = 563;
}
);
unicode = 03C7;
},
{
color = 1;
glyphname = psi;
lastChange = "2016-09-03 06:59:20 +0000";
layers = (
{
layerId = "2927A78B-FE88-4016-B2C6-41428F7EDB2B";
paths = (
{
closed = 1;
nodes = (
"461 672 LINE",
"469 663 LINE",
"465 615 OFFCURVE",
"465 407 OFFCURVE",
"465 279 CURVE SMOOTH",
"465 43 LINE",
"474 35 LINE",
"610 56 OFFCURVE",
"644 155 OFFCURVE",
"644 248 CURVE SMOOTH",
"644 303 OFFCURVE",
"617 353 OFFCURVE",
"573 390 CURVE",
"573 404 LINE",
"640 465 LINE",
"640 465 OFFCURVE",
"659 459 OFFCURVE",
"664 458 CURVE",
"710 414 OFFCURVE",
"739 356 OFFCURVE",
"739 295 CURVE SMOOTH",
"739 217 OFFCURVE",
"709 136 OFFCURVE",
"648 81 CURVE SMOOTH",
"599 36 OFFCURVE",
"540 15 OFFCURVE",
"473 2 CURVE",
"465 -8 LINE",
"466 -59 OFFCURVE",
"466 -108 OFFCURVE",
"467 -159 CURVE",
"367 -196 LINE",
"354 -185 LINE",
"358 -129 OFFCURVE",
"360 -71 OFFCURVE",
"362 -13 CURVE",
"354 -5 LINE",
"141 -5 OFFCURVE",
"107 78 OFFCURVE",
"107 189 CURVE SMOOTH",
"107 224 OFFCURVE",
"110 259 OFFCURVE",
"110 294 CURVE SMOOTH",
"110 360 OFFCURVE",
"103 371 OFFCURVE",
"92 381 CURVE SMOOTH",
"84 388 OFFCURVE",
"73 391 OFFCURVE",
"62 391 CURVE SMOOTH",
"44 391 OFFCURVE",
"23 380 OFFCURVE",
"7 371 CURVE",
"-6 390 LINE",
"39 424 OFFCURVE",
"100 471 OFFCURVE",
"152 471 CURVE SMOOTH",
"167 471 OFFCURVE",
"182 467 OFFCURVE",
"194 457 CURVE SMOOTH",
"207 446 OFFCURVE",
"216 428 OFFCURVE",
"216 352 CURVE SMOOTH",
"216 312 OFFCURVE",
"213 271 OFFCURVE",
"213 231 CURVE SMOOTH",
"213 124 OFFCURVE",
"248 28 OFFCURVE",
"355 28 CURVE",
"363 36 LINE",
"363 266 LINE SMOOTH",
"363 390 OFFCURVE",
"358 513 OFFCURVE",
"355 637 CURVE"
);
}
);
width = 763;
}
);
unicode = 03C8;
},
{
color = 1;
glyphname = omega;
lastChange = "2016-09-03 06:59:20 +0000";
layers = (
{
layerId = "2927A78B-FE88-4016-B2C6-41428F7EDB2B";
paths = (
{
closed = 1;
nodes = (
"667 432 LINE",
"735 495 LINE",
"755 499 LINE",
"818 467 OFFCURVE",
"838 378 OFFCURVE",
"838 315 CURVE SMOOTH",
"838 166 OFFCURVE",
"732 -7 OFFCURVE",
"556 -7 CURVE SMOOTH",
"491 -7 OFFCURVE",
"440 2 OFFCURVE",
"404 74 CURVE",
"389 74 LINE",
"338 29 OFFCURVE",
"282 -9 OFFCURVE",
"204 -9 CURVE SMOOTH",
"77 -9 OFFCURVE",
"29 105 OFFCURVE",
"29 198 CURVE SMOOTH",
"29 317 OFFCURVE",
"77 457 OFFCURVE",
"225 496 CURVE",
"242 476 LINE",
"160 435 OFFCURVE",
"128 354 OFFCURVE",
"128 275 CURVE SMOOTH",
"128 191 OFFCURVE",
"172 73 OFFCURVE",
"284 73 CURVE SMOOTH",
"348 73 OFFCURVE",
"383 128 OFFCURVE",
"383 207 CURVE SMOOTH",
"383 369 LINE SMOOTH",
"383 381 OFFCURVE",
"380 431 OFFCURVE",
"378 464 CURVE",
"485 496 LINE",
"495 486 LINE",
"489 416 OFFCURVE",
"485 346 OFFCURVE",
"485 276 CURVE SMOOTH",
"485 171 OFFCURVE",
"510 67 OFFCURVE",
"613 67 CURVE SMOOTH",
"712 67 OFFCURVE",
"752 156 OFFCURVE",
"752 232 CURVE SMOOTH",
"752 300 OFFCURVE",
"726 366 OFFCURVE",
"670 413 CURVE"
);
}
);
width = 866;
}
);
unicode = 03C9;
},
{
color = 1;
glyphname = epsilon;
lastChange = "2016-09-03 06:59:20 +0000";
layers = (
{
layerId = "2927A78B-FE88-4016-B2C6-41428F7EDB2B";
paths = (
{
closed = 1;
nodes = (
"283 286 CURVE",
"251 222 LINE",
"238 226 OFFCURVE",
"200 233 OFFCURVE",
"186 233 CURVE SMOOTH",
"143 233 OFFCURVE",
"125 196 OFFCURVE",
"125 168 CURVE SMOOTH",
"125 97 OFFCURVE",
"189 61 OFFCURVE",
"260 61 CURVE SMOOTH",
"312 61 OFFCURVE",
"361 85 OFFCURVE",
"401 114 CURVE",
"409 113 LINE",
"421 96 LINE",
"354 37 OFFCURVE",
"267 -16 OFFCURVE",
"175 -16 CURVE SMOOTH",
"96 -16 OFFCURVE",
"28 35 OFFCURVE",
"28 118 CURVE SMOOTH",
"28 162 OFFCURVE",
"54 217 OFFCURVE",
"120 239 CURVE",
"119 245 LINE",
"79 258 OFFCURVE",
"51 301 OFFCURVE",
"51 343 CURVE SMOOTH",
"51 425 OFFCURVE",
"151 472 OFFCURVE",
"229 472 CURVE SMOOTH",
"277 472 OFFCURVE",
"326 459 OFFCURVE",
"360 427 CURVE",
"317 352 LINE",
"306 352 LINE",
"282 402 OFFCURVE",
"250 436 OFFCURVE",
"199 436 CURVE SMOOTH",
"164 436 OFFCURVE",
"127 411 OFFCURVE",
"127 378 CURVE SMOOTH",
"127 299 OFFCURVE",
"217 286 OFFCURVE"
);
}
);
width = 417;
}
);
unicode = 03B5;
},
{
color = 1;
glyphname = theta1;
lastChange = "2016-09-03 06:59:20 +0000";
layers = (
{
layerId = "2927A78B-FE88-4016-B2C6-41428F7EDB2B";
paths = (
{
closed = 1;
nodes = (
"5 273 CURVE",
"-8 293 LINE",
"41 327 OFFCURVE",
"104 370 OFFCURVE",
"145 370 CURVE SMOOTH",
"208 370 OFFCURVE",
"205 307 OFFCURVE",
"205 237 CURVE SMOOTH",
"205 149 OFFCURVE",
"227 66 OFFCURVE",
"319 66 CURVE SMOOTH",
"368 66 OFFCURVE",
"441 98 OFFCURVE",
"452 307 CURVE",
"444 315 LINE",
"339 335 LINE",
"239 364 OFFCURVE",
"167 429 OFFCURVE",
"167 521 CURVE SMOOTH",
"167 607 OFFCURVE",
"232 676 OFFCURVE",
"331 676 CURVE SMOOTH",
"375 676 OFFCURVE",
"418 661 OFFCURVE",
"449 633 CURVE SMOOTH",
"536 554 OFFCURVE",
"540 449 OFFCURVE",
"540 351 CURVE",
"546 342 LINE",
"563 342 OFFCURVE",
"592 341 OFFCURVE",
"604 341 CURVE",
"604 306 LINE",
"575 306 OFFCURVE",
"558 306 OFFCURVE",
"543 307 CURVE",
"534 300 LINE",
"514 137 OFFCURVE",
"398 -8 OFFCURVE",
"255 -8 CURVE SMOOTH",
"115 -8 OFFCURVE",
"99 113 OFFCURVE",
"99 204 CURVE SMOOTH",
"99 278 OFFCURVE",
"81 291 OFFCURVE",
"53 291 CURVE SMOOTH",
"38 291 OFFCURVE",
"20 282 OFFCURVE"
);
},
{
closed = 1;
nodes = (
"453 359 LINE",
"453 377 LINE SMOOTH",
"453 464 OFFCURVE",
"422 633 OFFCURVE",
"305 633 CURVE SMOOTH",
"269 633 OFFCURVE",
"235 611 OFFCURVE",
"235 565 CURVE SMOOTH",
"235 458 OFFCURVE",
"315 377 OFFCURVE",
"446 353 CURVE"
);
}
);
width = 602;
}
);
unicode = 03D1;
},
{
color = 1;
glyphname = pi1;
lastChange = "2016-09-03 06:59:20 +0000";
layers = (
{
layerId = "2927A78B-FE88-4016-B2C6-41428F7EDB2B";
paths = (
{
closed = 1;
nodes = (
"214 381 CURVE",
"224 367 LINE",
"222 364 LINE",
"159 334 OFFCURVE",
"123 280 OFFCURVE",
"123 219 CURVE SMOOTH",
"123 147 OFFCURVE",
"167 65 OFFCURVE",
"255 65 CURVE SMOOTH",
"359 65 OFFCURVE",
"362 150 OFFCURVE",
"361 235 CURVE SMOOTH",
"360 314 LINE",
"454 346 LINE",
"469 330 LINE",
"467 298 OFFCURVE",
"464 237 OFFCURVE",
"464 234 CURVE SMOOTH",
"466 164 OFFCURVE",
"483 60 OFFCURVE",
"571 60 CURVE SMOOTH",
"674 60 OFFCURVE",
"722 145 OFFCURVE",
"722 227 CURVE SMOOTH",
"722 290 OFFCURVE",
"701 353 OFFCURVE",
"652 398 CURVE SMOOTH",
"582 462 OFFCURVE",
"462 473 OFFCURVE",
"362 473 CURVE SMOOTH",
"255 473 OFFCURVE",
"124 450 OFFCURVE",
"56 375 CURVE",
"39 389 LINE",
"144 531 OFFCURVE",
"276 547 OFFCURVE",
"418 547 CURVE SMOOTH",
"673 547 OFFCURVE",
"808 456 OFFCURVE",
"808 291 CURVE SMOOTH",
"808 110 OFFCURVE",
"664 -11 OFFCURVE",
"518 -11 CURVE SMOOTH",
"459 -11 OFFCURVE",
"406 17 OFFCURVE",
"382 66 CURVE",
"371 69 LINE",
"322 22 OFFCURVE",
"267 -11 OFFCURVE",
"198 -11 CURVE SMOOTH",
"88 -11 OFFCURVE",
"27 70 OFFCURVE",
"27 162 CURVE SMOOTH",
"27 262 OFFCURVE",
"102 350 OFFCURVE"
);
}
);
width = 834;
}
);
unicode = 03D6;
},
{
color = 1;
glyphname = phi1;
lastChange = "2016-09-03 06:59:20 +0000";
layers = (
{
layerId = "2927A78B-FE88-4016-B2C6-41428F7EDB2B";
paths = (
{
closed = 1;
nodes = (
"272 -201 LINE",
"257 -197 LINE",
"260 -154 OFFCURVE",
"262 -60 OFFCURVE",
"262 -9 CURVE",
"256 -1 LINE",
"90 6 OFFCURVE",
"24 116 OFFCURVE",
"24 227 CURVE SMOOTH",
"24 359 OFFCURVE",
"127 446 OFFCURVE",
"261 472 CURVE",
"271 448 LINE",
"173 418 OFFCURVE",
"140 345 OFFCURVE",
"140 266 CURVE SMOOTH",
"140 190 OFFCURVE",
"161 52 OFFCURVE",
"256 36 CURVE",
"262 42 LINE",
"262 270 LINE SMOOTH",
"262 331 OFFCURVE",
"285 365 OFFCURVE",
"325 403 CURVE SMOOTH",
"358 434 OFFCURVE",
"424 468 OFFCURVE",
"499 468 CURVE SMOOTH",
"629 468 OFFCURVE",
"676 366 OFFCURVE",
"676 273 CURVE SMOOTH",
"676 200 OFFCURVE",
"651 128 OFFCURVE",
"594 76 CURVE SMOOTH",
"535 22 OFFCURVE",
"455 -1 OFFCURVE",
"373 -3 CURVE",
"367 -10 LINE",
"367 -62 OFFCURVE",
"370 -138 OFFCURVE",
"372 -171 CURVE"
);
},
{
closed = 1;
nodes = (
"373 30 LINE",
"398 30 OFFCURVE",
"413 31 OFFCURVE",
"433 41 CURVE SMOOTH",
"531 88 OFFCURVE",
"557 168 OFFCURVE",
"557 255 CURVE SMOOTH",
"557 323 OFFCURVE",
"520 421 OFFCURVE",
"457 421 CURVE SMOOTH",
"365 421 OFFCURVE",
"367 323 OFFCURVE",
"367 256 CURVE SMOOTH",
"367 38 LINE"
);
}
);
width = 702;
}
);
unicode = 03D5;
},
{
color = 0;
glyphname = zero;
lastChange = "2016-09-03 06:56:34 +0000";
layers = (
{
layerId = "2927A78B-FE88-4016-B2C6-41428F7EDB2B";
paths = (
{
closed = 1;
nodes = (
"325 716 CURVE",
"481 647 OFFCURVE",
"513 482 OFFCURVE",
"513 344 CURVE SMOOTH",
"513 221 OFFCURVE",
"448 -15 OFFCURVE",
"251 -15 CURVE SMOOTH",
"88 -15 OFFCURVE",
"40 160 OFFCURVE",
"40 285 CURVE SMOOTH",
"40 410 OFFCURVE",
"73 539 OFFCURVE",
"174 626 CURVE SMOOTH",
"218 664 OFFCURVE",
"270 703 OFFCURVE"
);
},
{
closed = 1;
nodes = (
"256 632 CURVE",
"161 584 OFFCURVE",
"133 479 OFFCURVE",
"133 384 CURVE SMOOTH",
"133 328 OFFCURVE",
"140 272 OFFCURVE",
"159 218 CURVE SMOOTH",
"183 151 OFFCURVE",
"236 67 OFFCURVE",
"312 67 CURVE SMOOTH",
"389 67 OFFCURVE",
"436 135 OFFCURVE",
"436 274 CURVE SMOOTH",
"436 368 OFFCURVE",
"422 464 OFFCURVE",
"365 543 CURVE SMOOTH",
"338 580 OFFCURVE",
"296 621 OFFCURVE"
);
}
);
width = 550;
}
);
unicode = 0030;
},
{
color = 0;
glyphname = one;
lastChange = "2016-09-03 06:56:34 +0000";
layers = (
{
layerId = "2927A78B-FE88-4016-B2C6-41428F7EDB2B";
paths = (
{
closed = 1;
nodes = (
"70 626 LINE",
"341 715 LINE",
"357 697 LINE",
"346 560 OFFCURVE",
"342 422 OFFCURVE",
"342 284 CURVE SMOOTH",
"342 200 OFFCURVE",
"342 96 OFFCURVE",
"345 32 CURVE",
"238 -9 LINE",
"217 5 LINE",
"230 123 OFFCURVE",
"237 242 OFFCURVE",
"237 361 CURVE SMOOTH",
"237 428 OFFCURVE",
"236 494 OFFCURVE",
"231 561 CURVE SMOOTH",
"230 578 OFFCURVE",
"215 594 OFFCURVE",
"198 594 CURVE SMOOTH",
"70 594 LINE"
);
}
);
width = 550;
}
);
unicode = 0031;
},
{
color = 0;
glyphname = two;
lastChange = "2016-09-03 06:56:34 +0000";
layers = (
{
layerId = "2927A78B-FE88-4016-B2C6-41428F7EDB2B";
paths = (
{
closed = 1;
nodes = (
"529 109 LINE",
"500 5 LINE",
"15 5 LINE",
"15 25 LINE",
"113 106 OFFCURVE",
"202 194 OFFCURVE",
"276 294 CURVE SMOOTH",
"322 356 OFFCURVE",
"359 427 OFFCURVE",
"359 503 CURVE SMOOTH",
"359 566 OFFCURVE",
"332 641 OFFCURVE",
"242 641 CURVE SMOOTH",
"190 641 OFFCURVE",
"138 608 OFFCURVE",
"94 580 CURVE",
"76 604 LINE",
"139 661 OFFCURVE",
"224 715 OFFCURVE",
"313 715 CURVE SMOOTH",
"406 715 OFFCURVE",
"491 661 OFFCURVE",
"491 569 CURVE SMOOTH",
"491 408 OFFCURVE",
"303 256 OFFCURVE",
"186 118 CURVE",
"185 117 OFFCURVE",
"185 115 OFFCURVE",
"185 114 CURVE SMOOTH",
"185 112 OFFCURVE",
"188 109 OFFCURVE",
"191 109 CURVE SMOOTH"
);
}
);
width = 550;
}
);
unicode = 0032;
},
{
color = 0;
glyphname = three;
lastChange = "2016-09-03 06:56:34 +0000";
layers = (
{
layerId = "2927A78B-FE88-4016-B2C6-41428F7EDB2B";
paths = (
{
closed = 1;
nodes = (
"281 391 CURVE",
"281 384 LINE",
"420 372 OFFCURVE",
"496 319 OFFCURVE",
"496 223 CURVE SMOOTH",
"496 75 OFFCURVE",
"353 -8 OFFCURVE",
"210 -8 CURVE SMOOTH",
"142 -8 OFFCURVE",
"75 12 OFFCURVE",
"25 53 CURVE",
"82 160 LINE",
"101 158 LINE",
"117 102 OFFCURVE",
"154 32 OFFCURVE",
"217 32 CURVE SMOOTH",
"328 32 OFFCURVE",
"369 117 OFFCURVE",
"369 201 CURVE SMOOTH",
"369 332 OFFCURVE",
"251 359 OFFCURVE",
"133 359 CURVE",
"133 388 LINE",
"218 393 OFFCURVE",
"338 433 OFFCURVE",
"338 542 CURVE SMOOTH",
"338 602 OFFCURVE",
"293 644 OFFCURVE",
"229 644 CURVE SMOOTH",
"179 644 OFFCURVE",
"132 615 OFFCURVE",
"89 588 CURVE",
"72 613 LINE",
"135 660 OFFCURVE",
"213 708 OFFCURVE",
"295 708 CURVE SMOOTH",
"376 708 OFFCURVE",
"455 663 OFFCURVE",
"455 582 CURVE SMOOTH",
"455 488 OFFCURVE",
"372 425 OFFCURVE"
);
}
);
width = 550;
}
);
unicode = 0033;
},
{
color = 0;
glyphname = four;
lastChange = "2016-09-03 06:56:34 +0000";
layers = (
{
layerId = "2927A78B-FE88-4016-B2C6-41428F7EDB2B";
paths = (
{
closed = 1;
nodes = (
"413 255 LINE",
"515 255 LINE",
"519 246 LINE",
"490 184 LINE",
"413 184 LINE",
"406 177 LINE",
"406 128 OFFCURVE",
"408 80 OFFCURVE",
"413 32 CURVE",
"305 -12 LINE",
"291 -1 LINE",
"297 58 OFFCURVE",
"301 118 OFFCURVE",
"301 178 CURVE",
"294 184 LINE",
"2 184 LINE",
"2 236 LINE",
"301 679 LINE",
"406 708 LINE",
"406 698 LINE",
"406 263 LINE"
);
},
{
closed = 1;
nodes = (
"301 260 LINE",
"301 571 LINE",
"295 581 LINE",
"290 581 OFFCURVE",
"248 529 OFFCURVE",
"197 455 CURVE SMOOTH",
"96 307 OFFCURVE",
"82 265 OFFCURVE",
"82 261 CURVE",
"88 255 LINE",
"293 255 LINE"
);
}
);
width = 550;
}
);
unicode = 0034;
},
{
color = 0;
glyphname = five;
lastChange = "2016-09-03 06:56:34 +0000";
layers = (
{
layerId = "2927A78B-FE88-4016-B2C6-41428F7EDB2B";
paths = (
{
closed = 1;
nodes = (
"475 694 LINE",
"480 690 LINE",
"442 591 LINE",
"137 591 LINE",
"137 417 LINE",
"147 413 LINE",
"193 435 OFFCURVE",
"239 446 OFFCURVE",
"285 446 CURVE SMOOTH",
"409 446 OFFCURVE",
"495 371 OFFCURVE",
"495 255 CURVE SMOOTH",
"495 105 OFFCURVE",
"371 -12 OFFCURVE",
"209 -12 CURVE SMOOTH",
"143 -12 OFFCURVE",
"98 -6 OFFCURVE",
"18 49 CURVE",
"18 62 LINE",
"67 157 LINE",
"85 157 LINE",
"104 94 OFFCURVE",
"143 30 OFFCURVE",
"221 30 CURVE SMOOTH",
"336 30 OFFCURVE",
"368 140 OFFCURVE",
"368 230 CURVE SMOOTH",
"368 305 OFFCURVE",
"337 397 OFFCURVE",
"224 397 CURVE SMOOTH",
"188 397 OFFCURVE",
"131 372 OFFCURVE",
"103 341 CURVE",
"83 349 LINE",
"83 694 LINE"
);
}
);
width = 550;
}
);
unicode = 0035;
},
{
color = 0;
glyphname = six;
lastChange = "2016-09-03 06:56:34 +0000";
layers = (
{
layerId = "2927A78B-FE88-4016-B2C6-41428F7EDB2B";
paths = (
{
closed = 1;
nodes = (
"496 625 LINE",
"477 623 LINE",
"453 638 OFFCURVE",
"424 646 OFFCURVE",
"395 646 CURVE SMOOTH",
"230 646 OFFCURVE",
"164 473 OFFCURVE",
"159 336 CURVE",
"167 331 LINE",
"217 362 OFFCURVE",
"273 386 OFFCURVE",
"334 386 CURVE SMOOTH",
"440 386 OFFCURVE",
"509 305 OFFCURVE",
"509 216 CURVE SMOOTH",
"509 97 OFFCURVE",
"377 -12 OFFCURVE",
"243 -12 CURVE SMOOTH",
"100 -12 OFFCURVE",
"44 141 OFFCURVE",
"44 253 CURVE SMOOTH",
"44 465 OFFCURVE",
"221 704 OFFCURVE",
"459 704 CURVE SMOOTH",
"472 704 OFFCURVE",
"504 697 OFFCURVE",
"520 690 CURVE"
);
},
{
closed = 1;
nodes = (
"161 286 CURVE",
"165 196 OFFCURVE",
"184 39 OFFCURVE",
"304 39 CURVE SMOOTH",
"375 39 OFFCURVE",
"419 107 OFFCURVE",
"419 165 CURVE SMOOTH",
"419 244 OFFCURVE",
"368 320 OFFCURVE",
"269 320 CURVE SMOOTH",
"230 320 OFFCURVE",
"194 303 OFFCURVE"
);
}
);
width = 550;
}
);
unicode = 0036;
},
{
color = 0;
glyphname = seven;
lastChange = "2016-09-03 06:56:34 +0000";
layers = (
{
layerId = "2927A78B-FE88-4016-B2C6-41428F7EDB2B";
paths = (
{
closed = 1;
nodes = (
"251 20 CURVE",
"132 -15 LINE",
"113 4 LINE",
"165 214 OFFCURVE",
"289 378 OFFCURVE",
"444 582 CURVE",
"446 585 OFFCURVE",
"447 588 OFFCURVE",
"447 592 CURVE",
"444 596 OFFCURVE",
"438 596 OFFCURVE",
"433 596 CURVE SMOOTH",
"338 595 OFFCURVE",
"243 595 OFFCURVE",
"148 595 CURVE SMOOTH",
"105 593 OFFCURVE",
"105 577 OFFCURVE",
"87 480 CURVE",
"50 480 LINE",
"50 696 LINE",
"197 693 OFFCURVE",
"381 693 OFFCURVE",
"547 693 CURVE",
"547 676 LINE",
"466 560 OFFCURVE",
"391 442 OFFCURVE",
"328 318 CURVE SMOOTH",
"282 226 OFFCURVE",
"258 120 OFFCURVE"
);
}
);
width = 550;
}
);
unicode = 0037;
},
{
color = 0;
glyphname = eight;
lastChange = "2016-09-03 06:56:34 +0000";
layers = (
{
layerId = "2927A78B-FE88-4016-B2C6-41428F7EDB2B";
paths = (
{
closed = 1;
nodes = (
"249 330 CURVE",
"176 297 OFFCURVE",
"148 259 OFFCURVE",
"148 196 CURVE SMOOTH",
"148 125 OFFCURVE",
"201 37 OFFCURVE",
"282 37 CURVE SMOOTH",
"364 37 OFFCURVE",
"402 91 OFFCURVE",
"402 157 CURVE SMOOTH",
"402 235 OFFCURVE",
"316 291 OFFCURVE"
);
},
{
closed = 1;
nodes = (
"356 393 LINE",
"449 331 OFFCURVE",
"505 290 OFFCURVE",
"505 206 CURVE SMOOTH",
"505 75 OFFCURVE",
"370 -5 OFFCURVE",
"237 -5 CURVE SMOOTH",
"128 -5 OFFCURVE",
"42 59 OFFCURVE",
"42 161 CURVE SMOOTH",
"42 254 OFFCURVE",
"103 300 OFFCURVE",
"212 353 CURVE",
"212 360 LINE",
"152 407 OFFCURVE",
"82 460 OFFCURVE",
"82 533 CURVE SMOOTH",
"82 629 OFFCURVE",
"195 685 OFFCURVE",
"291 720 CURVE",
"401 705 OFFCURVE",
"483 665 OFFCURVE",
"483 586 CURVE SMOOTH",
"483 509 OFFCURVE",
"418 448 OFFCURVE",
"356 403 CURVE"
);
},
{
closed = 1;
nodes = (
"315 422 CURVE",
"358 451 OFFCURVE",
"381 502 OFFCURVE",
"381 550 CURVE SMOOTH",
"381 620 OFFCURVE",
"319 661 OFFCURVE",
"252 667 CURVE",
"209 651 OFFCURVE",
"187 611 OFFCURVE",
"187 570 CURVE SMOOTH",
"187 520 OFFCURVE",
"260 460 OFFCURVE"
);
}
);
width = 550;
}
);
unicode = 0038;
},
{
color = 0;
glyphname = nine;
lastChange = "2016-09-03 06:56:34 +0000";
layers = (
{
layerId = "2927A78B-FE88-4016-B2C6-41428F7EDB2B";
paths = (
{
closed = 1;
nodes = (
"376 342 LINE",
"369 349 LINE",
"298 313 OFFCURVE",
"235 303 OFFCURVE",
"215 303 CURVE SMOOTH",
"125 303 OFFCURVE",
"48 382 OFFCURVE",
"48 465 CURVE SMOOTH",
"48 580 OFFCURVE",
"146 651 OFFCURVE",
"252 707 CURVE",
"295 707 OFFCURVE",
"335 707 OFFCURVE",
"377 698 CURVE SMOOTH",
"457 681 OFFCURVE",
"514 622 OFFCURVE",
"514 551 CURVE SMOOTH",
"514 514 OFFCURVE",
"500 480 OFFCURVE",
"485 446 CURVE SMOOTH",
"422 303 OFFCURVE",
"291 170 OFFCURVE",
"235 16 CURVE",
"128 -10 LINE",
"113 2 LINE",
"132 36 OFFCURVE",
"154 66 OFFCURVE",
"179 97 CURVE SMOOTH"
);
},
{
closed = 1;
nodes = (
"380 393 CURVE",
"389 416 OFFCURVE",
"400 445 OFFCURVE",
"400 470 CURVE SMOOTH",
"400 522 OFFCURVE",
"381 572 OFFCURVE",
"341 608 CURVE SMOOTH",
"313 634 OFFCURVE",
"247 646 OFFCURVE",
"215 646 CURVE",
"176 616 OFFCURVE",
"155 568 OFFCURVE",
"155 523 CURVE SMOOTH",
"155 446 OFFCURVE",
"204 370 OFFCURVE",
"302 370 CURVE SMOOTH",
"331 370 OFFCURVE",
"356 380 OFFCURVE"
);
}
);
width = 550;
}
);
unicode = 0039;
},
{
color = 1;
glyphname = period;
lastChange = "2016-09-03 06:59:20 +0000";
layers = (
{
layerId = "2927A78B-FE88-4016-B2C6-41428F7EDB2B";
paths = (
{
closed = 1;
nodes = (
"69 56 CURVE SMOOTH",
"69 95 OFFCURVE",
"101 127 OFFCURVE",
"140 127 CURVE SMOOTH",
"178 127 OFFCURVE",
"210 95 OFFCURVE",
"210 56 CURVE SMOOTH",
"210 18 OFFCURVE",
"178 -14 OFFCURVE",
"140 -14 CURVE SMOOTH",
"101 -14 OFFCURVE",
"69 18 OFFCURVE"
);
}
);
width = 280;
}
);
unicode = 002E;
},
{
color = 1;
glyphname = comma;
lastChange = "2016-09-03 06:59:20 +0000";
layers = (
{
layerId = "2927A78B-FE88-4016-B2C6-41428F7EDB2B";
paths = (
{
closed = 1;
nodes = (
"83 -192 CURVE",
"63 -173 LINE",
"93 -138 OFFCURVE",
"122 -100 OFFCURVE",
"122 -61 CURVE SMOOTH",
"122 -46 OFFCURVE",
"118 -31 OFFCURVE",
"108 -19 CURVE SMOOTH",
"54 42 LINE",
"47 52 OFFCURVE",
"44 64 OFFCURVE",
"44 76 CURVE SMOOTH",
"44 100 OFFCURVE",
"72 124 OFFCURVE",
"103 124 CURVE SMOOTH",
"139 124 OFFCURVE",
"186 15 OFFCURVE",
"186 -27 CURVE SMOOTH",
"186 -83 OFFCURVE",
"127 -145 OFFCURVE"
);
}
);
width = 239;
}
);
unicode = 002C;
},
{
color = 1;
glyphname = less;
lastChange = "2016-09-03 06:59:20 +0000";
layers = (
{
layerId = "2927A78B-FE88-4016-B2C6-41428F7EDB2B";
paths = (
{
closed = 1;
nodes = (
"362 443 LINE",
"129 252 LINE",
"372 29 LINE",
"329 -10 LINE",
"52 245 LINE",
"337 475 LINE"
);
}
);
width = 430;
}
);
unicode = 003C;
},
{
color = 1;
glyphname = slash;
lastChange = "2016-09-03 06:59:20 +0000";
layers = (
{
layerId = "2927A78B-FE88-4016-B2C6-41428F7EDB2B";
paths = (
{
closed = 1;
nodes = (
"422 711 LINE",
"427 700 LINE",
"38 -196 LINE",
"-8 -184 LINE",
"-11 -170 LINE",
"375 718 LINE",
"386 720 LINE"
);
}
);
width = 415;
}
);
unicode = 002F;
},
{
color = 1;
glyphname = greater;
lastChange = "2016-09-03 06:59:20 +0000";
layers = (
{
layerId = "2927A78B-FE88-4016-B2C6-41428F7EDB2B";
paths = (
{
closed = 1;
nodes = (
"353 241 LINE",
"98 -7 LINE",
"71 14 LINE",
"289 228 LINE",
"58 437 LINE",
"98 472 LINE"
);
}
);
width = 405;
}
);
unicode = 003E;
},
{
color = 1;
glyphname = partialdiff;
lastChange = "2016-09-03 06:57:18 +0000";
layers = (
{
layerId = "2927A78B-FE88-4016-B2C6-41428F7EDB2B";
paths = (
{
closed = 1;
nodes = (
"109 534 CURVE",
"86 545 LINE",
"100 582 OFFCURVE",
"115 620 OFFCURVE",
"145 648 CURVE SMOOTH",
"181 681 OFFCURVE",
"232 696 OFFCURVE",
"283 696 CURVE SMOOTH",
"338 696 OFFCURVE",
"389 667 OFFCURVE",
"427 632 CURVE SMOOTH",
"524 543 OFFCURVE",
"553 402 OFFCURVE",
"553 279 CURVE SMOOTH",
"553 145 OFFCURVE",
"490 -18 OFFCURVE",
"307 -18 CURVE SMOOTH",
"244 -18 OFFCURVE",
"188 3 OFFCURVE",
"144 43 CURVE SMOOTH",
"96 86 OFFCURVE",
"82 164 OFFCURVE",
"82 225 CURVE SMOOTH",
"82 291 OFFCURVE",
"99 360 OFFCURVE",
"152 408 CURVE SMOOTH",
"203 455 OFFCURVE",
"272 477 OFFCURVE",
"344 477 CURVE SMOOTH",
"351 477 OFFCURVE",
"367 476 OFFCURVE",
"383 474 CURVE",
"389 484 LINE",
"360 551 OFFCURVE",
"309 625 OFFCURVE",
"223 625 CURVE SMOOTH",
"170 625 OFFCURVE",
"138 598 OFFCURVE"
);
},
{
closed = 1;
nodes = (
"406 430 CURVE",
"390 436 OFFCURVE",
"372 441 OFFCURVE",
"355 441 CURVE SMOOTH",
"234 441 OFFCURVE",
"200 342 OFFCURVE",
"200 240 CURVE SMOOTH",
"200 165 OFFCURVE",
"219 21 OFFCURVE",
"324 21 CURVE SMOOTH",
"430 21 OFFCURVE",
"439 166 OFFCURVE",
"439 261 CURVE SMOOTH",
"439 319 OFFCURVE",
"427 376 OFFCURVE"
);
}
);
width = 635;
}
);
unicode = 2202;
},
{
color = 1;
glyphname = A;
lastChange = "2016-09-03 06:29:57 +0000";
layers = (
{
anchors = (
{
name = bottom;
position = "{418, 0}";
},
{
name = ogonek;
position = "{752, 10}";
},
{
name = top;
position = "{418, 692}";
}
);
layerId = "2927A78B-FE88-4016-B2C6-41428F7EDB2B";
paths = (
{
closed = 1;
nodes = (
"137 10 CURVE",
"11 -1 LINE",
"9 9 LINE",
"144 210 OFFCURVE",
"268 415 OFFCURVE",
"379 628 CURVE",
"380 629 OFFCURVE",
"380 631 OFFCURVE",
"380 633 CURVE SMOOTH",
"380 634 OFFCURVE",
"379 637 OFFCURVE",
"377 637 CURVE",
"283 649 LINE",
"283 687 LINE",
"507 687 LINE",
"618 314 LINE SMOOTH",
"646 220 OFFCURVE",
"694 62 OFFCURVE",
"762 62 CURVE SMOOTH",
"779 62 OFFCURVE",
"801 66 OFFCURVE",
"820 70 CURVE",
"827 42 LINE",
"769 16 OFFCURVE",
"704 -14 OFFCURVE",
"646 -14 CURVE SMOOTH",
"586 -14 OFFCURVE",
"562 40 OFFCURVE",
"549 86 CURVE SMOOTH",
"498 268 LINE",
"247 268 LINE",
"213 204 OFFCURVE",
"171 97 OFFCURVE"
);
},
{
closed = 1;
nodes = (
"467 320 LINE SMOOTH",
"470 320 OFFCURVE",
"476 322 OFFCURVE",
"476 325 CURVE SMOOTH",
"476 328 OFFCURVE",
"476 336 OFFCURVE",
"475 338 CURVE",
"410 543 LINE SMOOTH",
"408 549 OFFCURVE",
"403 551 OFFCURVE",
"401 551 CURVE SMOOTH",
"399 551 OFFCURVE",
"395 548 OFFCURVE",
"392 543 CURVE",
"287 335 LINE",
"285 332 OFFCURVE",
"285 330 OFFCURVE",
"285 326 CURVE SMOOTH",
"285 323 OFFCURVE",
"292 320 OFFCURVE",
"296 320 CURVE SMOOTH"
);
}
);
width = 836;
}
);
unicode = 0041;
},
{
color = 1;
glyphname = B;
lastChange = "2016-09-03 06:28:14 +0000";
layers = (
{
layerId = "2927A78B-FE88-4016-B2C6-41428F7EDB2B";
paths = (
{
closed = 1;
nodes = (
"388 379 CURVE",
"388 368 LINE",
"526 356 OFFCURVE",
"608 302 OFFCURVE",
"608 207 CURVE SMOOTH",
"608 46 OFFCURVE",
"458 -2 OFFCURVE",
"312 -2 CURVE SMOOTH",
"68 -2 LINE",
"68 14 LINE",
"105 38 OFFCURVE",
"104 54 OFFCURVE",
"104 84 CURVE SMOOTH",
"104 566 LINE SMOOTH",
"104 621 OFFCURVE",
"122 643 OFFCURVE",
"7 676 CURVE",
"7 697 LINE",
"13 703 LINE",
"321 703 LINE SMOOTH",
"490 703 OFFCURVE",
"584 655 OFFCURVE",
"584 550 CURVE SMOOTH",
"584 449 OFFCURVE",
"480 398 OFFCURVE"
);
},
{
closed = 1;
nodes = (
"229 117 LINE SMOOTH",
"229 68 OFFCURVE",
"228 40 OFFCURVE",
"270 40 CURVE SMOOTH",
"381 40 OFFCURVE",
"463 104 OFFCURVE",
"463 209 CURVE SMOOTH",
"463 245 OFFCURVE",
"445 277 OFFCURVE",
"417 304 CURVE SMOOTH",
"377 341 OFFCURVE",
"293 345 OFFCURVE",
"229 347 CURVE"
);
},
{
closed = 1;
nodes = (
"229 385 LINE",
"373 385 OFFCURVE",
"448 443 OFFCURVE",
"448 542 CURVE SMOOTH",
"448 637 OFFCURVE",
"369 661 OFFCURVE",
"283 661 CURVE SMOOTH",
"269 661 OFFCURVE",
"254 659 OFFCURVE",
"242 656 CURVE SMOOTH",
"228 652 OFFCURVE",
"229 634 OFFCURVE",
"229 604 CURVE SMOOTH"
);
}
);
width = 644;
}
);
unicode = 0042;
},
{
color = 1;
glyphname = C;
lastChange = "2016-09-03 06:40:37 +0000";
layers = (
{
anchors = (
{
name = bottom;
position = "{436, 0}";
},
{
name = top;
position = "{361, 692}";
}
);
layerId = "2927A78B-FE88-4016-B2C6-41428F7EDB2B";
paths = (
{
closed = 1;
nodes = (
"705 585 CURVE",
"611 499 LINE",
"595 502 LINE",
"572 588 OFFCURVE",
"520 666 OFFCURVE",
"409 666 CURVE SMOOTH",
"238 666 OFFCURVE",
"187 484 OFFCURVE",
"187 360 CURVE SMOOTH",
"187 219 OFFCURVE",
"260 43 OFFCURVE",
"448 43 CURVE SMOOTH",
"529 43 OFFCURVE",
"606 72 OFFCURVE",
"676 106 CURVE",
"697 81 LINE",
"613 22 OFFCURVE",
"513 -18 OFFCURVE",
"407 -18 CURVE SMOOTH",
"133 -18 OFFCURVE",
"40 154 OFFCURVE",
"40 331 CURVE SMOOTH",
"40 430 OFFCURVE",
"66 531 OFFCURVE",
"145 603 CURVE SMOOTH",
"222 673 OFFCURVE",
"327 711 OFFCURVE",
"436 711 CURVE SMOOTH",
"562 711 OFFCURVE",
"646 677 OFFCURVE"
);
}
);
width = 722;
}
);
unicode = 0043;
},
{
color = 1;
glyphname = D;
lastChange = "2016-09-03 06:28:14 +0000";
layers = (
{
layerId = "2927A78B-FE88-4016-B2C6-41428F7EDB2B";
paths = (
{
closed = 1;
nodes = (
"73 -1 LINE",
"73 13 LINE",
"95 42 OFFCURVE",
"105 43 OFFCURVE",
"105 106 CURVE SMOOTH",
"105 535 LINE SMOOTH",
"105 565 OFFCURVE",
"105 602 OFFCURVE",
"98 625 CURVE SMOOTH",
"89 660 OFFCURVE",
"45 662 OFFCURVE",
"8 668 CURVE",
"8 692 LINE",
"14 698 LINE",
"429 698 LINE SMOOTH",
"724 698 OFFCURVE",
"792 545 OFFCURVE",
"792 384 CURVE SMOOTH",
"792 284 OFFCURVE",
"766 184 OFFCURVE",
"687 112 CURVE SMOOTH",
"599 32 OFFCURVE",
"477 -1 OFFCURVE",
"355 -1 CURVE SMOOTH"
);
},
{
closed = 1;
nodes = (
"230 185 LINE",
"229 149 OFFCURVE",
"232 114 OFFCURVE",
"237 79 CURVE SMOOTH",
"242 45 OFFCURVE",
"285 42 OFFCURVE",
"321 42 CURVE SMOOTH",
"403 42 OFFCURVE",
"490 62 OFFCURVE",
"549 117 CURVE SMOOTH",
"620 182 OFFCURVE",
"638 288 OFFCURVE",
"638 378 CURVE SMOOTH",
"638 628 OFFCURVE",
"482 655 OFFCURVE",
"323 655 CURVE SMOOTH",
"298 655 OFFCURVE",
"267 655 OFFCURVE",
"245 651 CURVE SMOOTH",
"228 648 OFFCURVE",
"230 629 OFFCURVE",
"230 575 CURVE SMOOTH"
);
}
);
width = 832;
}
);
unicode = 0044;
},
{
color = 1;
glyphname = E;
lastChange = "2016-09-03 06:41:05 +0000";
layers = (
{
anchors = (
{
name = bottom;
position = "{306, 0}";
},
{
name = top;
position = "{306, 692}";
}
);
layerId = "2927A78B-FE88-4016-B2C6-41428F7EDB2B";
paths = (
{
closed = 1;
nodes = (
"317 61 OFFCURVE",
"475 70 OFFCURVE",
"591 76 CURVE",
"601 68 LINE",
"575 -8 LINE",
"461 -1 OFFCURVE",
"347 0 OFFCURVE",
"233 0 CURVE SMOOTH",
"201 0 OFFCURVE",
"153 0 OFFCURVE",
"138 4 CURVE",
"123 12 OFFCURVE",
"105 32 OFFCURVE",
"105 51 CURVE SMOOTH",
"105 480 LINE SMOOTH",
"105 524 OFFCURVE",
"105 594 OFFCURVE",
"101 612 CURVE SMOOTH",
"89 657 OFFCURVE",
"43 661 OFFCURVE",
"7 666 CURVE",
"7 689 LINE",
"14 696 LINE",
"175 696 OFFCURVE",
"379 696 OFFCURVE",
"492 709 CURVE",
"505 704 LINE",
"505 642 LINE",
"493 631 LINE",
"416 636 OFFCURVE",
"266 645 OFFCURVE",
"265 645 CURVE SMOOTH",
"229 645 OFFCURVE",
"230 622 OFFCURVE",
"230 595 CURVE SMOOTH",
"230 415 LINE SMOOTH",
"230 406 OFFCURVE",
"238 389 OFFCURVE",
"250 389 CURVE SMOOTH",
"312 389 OFFCURVE",
"467 405 OFFCURVE",
"470 406 CURVE",
"471 406 OFFCURVE",
"479 401 OFFCURVE",
"483 398 CURVE",
"483 340 LINE",
"414 343 OFFCURVE",
"334 343 OFFCURVE",
"258 343 CURVE SMOOTH",
"235 343 OFFCURVE",
"230 330 OFFCURVE",
"230 316 CURVE SMOOTH",
"230 251 OFFCURVE",
"230 174 OFFCURVE",
"239 123 CURVE",
"244 82 OFFCURVE",
"265 61 OFFCURVE",
"306 61 CURVE SMOOTH"
);
}
);
width = 611;
}
);
unicode = 0045;
},
{
color = 1;
glyphname = F;
lastChange = "2016-09-03 06:28:14 +0000";
layers = (
{
layerId = "2927A78B-FE88-4016-B2C6-41428F7EDB2B";
paths = (
{
closed = 1;
nodes = (
"232 23 CURVE",
"104 -12 LINE",
"92 -4 LINE",
"99 165 OFFCURVE",
"105 333 OFFCURVE",
"105 501 CURVE SMOOTH",
"105 551 OFFCURVE",
"105 606 OFFCURVE",
"100 623 CURVE SMOOTH",
"89 661 OFFCURVE",
"43 666 OFFCURVE",
"6 670 CURVE",
"6 690 LINE",
"14 698 LINE",
"175 698 OFFCURVE",
"413 698 OFFCURVE",
"488 706 CURVE",
"488 638 LINE",
"481 630 LINE",
"376 636 OFFCURVE",
"271 644 OFFCURVE",
"255 644 CURVE SMOOTH",
"238 644 OFFCURVE",
"226 641 OFFCURVE",
"226 609 CURVE SMOOTH",
"226 415 LINE SMOOTH",
"226 402 OFFCURVE",
"232 389 OFFCURVE",
"243 389 CURVE SMOOTH",
"317 389 OFFCURVE",
"394 401 OFFCURVE",
"468 406 CURVE",
"481 394 LINE",
"481 340 LINE",
"422 343 OFFCURVE",
"327 343 OFFCURVE",
"251 343 CURVE SMOOTH",
"234 343 OFFCURVE",
"226 339 OFFCURVE",
"226 316 CURVE SMOOTH",
"226 315 OFFCURVE",
"231 121 OFFCURVE"
);
}
);
width = 509;
}
);
unicode = 0046;
},
{
color = 1;
glyphname = G;
lastChange = "2016-09-03 06:28:14 +0000";
layers = (
{
layerId = "2927A78B-FE88-4016-B2C6-41428F7EDB2B";
paths = (
{
closed = 1;
nodes = (
"347 303 LINE",
"687 316 LINE",
"684 277 OFFCURVE",
"682 238 OFFCURVE",
"682 198 CURVE SMOOTH",
"682 144 OFFCURVE",
"685 90 OFFCURVE",
"689 36 CURVE",
"590 10 OFFCURVE",
"489 -14 OFFCURVE",
"386 -14 CURVE SMOOTH",
"296 -14 OFFCURVE",
"205 9 OFFCURVE",
"141 68 CURVE SMOOTH",
"64 138 OFFCURVE",
"39 237 OFFCURVE",
"39 334 CURVE SMOOTH",
"39 436 OFFCURVE",
"71 539 OFFCURVE",
"151 612 CURVE SMOOTH",
"228 682 OFFCURVE",
"338 709 OFFCURVE",
"445 709 CURVE SMOOTH",
"552 709 OFFCURVE",
"656 683 OFFCURVE",
"708 585 CURVE",
"611 495 LINE",
"593 503 LINE",
"568 582 OFFCURVE",
"516 661 OFFCURVE",
"414 661 CURVE SMOOTH",
"237 661 OFFCURVE",
"185 486 OFFCURVE",
"185 353 CURVE SMOOTH",
"185 204 OFFCURVE",
"256 39 OFFCURVE",
"462 39 CURVE SMOOTH",
"485 39 OFFCURVE",
"509 39 OFFCURVE",
"532 42 CURVE SMOOTH",
"566 45 OFFCURVE",
"556 96 OFFCURVE",
"556 146 CURVE SMOOTH",
"556 221 LINE",
"550 266 OFFCURVE",
"510 255 OFFCURVE",
"347 266 CURVE"
);
}
);
width = 744;
}
);
unicode = 0047;
},
{
color = 1;
glyphname = H;
lastChange = "2016-09-03 06:28:14 +0000";
layers = (
{
layerId = "2927A78B-FE88-4016-B2C6-41428F7EDB2B";
paths = (
{
closed = 1;
nodes = (
"579 681 LINE",
"709 711 LINE",
"719 701 LINE",
"707 586 OFFCURVE",
"703 471 OFFCURVE",
"703 356 CURVE SMOOTH",
"703 93 OFFCURVE",
"677 38 OFFCURVE",
"790 32 CURVE",
"790 8 LINE",
"784 -7 LINE",
"588 -7 LINE",
"565 14 LINE",
"575 113 OFFCURVE",
"579 212 OFFCURVE",
"579 312 CURVE SMOOTH",
"579 337 OFFCURVE",
"561 339 OFFCURVE",
"543 339 CURVE SMOOTH",
"255 339 LINE SMOOTH",
"240 339 OFFCURVE",
"226 334 OFFCURVE",
"226 311 CURVE SMOOTH",
"226 217 OFFCURVE",
"228 123 OFFCURVE",
"232 30 CURVE",
"107 -6 LINE",
"105 -3 OFFCURVE",
"100 2 OFFCURVE",
"100 3 CURVE SMOOTH",
"105 122 OFFCURVE",
"105 240 OFFCURVE",
"105 359 CURVE SMOOTH",
"105 612 LINE SMOOTH",
"105 645 OFFCURVE",
"39 658 OFFCURVE",
"6 665 CURVE",
"6 688 LINE",
"14 698 LINE",
"228 698 LINE",
"236 690 LINE",
"231 595 OFFCURVE",
"225 496 OFFCURVE",
"225 413 CURVE SMOOTH",
"225 394 OFFCURVE",
"240 388 OFFCURVE",
"256 388 CURVE SMOOTH",
"545 388 LINE SMOOTH",
"579 388 OFFCURVE",
"579 399 OFFCURVE",
"579 413 CURVE SMOOTH"
);
}
);
width = 797;
}
);
unicode = 0048;
},
{
color = 1;
glyphname = I;
lastChange = "2016-09-03 06:42:15 +0000";
layers = (
{
anchors = (
{
name = bottom;
position = "{183, 0}";
},
{
name = ogonek;
position = "{328, 10}";
},
{
name = top;
position = "{183, 692}";
}
);
layerId = "2927A78B-FE88-4016-B2C6-41428F7EDB2B";
paths = (
{
closed = 1;
nodes = (
"251 646 OFFCURVE",
"243 632 OFFCURVE",
"243 618 CURVE",
"242 367 LINE",
"242 280 OFFCURVE",
"242 158 OFFCURVE",
"245 106 CURVE SMOOTH",
"247 80 OFFCURVE",
"258 50 OFFCURVE",
"288 44 CURVE SMOOTH",
"352 30 LINE",
"352 1 LINE",
"13 1 LINE",
"13 29 LINE",
"87 45 LINE SMOOTH",
"103 48 OFFCURVE",
"115 65 OFFCURVE",
"115 81 CURVE SMOOTH",
"117 124 OFFCURVE",
"117 275 OFFCURVE",
"117 372 CURVE SMOOTH",
"117 455 OFFCURVE",
"117 541 OFFCURVE",
"111 622 CURVE SMOOTH",
"110 635 OFFCURVE",
"98 648 OFFCURVE",
"83 651 CURVE SMOOTH",
"14 666 LINE",
"14 692 LINE",
"18 696 LINE",
"341 696 LINE",
"345 692 LINE",
"345 665 LINE",
"267 649 LINE SMOOTH"
);
}
);
width = 365;
}
);
unicode = 0049;
},
{
color = 1;
glyphname = J;
lastChange = "2016-09-03 06:28:14 +0000";
layers = (
{
layerId = "2927A78B-FE88-4016-B2C6-41428F7EDB2B";
paths = (
{
closed = 1;
nodes = (
"241 513 CURVE SMOOTH",
"241 167 LINE SMOOTH",
"241 9 OFFCURVE",
"221 -37 OFFCURVE",
"153 -92 CURVE SMOOTH",
"105 -131 OFFCURVE",
"50 -164 OFFCURVE",
"-2 -192 CURVE",
"-19 -164 LINE",
"109 -83 OFFCURVE",
"116 -16 OFFCURVE",
"116 128 CURVE SMOOTH",
"116 559 LINE SMOOTH",
"116 583 OFFCURVE",
"116 609 OFFCURVE",
"113 631 CURVE SMOOTH",
"108 667 OFFCURVE",
"47 670 OFFCURVE",
"9 670 CURVE",
"9 697 LINE",
"18 705 LINE",
"340 705 LINE",
"348 697 LINE",
"348 672 LINE",
"326 667 OFFCURVE",
"281 658 OFFCURVE",
"280 658 CURVE",
"234 645 OFFCURVE",
"241 581 OFFCURVE"
);
}
);
width = 354;
}
);
unicode = 004A;
},
{
color = 1;
glyphname = K;
lastChange = "2016-09-03 06:28:14 +0000";
layers = (
{
layerId = "2927A78B-FE88-4016-B2C6-41428F7EDB2B";
paths = (
{
closed = 1;
nodes = (
"241 387 LINE",
"537 702 LINE",
"643 702 LINE",
"643 687 LINE",
"342 407 LINE",
"339 405 OFFCURVE",
"337 399 OFFCURVE",
"337 397 CURVE SMOOTH",
"337 393 OFFCURVE",
"339 388 OFFCURVE",
"340 388 CURVE",
"689 70 LINE",
"689 54 LINE",
"551 -5 LINE",
"452 108 OFFCURVE",
"349 219 OFFCURVE",
"239 324 CURVE",
"229 324 LINE",
"229 226 OFFCURVE",
"230 128 OFFCURVE",
"240 30 CURVE",
"110 -12 LINE",
"100 -2 LINE",
"104 111 OFFCURVE",
"105 225 OFFCURVE",
"105 338 CURVE SMOOTH",
"105 430 OFFCURVE",
"105 584 OFFCURVE",
"103 614 CURVE SMOOTH",
"100 648 OFFCURVE",
"51 655 OFFCURVE",
"7 665 CURVE",
"7 691 LINE",
"11 701 LINE",
"237 701 LINE",
"244 694 LINE",
"234 591 OFFCURVE",
"229 490 OFFCURVE",
"229 387 CURVE"
);
}
);
width = 700;
}
);
unicode = 004B;
},
{
color = 1;
glyphname = L;
lastChange = "2016-09-03 06:28:14 +0000";
layers = (
{
layerId = "2927A78B-FE88-4016-B2C6-41428F7EDB2B";
paths = (
{
closed = 1;
nodes = (
"540 75 CURVE",
"553 66 LINE",
"532 -5 LINE",
"442 0 OFFCURVE",
"221 0 OFFCURVE",
"65 0 CURVE",
"65 17 LINE",
"74 27 OFFCURVE",
"89 40 OFFCURVE",
"92 50 CURVE SMOOTH",
"95 62 OFFCURVE",
"95 96 OFFCURVE",
"95 119 CURVE SMOOTH",
"95 565 LINE SMOOTH",
"95 588 OFFCURVE",
"94 606 OFFCURVE",
"90 629 CURVE",
"82 663 OFFCURVE",
"39 669 OFFCURVE",
"7 671 CURVE",
"7 694 LINE",
"15 702 LINE",
"310 702 LINE",
"318 694 LINE",
"318 667 LINE",
"222 657 OFFCURVE",
"220 640 OFFCURVE",
"220 544 CURVE SMOOTH",
"220 253 LINE SMOOTH",
"220 170 OFFCURVE",
"211 53 OFFCURVE",
"247 53 CURVE SMOOTH",
"350 53 OFFCURVE",
"505 71 OFFCURVE"
);
}
);
width = 563;
}
);
unicode = 004C;
},
{
color = 1;
glyphname = M;
lastChange = "2016-09-03 06:28:14 +0000";
layers = (
{
layerId = "2927A78B-FE88-4016-B2C6-41428F7EDB2B";
paths = (
{
closed = 1;
nodes = (
"185 533 CURVE",
"126 26 LINE",
"42 -2 LINE",
"28 3 LINE",
"103 360 LINE SMOOTH",
"120 442 OFFCURVE",
"141 543 OFFCURVE",
"141 606 CURVE SMOOTH",
"141 639 OFFCURVE",
"115 665 OFFCURVE",
"41 669 CURVE",
"41 693 LINE",
"49 701 LINE",
"274 701 LINE",
"339 520 OFFCURVE",
"409 341 OFFCURVE",
"497 167 CURVE SMOOTH",
"498 165 OFFCURVE",
"501 163 OFFCURVE",
"503 163 CURVE SMOOTH",
"505 163 OFFCURVE",
"508 165 OFFCURVE",
"510 167 CURVE",
"570 265 OFFCURVE",
"672 445 OFFCURVE",
"672 446 CURVE",
"716 528 OFFCURVE",
"758 610 OFFCURVE",
"785 698 CURVE",
"947 700 LINE",
"953 688 LINE",
"934 668 LINE SMOOTH",
"924 658 OFFCURVE",
"924 642 OFFCURVE",
"924 595 CURVE SMOOTH",
"924 449 LINE SMOOTH",
"924 360 OFFCURVE",
"929 272 OFFCURVE",
"937 184 CURVE SMOOTH",
"944 112 OFFCURVE",
"947 54 OFFCURVE",
"1004 54 CURVE SMOOTH",
"1022 54 OFFCURVE",
"1047 56 OFFCURVE",
"1062 58 CURVE",
"1066 31 LINE",
"1050 31 OFFCURVE",
"910 -16 OFFCURVE",
"869 -16 CURVE SMOOTH",
"830 -16 OFFCURVE",
"811 11 OFFCURVE",
"811 38 CURVE SMOOTH",
"811 124 OFFCURVE",
"811 544 OFFCURVE",
"788 544 CURVE SMOOTH",
"786 544 OFFCURVE",
"783 539 OFFCURVE",
"779 533 CURVE SMOOTH",
"671 355 OFFCURVE",
"581 183 OFFCURVE",
"485 -1 CURVE",
"411 -1 LINE",
"345 181 OFFCURVE",
"282 354 OFFCURVE",
"202 532 CURVE SMOOTH",
"200 536 OFFCURVE",
"196 539 OFFCURVE",
"193 539 CURVE SMOOTH",
"189 539 OFFCURVE",
"185 536 OFFCURVE"
);
}
);
width = 1074;
}
);
unicode = 004D;
},
{
color = 1;
glyphname = N;
lastChange = "2016-09-03 06:43:42 +0000";
layers = (
{
anchors = (
{
name = top;
position = "{444, 692}";
}
);
layerId = "2927A78B-FE88-4016-B2C6-41428F7EDB2B";
paths = (
{
closed = 1;
nodes = (
"6 691 LINE",
"14 699 LINE",
"213 699 LINE",
"348 531 OFFCURVE",
"495 370 OFFCURVE",
"645 211 CURVE",
"645 686 LINE",
"726 713 LINE",
"746 699 LINE",
"730 520 OFFCURVE",
"718 342 OFFCURVE",
"718 163 CURVE SMOOTH",
"718 110 OFFCURVE",
"719 57 OFFCURVE",
"723 5 CURVE",
"648 5 LINE",
"185 519.661 LINE",
"185 34 LINE",
"103 -3 LINE",
"90 5 LINE",
"100 191 OFFCURVE",
"109 377 OFFCURVE",
"109 562 CURVE SMOOTH",
"109 585 OFFCURVE",
"108 599 OFFCURVE",
"104 614 CURVE",
"93 646 OFFCURVE",
"36 661 OFFCURVE",
"6 669 CURVE"
);
}
);
width = 808;
}
);
unicode = 004E;
},
{
color = 1;
glyphname = O;
lastChange = "2016-09-03 06:44:13 +0000";
layers = (
{
anchors = (
{
name = bottom;
position = "{415, 0}";
},
{
name = top;
position = "{435, 710}";
}
);
layerId = "2927A78B-FE88-4016-B2C6-41428F7EDB2B";
paths = (
{
closed = 1;
nodes = (
"66 127 OFFCURVE",
"40 233 OFFCURVE",
"40 330 CURVE SMOOTH",
"40 438 OFFCURVE",
"76 553 OFFCURVE",
"161 630 CURVE SMOOTH",
"238 700 OFFCURVE",
"338 720 OFFCURVE",
"457 720 CURVE SMOOTH",
"542 720 OFFCURVE",
"629 699 OFFCURVE",
"690 644 CURVE SMOOTH",
"763 577 OFFCURVE",
"790 483 OFFCURVE",
"790 391 CURVE SMOOTH",
"790 99 OFFCURVE",
"585 -15 OFFCURVE",
"357 -15 CURVE SMOOTH",
"277 -15 OFFCURVE",
"197 7 OFFCURVE",
"140 59 CURVE SMOOTH"
);
},
{
closed = 1;
nodes = (
"253 680 OFFCURVE",
"178 506 OFFCURVE",
"178 366 CURVE SMOOTH",
"178 229 OFFCURVE",
"239 31 OFFCURVE",
"422 31 CURVE SMOOTH",
"598 31 OFFCURVE",
"647 187 OFFCURVE",
"647 325 CURVE SMOOTH",
"647 464 OFFCURVE",
"601 680 OFFCURVE",
"415 680 CURVE SMOOTH"
);
}
);
width = 830;
}
);
unicode = 004F;
},
{
color = 1;
glyphname = P;
lastChange = "2016-09-03 06:28:14 +0000";
layers = (
{
layerId = "2927A78B-FE88-4016-B2C6-41428F7EDB2B";
paths = (
{
closed = 1;
nodes = (
"227 30 CURVE",
"100 -6 LINE",
"88 4 LINE",
"95 156 OFFCURVE",
"96 307 OFFCURVE",
"96 459 CURVE SMOOTH",
"96 514 OFFCURVE",
"96 592 OFFCURVE",
"92 623 CURVE",
"84 659 OFFCURVE",
"39 665 OFFCURVE",
"6 669 CURVE",
"6 691 LINE",
"14 699 LINE",
"359 699 LINE SMOOTH",
"519 699 OFFCURVE",
"574 633 OFFCURVE",
"574 540 CURVE SMOOTH",
"574 479 OFFCURVE",
"556 419 OFFCURVE",
"508 375 CURVE SMOOTH",
"460 330 OFFCURVE",
"379 313 OFFCURVE",
"307 307 CURVE SMOOTH",
"279 305 OFFCURVE",
"222 315 OFFCURVE",
"222 282 CURVE SMOOTH",
"222 281 OFFCURVE",
"225 114 OFFCURVE"
);
},
{
closed = 1;
nodes = (
"222 361 CURVE SMOOTH",
"222 349 OFFCURVE",
"235 341 OFFCURVE",
"249 341 CURVE SMOOTH",
"365 341 OFFCURVE",
"432 424 OFFCURVE",
"432 522 CURVE SMOOTH",
"432 599 OFFCURVE",
"383 664 OFFCURVE",
"292 664 CURVE SMOOTH",
"267 664 OFFCURVE",
"220 671 OFFCURVE",
"220 641 CURVE SMOOTH",
"220 640 OFFCURVE",
"221 454 OFFCURVE"
);
}
);
width = 600;
}
);
unicode = 0050;
},
{
color = 1;
glyphname = Q;
lastChange = "2016-09-03 06:28:14 +0000";
layers = (
{
layerId = "2927A78B-FE88-4016-B2C6-41428F7EDB2B";
paths = (
{
closed = 1;
nodes = (
"774 -141 CURVE",
"783 -170 LINE",
"724 -188 OFFCURVE",
"661 -197 OFFCURVE",
"598 -197 CURVE SMOOTH",
"483 -197 OFFCURVE",
"400 -102 OFFCURVE",
"333 -20 CURVE",
"121 -11 OFFCURVE",
"40 159 OFFCURVE",
"40 318 CURVE SMOOTH",
"40 427 OFFCURVE",
"69 538 OFFCURVE",
"155 616 CURVE SMOOTH",
"232 686 OFFCURVE",
"344 714 OFFCURVE",
"453 714 CURVE SMOOTH",
"539 714 OFFCURVE",
"627 691 OFFCURVE",
"689 635 CURVE SMOOTH",
"764 567 OFFCURVE",
"789 470 OFFCURVE",
"789 375 CURVE SMOOTH",
"789 147 OFFCURVE",
"670 39 OFFCURVE",
"505 -3 CURVE",
"499 -17 LINE",
"536 -75 OFFCURVE",
"592 -153 OFFCURVE",
"668 -153 CURVE SMOOTH",
"706 -153 OFFCURVE",
"741 -147 OFFCURVE"
);
},
{
closed = 1;
nodes = (
"418 26 CURVE SMOOTH",
"611 26 OFFCURVE",
"650 195 OFFCURVE",
"650 348 CURVE SMOOTH",
"650 511 OFFCURVE",
"581 668 OFFCURVE",
"416 668 CURVE SMOOTH",
"239 668 OFFCURVE",
"182 488 OFFCURVE",
"182 352 CURVE SMOOTH",
"182 221 OFFCURVE",
"240 26 OFFCURVE"
);
}
);
width = 829;
}
);
unicode = 0051;
},
{
color = 1;
glyphname = R;
lastChange = "2016-09-03 06:28:14 +0000";
layers = (
{
layerId = "2927A78B-FE88-4016-B2C6-41428F7EDB2B";
paths = (
{
closed = 1;
nodes = (
"223 325 CURVE",
"234 41 LINE",
"97 -8 LINE",
"88 1 LINE",
"97 156 OFFCURVE",
"101 311 OFFCURVE",
"101 466 CURVE SMOOTH",
"101 519 OFFCURVE",
"101 602 OFFCURVE",
"98 624 CURVE SMOOTH",
"93 664 OFFCURVE",
"40 668 OFFCURVE",
"7 670 CURVE",
"7 696 LINE",
"12 701 LINE",
"333 701 LINE SMOOTH",
"486 701 OFFCURVE",
"571 655 OFFCURVE",
"571 552 CURVE SMOOTH",
"571 504 OFFCURVE",
"558 451 OFFCURVE",
"520 417 CURVE SMOOTH",
"479 380 OFFCURVE",
"427 365 OFFCURVE",
"373 351 CURVE",
"369 340 LINE",
"455 239 OFFCURVE",
"567 106 OFFCURVE",
"620 57 CURVE",
"623 41 LINE",
"506 -10 LINE",
"485 -8 LINE",
"236 323 LINE",
"235 324 OFFCURVE",
"231 325 OFFCURVE"
);
},
{
closed = 1;
nodes = (
"223 366 CURVE",
"269 366 OFFCURVE",
"351 381 OFFCURVE",
"381 412 CURVE SMOOTH",
"414 446 OFFCURVE",
"429 490 OFFCURVE",
"429 536 CURVE SMOOTH",
"429 623 OFFCURVE",
"364 662 OFFCURVE",
"279 662 CURVE SMOOTH",
"260 662 OFFCURVE",
"230 665 OFFCURVE",
"227 639 CURVE",
"226 635 OFFCURVE",
"223 458 OFFCURVE"
);
}
);
width = 639;
}
);
unicode = 0052;
},
{
color = 1;
glyphname = S;
lastChange = "2016-09-03 06:28:14 +0000";
layers = (
{
layerId = "2927A78B-FE88-4016-B2C6-41428F7EDB2B";
paths = (
{
closed = 1;
nodes = (
"431 548 LINE",
"414 553 LINE",
"405 619 OFFCURVE",
"362 685 OFFCURVE",
"280 685 CURVE SMOOTH",
"216 685 OFFCURVE",
"176 639 OFFCURVE",
"176 584 CURVE SMOOTH",
"176 498 OFFCURVE",
"259 453 OFFCURVE",
"333 416 CURVE SMOOTH",
"450 356 OFFCURVE",
"524 308 OFFCURVE",
"524 213 CURVE SMOOTH",
"524 76 OFFCURVE",
"358 -14 OFFCURVE",
"218 -14 CURVE SMOOTH",
"137 -14 OFFCURVE",
"62 21 OFFCURVE",
"16 87 CURVE",
"113 196 LINE",
"132 189 LINE",
"132 114 OFFCURVE",
"186 35 OFFCURVE",
"275 35 CURVE SMOOTH",
"347 35 OFFCURVE",
"403 95 OFFCURVE",
"403 158 CURVE SMOOTH",
"403 196 OFFCURVE",
"378 227 OFFCURVE",
"349 254 CURVE SMOOTH",
"277 320 OFFCURVE",
"65 373 OFFCURVE",
"65 520 CURVE SMOOTH",
"65 665 OFFCURVE",
"194 723 OFFCURVE",
"325 723 CURVE SMOOTH",
"427 723 OFFCURVE",
"495 697 OFFCURVE",
"526 622 CURVE"
);
}
);
width = 558;
}
);
unicode = 0053;
},
{
color = 1;
glyphname = T;
lastChange = "2016-09-03 06:28:14 +0000";
layers = (
{
layerId = "2927A78B-FE88-4016-B2C6-41428F7EDB2B";
paths = (
{
closed = 1;
nodes = (
"245 496 CURVE SMOOTH",
"245 629 LINE SMOOTH",
"245 643 OFFCURVE",
"234 648 OFFCURVE",
"220 647 CURVE SMOOTH",
"19 637 LINE",
"10 646 LINE",
"10 704 LINE",
"18 712 LINE",
"114 710 OFFCURVE",
"210 703 OFFCURVE",
"306 703 CURVE SMOOTH",
"406 703 OFFCURVE",
"506 710 OFFCURVE",
"606 714 CURVE",
"616 704 LINE",
"616 654 LINE",
"605 645 LINE",
"594 645 OFFCURVE",
"462 649 OFFCURVE",
"394 649 CURVE SMOOTH",
"379 649 OFFCURVE",
"373 647 OFFCURVE",
"373 634 CURVE SMOOTH",
"373 496 LINE SMOOTH",
"373 341 OFFCURVE",
"380 185 OFFCURVE",
"390 30 CURVE",
"246 -11 LINE",
"237 1 LINE",
"242 166 OFFCURVE",
"245 331 OFFCURVE"
);
}
);
width = 625;
}
);
unicode = 0054;
},
{
color = 1;
glyphname = U;
lastChange = "2016-09-03 06:45:28 +0000";
layers = (
{
anchors = (
{
name = bottom;
position = "{412, 0}";
},
{
name = top;
position = "{412, 692}";
}
);
layerId = "2927A78B-FE88-4016-B2C6-41428F7EDB2B";
paths = (
{
closed = 1;
nodes = (
"563 283 OFFCURVE",
"563 560 OFFCURVE",
"556 671 CURVE",
"696 717 LINE",
"711 709 LINE",
"703 672 OFFCURVE",
"697 630 OFFCURVE",
"695 589 CURVE SMOOTH",
"689 452 OFFCURVE",
"689 315 OFFCURVE",
"689 180 CURVE SMOOTH",
"689 111 OFFCURVE",
"682 63 OFFCURVE",
"758 63 CURVE SMOOTH",
"777 63 OFFCURVE",
"798 65 OFFCURVE",
"815 67 CURVE",
"816 49 LINE",
"808 39 LINE",
"651 -5 LINE SMOOTH",
"638 -9 OFFCURVE",
"624 -10 OFFCURVE",
"611 -10 CURVE SMOOTH",
"579 -10 OFFCURVE",
"568 15 OFFCURVE",
"562 39 CURVE",
"551 44 LINE",
"481 16 OFFCURVE",
"407 -8 OFFCURVE",
"332 -8 CURVE SMOOTH",
"274 -8 OFFCURVE",
"213 0 OFFCURVE",
"172 38 CURVE SMOOTH",
"115 90 OFFCURVE",
"104 185 OFFCURVE",
"104 260 CURVE SMOOTH",
"104 334 OFFCURVE",
"111 436 OFFCURVE",
"111 524 CURVE SMOOTH",
"111 561 OFFCURVE",
"111 584 OFFCURVE",
"107 622 CURVE",
"100 658 OFFCURVE",
"45 664 OFFCURVE",
"7 670 CURVE",
"7 696 LINE",
"12 704 LINE",
"241 704 LINE",
"251 693 LINE",
"235 560 OFFCURVE",
"231 431 OFFCURVE",
"231 297 CURVE SMOOTH",
"231 125 OFFCURVE",
"307 53 OFFCURVE",
"429 53 CURVE SMOOTH",
"476 53 OFFCURVE",
"523 70 OFFCURVE",
"563 88 CURVE"
);
}
);
width = 823;
}
);
unicode = 0055;
},
{
color = 1;
glyphname = V;
lastChange = "2016-09-03 06:28:14 +0000";
layers = (
{
layerId = "2927A78B-FE88-4016-B2C6-41428F7EDB2B";
paths = (
{
closed = 1;
nodes = (
"667 697 CURVE",
"783 712 LINE",
"786 698 LINE",
"704 590 OFFCURVE",
"643 510 OFFCURVE",
"567 360 CURVE SMOOTH",
"511 250 OFFCURVE",
"455 140 OFFCURVE",
"413 25 CURVE",
"316 -5 LINE",
"305 1 LINE",
"134 520 LINE SMOOTH",
"121 560 OFFCURVE",
"102 616 OFFCURVE",
"87 638 CURVE SMOOTH",
"70 663 OFFCURVE",
"16 669 OFFCURVE",
"6 669 CURVE",
"6 696 LINE",
"14 703 LINE",
"81 703 OFFCURVE",
"150 705 OFFCURVE",
"217 710 CURVE",
"268 518 OFFCURVE",
"319 345 OFFCURVE",
"396 178 CURVE",
"396 177 OFFCURVE",
"400 171 OFFCURVE",
"403 171 CURVE SMOOTH",
"408 171 OFFCURVE",
"413 178 OFFCURVE",
"415 182 CURVE SMOOTH",
"538 437 LINE SMOOTH",
"577 519 OFFCURVE",
"622 611 OFFCURVE"
);
}
);
width = 793;
}
);
unicode = 0056;
},
{
color = 1;
glyphname = W;
lastChange = "2016-09-03 06:28:14 +0000";
layers = (
{
layerId = "2927A78B-FE88-4016-B2C6-41428F7EDB2B";
paths = (
{
closed = 1;
nodes = (
"1170 699 LINE",
"1170 684 LINE",
"1036 471 OFFCURVE",
"927 246 OFFCURVE",
"823 19 CURVE",
"718 -16 LINE",
"704 -4 LINE",
"587 522 LINE",
"586 529 OFFCURVE",
"584 536 OFFCURVE",
"579 536 CURVE SMOOTH",
"572 536 OFFCURVE",
"569 530 OFFCURVE",
"566 523 CURVE SMOOTH",
"490 354 OFFCURVE",
"419 193 OFFCURVE",
"354 20 CURVE",
"254 -12 LINE",
"240 -2 LINE",
"240 -5 OFFCURVE",
"122 528 OFFCURVE",
"83 633 CURVE SMOOTH",
"74 657 OFFCURVE",
"17 670 OFFCURVE",
"6 670 CURVE",
"6 692 LINE",
"14 701 LINE",
"212 701 LINE",
"244 524 OFFCURVE",
"287 348 OFFCURVE",
"335 174 CURVE SMOOTH",
"336 170 OFFCURVE",
"339 168 OFFCURVE",
"342 168 CURVE SMOOTH",
"346 168 OFFCURVE",
"349 174 OFFCURVE",
"351 177 CURVE",
"435 343 OFFCURVE",
"512 503 OFFCURVE",
"573 678 CURVE",
"676 699 LINE",
"683 694 LINE",
"708 516 OFFCURVE",
"760 334 OFFCURVE",
"804 151 CURVE SMOOTH",
"805 146 OFFCURVE",
"809 136 OFFCURVE",
"813 136 CURVE SMOOTH",
"817 136 OFFCURVE",
"820 139 OFFCURVE",
"824 147 CURVE SMOOTH",
"904 316 OFFCURVE",
"994 508 OFFCURVE",
"1050 683 CURVE"
);
}
);
width = 1180;
}
);
unicode = 0057;
},
{
color = 1;
glyphname = X;
lastChange = "2016-09-03 06:28:14 +0000";
layers = (
{
layerId = "2927A78B-FE88-4016-B2C6-41428F7EDB2B";
paths = (
{
closed = 1;
nodes = (
"387 448 LINE",
"579 684 LINE",
"692 700 LINE",
"692 673 LINE",
"590 604 OFFCURVE",
"490 485 OFFCURVE",
"410 387 CURVE",
"448 323 OFFCURVE",
"488 260 OFFCURVE",
"533 199 CURVE SMOOTH",
"575 141 OFFCURVE",
"643 55 OFFCURVE",
"692 41 CURVE",
"692 23 LINE",
"524 -13 LINE",
"477 50 OFFCURVE",
"393 182 OFFCURVE",
"331 282 CURVE",
"315 282 LINE",
"265 224 OFFCURVE",
"173 100 OFFCURVE",
"121 19 CURVE",
"16 -1 LINE",
"16 25 LINE",
"295 338 LINE",
"115 623 LINE",
"96 648 OFFCURVE",
"53 657 OFFCURVE",
"16 666 CURVE",
"16 690 LINE",
"24 699 LINE",
"225 705 LINE",
"270 617 OFFCURVE",
"322 531 OFFCURVE",
"373 448 CURVE"
);
}
);
width = 706;
}
);
unicode = 0058;
},
{
color = 1;
glyphname = Y;
lastChange = "2016-09-03 06:46:49 +0000";
layers = (
{
anchors = (
{
name = bottom;
position = "{334, 0}";
},
{
name = top;
position = "{359, 692}";
}
);
layerId = "2927A78B-FE88-4016-B2C6-41428F7EDB2B";
paths = (
{
closed = 1;
nodes = (
"660 695 LINE",
"377 323 LINE",
"377 224 OFFCURVE",
"381 129 OFFCURVE",
"386 28 CURVE",
"272 -4 LINE",
"254 5 LINE",
"256 107 OFFCURVE",
"260 296 OFFCURVE",
"260 297 CURVE",
"259 298 OFFCURVE",
"165 488 OFFCURVE",
"119 576 CURVE SMOOTH",
"103 607 OFFCURVE",
"84 648 OFFCURVE",
"52 657 CURVE SMOOTH",
"6 669 LINE",
"6 695 LINE",
"14 704 LINE",
"197 704 LINE",
"204 687 OFFCURVE",
"297 503 OFFCURVE",
"347 402 CURVE SMOOTH",
"349 398 OFFCURVE",
"355 396 OFFCURVE",
"359 396 CURVE SMOOTH",
"364 396 OFFCURVE",
"367 397 OFFCURVE",
"371 401 CURVE",
"557 690 LINE",
"659 707 LINE"
);
}
);
width = 667;
}
);
unicode = 0059;
},
{
color = 1;
glyphname = Z;
lastChange = "2016-09-03 06:28:14 +0000";
layers = (
{
layerId = "2927A78B-FE88-4016-B2C6-41428F7EDB2B";
paths = (
{
closed = 1;
nodes = (
"456 629 CURVE",
"446 643 LINE",
"322 640 OFFCURVE",
"165 635 OFFCURVE",
"100 630 CURVE",
"92 638 LINE",
"92 702 LINE",
"101 709 LINE",
"278 699 OFFCURVE",
"458 697 OFFCURVE",
"633 697 CURVE",
"633 670 LINE",
"481 478 OFFCURVE",
"357 283 OFFCURVE",
"217 84 CURVE",
"216 83 OFFCURVE",
"215 81 OFFCURVE",
"215 80 CURVE SMOOTH",
"215 71 OFFCURVE",
"225 64 OFFCURVE",
"235 64 CURVE SMOOTH",
"379 65 OFFCURVE",
"523 72 OFFCURVE",
"667 80 CURVE",
"682 67 LINE",
"655 -11 LINE",
"528 0 OFFCURVE",
"224 0 OFFCURVE",
"8 0 CURVE",
"8 24 LINE",
"167 223 OFFCURVE",
"307 424 OFFCURVE"
);
}
);
width = 695;
}
);
unicode = 005A;
},
{
color = 1;
glyphname = lscript;
lastChange = "2016-09-03 06:59:29 +0000";
layers = (
{
layerId = "2927A78B-FE88-4016-B2C6-41428F7EDB2B";
paths = (
{
closed = 1;
nodes = (
"379 134 CURVE",
"397 121 LINE",
"359 55 OFFCURVE",
"300 -20 OFFCURVE",
"218 -20 CURVE SMOOTH",
"121 -20 OFFCURVE",
"104 89 OFFCURVE",
"97 168 CURVE",
"89 172 LINE",
"37 133 LINE",
"21 153 LINE",
"22 154 OFFCURVE",
"66 190 OFFCURVE",
"92 211 CURVE",
"90 228 OFFCURVE",
"90 258 OFFCURVE",
"90 282 CURVE SMOOTH",
"90 429 OFFCURVE",
"108 709 OFFCURVE",
"305 709 CURVE SMOOTH",
"364 709 OFFCURVE",
"381 642 OFFCURVE",
"381 587 CURVE SMOOTH",
"381 456 OFFCURVE",
"297 336 OFFCURVE",
"196 245 CURVE",
"201 187 OFFCURVE",
"214 67 OFFCURVE",
"290 67 CURVE SMOOTH",
"322 67 OFFCURVE",
"363 112 OFFCURVE"
);
},
{
closed = 1;
nodes = (
"201 296 LINE",
"275 368 OFFCURVE",
"317 495 OFFCURVE",
"317 591 CURVE SMOOTH",
"317 630 OFFCURVE",
"312 671 OFFCURVE",
"278 671 CURVE SMOOTH",
"267 671 OFFCURVE",
"258 666 OFFCURVE",
"250 659 CURVE SMOOTH",
"188 603 OFFCURVE",
"190 456 OFFCURVE",
"190 362 CURVE SMOOTH",
"190 340 OFFCURVE",
"191 320 OFFCURVE",
"192 299 CURVE"
);
}
);
width = 437;
}
);
unicode = 2113;
userData = {
public.markColor = "0,0,1,1";
};
},
{
color = 1;
glyphname = a;
lastChange = "2016-09-03 06:47:24 +0000";
layers = (
{
anchors = (
{
name = bottom;
position = "{299, 0}";
},
{
name = top;
position = "{289, 488}";
}
);
layerId = "2927A78B-FE88-4016-B2C6-41428F7EDB2B";
paths = (
{
closed = 1;
nodes = (
"483 493 LINE",
"497 484 LINE",
"488 393 OFFCURVE",
"481 302 OFFCURVE",
"481 211 CURVE SMOOTH",
"481 122 OFFCURVE",
"481 73 OFFCURVE",
"514 73 CURVE SMOOTH",
"536 73 OFFCURVE",
"564 97 OFFCURVE",
"584 115 CURVE",
"603 94 LINE",
"563 46 OFFCURVE",
"506 -12 OFFCURVE",
"438 -12 CURVE SMOOTH",
"393 -12 OFFCURVE",
"380 24 OFFCURVE",
"376 54 CURVE",
"363 59 LINE",
"311 20 OFFCURVE",
"245 -15 OFFCURVE",
"177 -15 CURVE SMOOTH",
"69 -15 OFFCURVE",
"35 108 OFFCURVE",
"35 191 CURVE SMOOTH",
"35 393 OFFCURVE",
"118 498 OFFCURVE",
"277 498 CURVE SMOOTH",
"331 498 OFFCURVE",
"379 482 OFFCURVE",
"423 455 CURVE"
);
},
{
closed = 1;
nodes = (
"376 161 OFFCURVE",
"378 263 OFFCURVE",
"378 331 CURVE SMOOTH",
"378 383 OFFCURVE",
"367 460 OFFCURVE",
"286 460 CURVE SMOOTH",
"171 460 OFFCURVE",
"148 321 OFFCURVE",
"148 230 CURVE SMOOTH",
"148 161 OFFCURVE",
"169 63 OFFCURVE",
"253 63 CURVE SMOOTH",
"298 63 OFFCURVE",
"341 90 OFFCURVE",
"370 117 CURVE"
);
}
);
width = 598;
}
);
unicode = 0061;
},
{
color = 1;
glyphname = b;
lastChange = "2016-09-03 07:06:40 +0000";
layers = (
{
layerId = "2927A78B-FE88-4016-B2C6-41428F7EDB2B";
paths = (
{
closed = 1;
nodes = (
"192 693 LINE",
"185 418 LINE",
"196 415 LINE",
"248 458 OFFCURVE",
"311 493 OFFCURVE",
"382 493 CURVE SMOOTH",
"498 493 OFFCURVE",
"540 386 OFFCURVE",
"540 296 CURVE SMOOTH",
"540 213 OFFCURVE",
"511 129 OFFCURVE",
"444 72 CURVE SMOOTH",
"385 22 OFFCURVE",
"312 -14 OFFCURVE",
"231 -14 CURVE SMOOTH",
"151 -14 OFFCURVE",
"76 27 OFFCURVE",
"76 161 CURVE SMOOTH",
"76 507 LINE SMOOTH",
"76 546 OFFCURVE",
"74 572 OFFCURVE",
"74 602 CURVE SMOOTH",
"74 632 OFFCURVE",
"40 641 OFFCURVE",
"-20 646 CURVE",
"-20 668 LINE",
"-11 677 LINE",
"177 705 LINE"
);
},
{
closed = 1;
nodes = (
"185 367 CURVE",
"182 233 LINE",
"182 150 OFFCURVE",
"197 38 OFFCURVE",
"280 38 CURVE SMOOTH",
"390 38 OFFCURVE",
"421 151 OFFCURVE",
"421 238 CURVE SMOOTH",
"421 311 OFFCURVE",
"408 419 OFFCURVE",
"302 419 CURVE SMOOTH",
"259 419 OFFCURVE",
"218 391 OFFCURVE"
);
}
);
width = 567;
}
);
unicode = 0062;
},
{
color = 1;
glyphname = c;
lastChange = "2016-09-03 06:50:39 +0000";
layers = (
{
anchors = (
{
name = bottom;
position = "{246, 0}";
},
{
name = top;
position = "{278, 486}";
}
);
layerId = "2927A78B-FE88-4016-B2C6-41428F7EDB2B";
paths = (
{
closed = 1;
nodes = (
"455 379 CURVE",
"363 324 LINE",
"346 331 LINE",
"346 393 OFFCURVE",
"323 456 OFFCURVE",
"258 456 CURVE SMOOTH",
"171 456 OFFCURVE",
"147 317 OFFCURVE",
"147 248 CURVE SMOOTH",
"147 173 OFFCURVE",
"178 59 OFFCURVE",
"283 59 CURVE SMOOTH",
"340 59 OFFCURVE",
"397 89 OFFCURVE",
"448 128 CURVE",
"460 125 LINE",
"470 111 LINE",
"402 43 OFFCURVE",
"314 -10 OFFCURVE",
"212 -10 CURVE SMOOTH",
"80 -10 OFFCURVE",
"29 94 OFFCURVE",
"29 193 CURVE SMOOTH",
"29 338 OFFCURVE",
"100 496 OFFCURVE",
"299 496 CURVE SMOOTH",
"374 496 OFFCURVE",
"449 469 OFFCURVE"
);
}
);
width = 475;
}
);
unicode = 0063;
},
{
color = 1;
glyphname = d;
lastChange = "2016-09-03 06:28:14 +0000";
layers = (
{
layerId = "2927A78B-FE88-4016-B2C6-41428F7EDB2B";
paths = (
{
closed = 1;
nodes = (
"303 678 LINE",
"494 699 LINE",
"503 693 LINE",
"495 577 OFFCURVE",
"491 535 OFFCURVE",
"491 436 CURVE",
"490 143 LINE",
"490 118 OFFCURVE",
"497 75 OFFCURVE",
"526 75 CURVE SMOOTH",
"545 75 OFFCURVE",
"580 98 OFFCURVE",
"597 112 CURVE",
"614 90 LINE",
"570 45 OFFCURVE",
"510 -11 OFFCURVE",
"449 -11 CURVE SMOOTH",
"403 -11 OFFCURVE",
"387 29 OFFCURVE",
"384 65 CURVE",
"329 27 OFFCURVE",
"261 -10 OFFCURVE",
"192 -10 CURVE SMOOTH",
"68 -10 OFFCURVE",
"30 106 OFFCURVE",
"30 193 CURVE SMOOTH",
"30 370 OFFCURVE",
"129 495 OFFCURVE",
"287 495 CURVE SMOOTH",
"317 495 OFFCURVE",
"349 493 OFFCURVE",
"378 483 CURVE",
"385 488 LINE",
"385 581 LINE SMOOTH",
"385 636 OFFCURVE",
"355 636 OFFCURVE",
"289 645 CURVE",
"289 669 LINE"
);
},
{
closed = 1;
nodes = (
"385 113 CURVE",
"385 362 LINE SMOOTH",
"385 440 OFFCURVE",
"353 456 OFFCURVE",
"307 456 CURVE SMOOTH",
"186 456 OFFCURVE",
"153 329 OFFCURVE",
"153 236 CURVE SMOOTH",
"153 162 OFFCURVE",
"173 63 OFFCURVE",
"266 63 CURVE SMOOTH",
"314 63 OFFCURVE",
"352 87 OFFCURVE"
);
}
);
width = 608;
}
);
unicode = 0064;
},
{
color = 1;
glyphname = e;
lastChange = "2016-09-03 06:50:56 +0000";
layers = (
{
anchors = (
{
name = bottom;
position = "{255, 0}";
},
{
name = top;
position = "{285, 485}";
}
);
layerId = "2927A78B-FE88-4016-B2C6-41428F7EDB2B";
paths = (
{
closed = 1;
nodes = (
"158 257 OFFCURVE",
"160 258 OFFCURVE",
"162 258 CURVE",
"347 317 OFFCURVE",
"377 315 OFFCURVE",
"377 344 CURVE SMOOTH",
"377 395 OFFCURVE",
"351 455 OFFCURVE",
"286 455 CURVE SMOOTH",
"178 455 OFFCURVE",
"149 335 OFFCURVE",
"149 262 CURVE SMOOTH",
"149 258 OFFCURVE",
"152 257 OFFCURVE",
"156 257 CURVE SMOOTH"
);
},
{
closed = 1;
nodes = (
"464 101 LINE",
"475 82 LINE",
"409 35 OFFCURVE",
"328 -16 OFFCURVE",
"246 -16 CURVE SMOOTH",
"189 -16 OFFCURVE",
"130 -2 OFFCURVE",
"90 35 CURVE SMOOTH",
"42 79 OFFCURVE",
"29 143 OFFCURVE",
"29 204 CURVE SMOOTH",
"29 351 OFFCURVE",
"120 495 OFFCURVE",
"309 495 CURVE SMOOTH",
"403 495 OFFCURVE",
"500 459 OFFCURVE",
"500 349 CURVE SMOOTH",
"500 328 OFFCURVE",
"490 318 OFFCURVE",
"471 312 CURVE",
"470 312 OFFCURVE",
"256 246 OFFCURVE",
"149 213 CURVE",
"149 133 OFFCURVE",
"200 52 OFFCURVE",
"297 52 CURVE SMOOTH",
"352 52 OFFCURVE",
"403 77 OFFCURVE",
"449 105 CURVE"
);
}
);
width = 510;
}
);
unicode = 0065;
},
{
color = 1;
glyphname = f;
lastChange = "2016-09-03 06:28:14 +0000";
layers = (
{
layerId = "2927A78B-FE88-4016-B2C6-41428F7EDB2B";
paths = (
{
closed = 1;
nodes = (
"222 392 LINE",
"222 266 OFFCURVE",
"231 128 OFFCURVE",
"238 18 CURVE",
"129 -10 LINE",
"112 -1 LINE",
"116 102 OFFCURVE",
"119 261 OFFCURVE",
"119 391 CURVE",
"110 400 LINE",
"-1 400 LINE",
"-6 408 LINE",
"4 437 LINE",
"15 444 LINE",
"111 444 LINE",
"119 454 LINE",
"129 668 OFFCURVE",
"252 686 OFFCURVE",
"309 686 CURVE SMOOTH",
"328 686 OFFCURVE",
"392 679 OFFCURVE",
"426 609 CURVE",
"356 558 LINE",
"340 565 LINE",
"340 613 OFFCURVE",
"306 644 OFFCURVE",
"285 644 CURVE SMOOTH",
"265 644 OFFCURVE",
"237 617 OFFCURVE",
"228 571 CURVE SMOOTH",
"222 543 OFFCURVE",
"222 517 OFFCURVE",
"222 454 CURVE",
"231 445 LINE",
"357 445 LINE",
"363 435 LINE",
"354 409 LINE",
"342 400 LINE",
"231 400 LINE"
);
}
);
width = 355;
}
);
unicode = 0066;
},
{
color = 1;
glyphname = g;
lastChange = "2016-09-03 06:28:14 +0000";
layers = (
{
layerId = "2927A78B-FE88-4016-B2C6-41428F7EDB2B";
paths = (
{
closed = 1;
nodes = (
"485 127 CURVE SMOOTH",
"485 51 OFFCURVE",
"482 5 OFFCURVE",
"470 -45 CURVE SMOOTH",
"440 -172 OFFCURVE",
"313 -242 OFFCURVE",
"190 -242 CURVE SMOOTH",
"133 -242 OFFCURVE",
"66 -213 OFFCURVE",
"30 -171 CURVE",
"90 -92 LINE",
"111 -92 LINE",
"142 -146 OFFCURVE",
"184 -192 OFFCURVE",
"235 -192 CURVE SMOOTH",
"274 -192 OFFCURVE",
"311 -174 OFFCURVE",
"331 -147 CURVE SMOOTH",
"374 -89 OFFCURVE",
"378 -54 OFFCURVE",
"380 55 CURVE",
"317 14 OFFCURVE",
"253 -19 OFFCURVE",
"179 -19 CURVE SMOOTH",
"46 -19 OFFCURVE",
"35 128 OFFCURVE",
"35 214 CURVE SMOOTH",
"35 386 OFFCURVE",
"128 495 OFFCURVE",
"282 495 CURVE SMOOTH",
"335 495 OFFCURVE",
"374 483 OFFCURVE",
"414 456 CURVE",
"476 481 LINE",
"489 477 LINE",
"485 405 OFFCURVE",
"485 388 OFFCURVE"
);
},
{
closed = 1;
nodes = (
"380 114 CURVE",
"380 373 LINE SMOOTH",
"380 429 OFFCURVE",
"328 454 OFFCURVE",
"292 454 CURVE SMOOTH",
"192 454 OFFCURVE",
"151 371 OFFCURVE",
"151 269 CURVE SMOOTH",
"151 189 OFFCURVE",
"160 58 OFFCURVE",
"260 58 CURVE SMOOTH",
"304 58 OFFCURVE",
"354 80 OFFCURVE"
);
}
);
width = 548;
}
);
unicode = 0067;
},
{
color = 1;
glyphname = h;
lastChange = "2016-09-03 07:06:48 +0000";
layers = (
{
layerId = "2927A78B-FE88-4016-B2C6-41428F7EDB2B";
paths = (
{
closed = 1;
nodes = (
"180 380 CURVE",
"180 262 OFFCURVE",
"180 90 OFFCURVE",
"188 25 CURVE",
"83 -7 LINE",
"70 4 LINE",
"75 110 OFFCURVE",
"75 218 OFFCURVE",
"75 325 CURVE SMOOTH",
"75 418 OFFCURVE",
"74 588 OFFCURVE",
"70 604 CURVE SMOOTH",
"61 635 OFFCURVE",
"47 637 OFFCURVE",
"-20 641 CURVE",
"-20 668 LINE",
"-8 676 LINE",
"178 696 LINE",
"180 686 LINE",
"180 433 LINE",
"189 426 LINE",
"248 460 OFFCURVE",
"319 497 OFFCURVE",
"384 497 CURVE SMOOTH",
"480 497 OFFCURVE",
"491 413 OFFCURVE",
"491 348 CURVE SMOOTH",
"491 316 OFFCURVE",
"483 252 OFFCURVE",
"483 188 CURVE SMOOTH",
"483 125 OFFCURVE",
"493 88 OFFCURVE",
"529 88 CURVE SMOOTH",
"557 88 OFFCURVE",
"578 106 OFFCURVE",
"597 123 CURVE",
"612 112 LINE",
"614 100 LINE",
"576 56 OFFCURVE",
"522 -8 OFFCURVE",
"468 -8 CURVE SMOOTH",
"397 -8 OFFCURVE",
"377 42 OFFCURVE",
"377 155 CURVE SMOOTH",
"377 215 OFFCURVE",
"382 265 OFFCURVE",
"382 310 CURVE SMOOTH",
"382 400 OFFCURVE",
"355 428 OFFCURVE",
"297 428 CURVE SMOOTH",
"261 428 OFFCURVE",
"212 404 OFFCURVE"
);
}
);
width = 610;
}
);
unicode = 0068;
},
{
color = 1;
glyphname = i;
lastChange = "2016-09-03 06:28:14 +0000";
layers = (
{
layerId = "2927A78B-FE88-4016-B2C6-41428F7EDB2B";
paths = (
{
closed = 1;
nodes = (
"100 621 CURVE SMOOTH",
"100 657 OFFCURVE",
"130 687 OFFCURVE",
"166 687 CURVE SMOOTH",
"202 687 OFFCURVE",
"232 657 OFFCURVE",
"232 621 CURVE SMOOTH",
"232 585 OFFCURVE",
"202 555 OFFCURVE",
"166 555 CURVE SMOOTH",
"130 555 OFFCURVE",
"100 585 OFFCURVE"
);
},
{
closed = 1;
nodes = (
"331 119 CURVE",
"348 103 LINE",
"348 92 LINE",
"310 45 OFFCURVE",
"252 -13 OFFCURVE",
"192 -13 CURVE SMOOTH",
"168 -13 OFFCURVE",
"145 -3 OFFCURVE",
"132 15 CURVE SMOOTH",
"105 50 OFFCURVE",
"113 101 OFFCURVE",
"113 254 CURVE SMOOTH",
"113 371 LINE",
"111 392 OFFCURVE",
"106 420 OFFCURVE",
"78 420 CURVE SMOOTH",
"56 420 OFFCURVE",
"33 405 OFFCURVE",
"9 388 CURVE",
"-7 410 LINE",
"39 447 OFFCURVE",
"100 493 OFFCURVE",
"158 493 CURVE SMOOTH",
"178 493 OFFCURVE",
"198 486 OFFCURVE",
"208 470 CURVE SMOOTH",
"216 457 OFFCURVE",
"220 445 OFFCURVE",
"220 386 CURVE SMOOTH",
"220 346 OFFCURVE",
"217 305 OFFCURVE",
"217 265 CURVE SMOOTH",
"217 143 OFFCURVE",
"207 72 OFFCURVE",
"260 72 CURVE SMOOTH",
"284 72 OFFCURVE",
"311 99 OFFCURVE"
);
}
);
width = 344;
}
);
unicode = 0069;
},
{
color = 1;
glyphname = j;
lastChange = "2016-09-03 06:28:14 +0000";
layers = (
{
layerId = "2927A78B-FE88-4016-B2C6-41428F7EDB2B";
paths = (
{
closed = 1;
nodes = (
"96 621 CURVE SMOOTH",
"96 657 OFFCURVE",
"126 687 OFFCURVE",
"162 687 CURVE SMOOTH",
"198 687 OFFCURVE",
"228 657 OFFCURVE",
"228 621 CURVE SMOOTH",
"228 585 OFFCURVE",
"198 555 OFFCURVE",
"162 555 CURVE SMOOTH",
"126 555 OFFCURVE",
"96 585 OFFCURVE"
);
},
{
closed = 1;
nodes = (
"7 389 CURVE",
"-9 411 LINE",
"36 445 OFFCURVE",
"97 493 OFFCURVE",
"150 493 CURVE SMOOTH",
"233 493 OFFCURVE",
"220 417 OFFCURVE",
"220 256 CURVE SMOOTH",
"220 191 OFFCURVE",
"220 81 OFFCURVE",
"215 27 CURVE SMOOTH",
"203 -85 OFFCURVE",
"81 -180 OFFCURVE",
"-22 -246 CURVE",
"-49 -227 LINE",
"32 -166 OFFCURVE",
"104 -101 OFFCURVE",
"111 0 CURVE SMOOTH",
"113 32 OFFCURVE",
"114 78 OFFCURVE",
"114 125 CURVE SMOOTH",
"114 275 OFFCURVE",
"130 420 OFFCURVE",
"76 420 CURVE SMOOTH",
"54 420 OFFCURVE",
"27 405 OFFCURVE"
);
}
);
width = 280;
}
);
unicode = 006A;
},
{
color = 1;
glyphname = k;
lastChange = "2016-09-03 07:06:29 +0000";
layers = (
{
layerId = "2927A78B-FE88-4016-B2C6-41428F7EDB2B";
paths = (
{
closed = 1;
nodes = (
"193 253 LINE",
"193 25 LINE",
"96 -6 LINE",
"80 3 LINE",
"83 93 OFFCURVE",
"83 243 OFFCURVE",
"83 363 CURVE SMOOTH",
"83 540 LINE SMOOTH",
"83 562 OFFCURVE",
"82 584 OFFCURVE",
"77 605 CURVE SMOOTH",
"70 636 OFFCURVE",
"54 638 OFFCURVE",
"-20 645 CURVE",
"-20 674 LINE",
"-10 681 LINE",
"191 698 LINE",
"199 693 LINE",
"198 654 OFFCURVE",
"191 418 OFFCURVE",
"188 294 CURVE",
"202 294 LINE",
"290 366 OFFCURVE",
"366 451 OFFCURVE",
"461 515 CURVE",
"520 478 LINE",
"519 466 LINE",
"433 420 OFFCURVE",
"348 370 OFFCURVE",
"272 312 CURVE",
"333 224 OFFCURVE",
"432 89 OFFCURVE",
"470 89 CURVE SMOOTH",
"497 89 OFFCURVE",
"516 103 OFFCURVE",
"541 125 CURVE",
"563 101 LINE",
"458 -19 OFFCURVE",
"449 -2 OFFCURVE",
"430 -2 CURVE SMOOTH",
"350 -2 OFFCURVE",
"270 176 OFFCURVE",
"202 262 CURVE"
);
}
);
width = 561;
}
);
unicode = 006B;
},
{
color = 1;
glyphname = l;
lastChange = "2016-09-03 07:06:17 +0000";
layers = (
{
layerId = "2927A78B-FE88-4016-B2C6-41428F7EDB2B";
paths = (
{
closed = 1;
nodes = (
"195 685 LINE",
"187 231 LINE",
"187 218 OFFCURVE",
"186 203 OFFCURVE",
"186 188 CURVE SMOOTH",
"186 117 OFFCURVE",
"190 78 OFFCURVE",
"224 78 CURVE SMOOTH",
"252 78 OFFCURVE",
"278 101 OFFCURVE",
"298 123 CURVE",
"310 123 LINE",
"326 107 LINE",
"288 56 OFFCURVE",
"228 -7 OFFCURVE",
"163 -7 CURVE SMOOTH",
"78 -7 OFFCURVE",
"78 62 OFFCURVE",
"78 124 CURVE SMOOTH",
"78 200 OFFCURVE",
"82 276 OFFCURVE",
"82 358 CURVE SMOOTH",
"82 414 OFFCURVE",
"82 472 OFFCURVE",
"81 527 CURVE SMOOTH",
"80 556 OFFCURVE",
"80 597 OFFCURVE",
"76 614 CURVE SMOOTH",
"68 649 OFFCURVE",
"28 647 OFFCURVE",
"-14 649 CURVE",
"-14 672 LINE",
"-2 680 LINE",
"182 697 LINE"
);
}
);
width = 322;
}
);
unicode = 006C;
},
{
color = 1;
glyphname = m;
lastChange = "2016-09-03 06:28:14 +0000";
layers = (
{
layerId = "2927A78B-FE88-4016-B2C6-41428F7EDB2B";
paths = (
{
closed = 1;
nodes = (
"227 383 CURVE",
"227 264 OFFCURVE",
"228 64 OFFCURVE",
"233 26 CURVE",
"132 -8 LINE",
"115 0 LINE",
"119 92 OFFCURVE",
"122 247 OFFCURVE",
"122 290 CURVE SMOOTH",
"122 357 OFFCURVE",
"123 419 OFFCURVE",
"83 419 CURVE SMOOTH",
"60 419 OFFCURVE",
"33 404 OFFCURVE",
"11 389 CURVE",
"-8 413 LINE",
"38 449 OFFCURVE",
"97 492 OFFCURVE",
"152 492 CURVE SMOOTH",
"200 492 OFFCURVE",
"220 463 OFFCURVE",
"223 428 CURVE",
"233 425 LINE",
"287 458 OFFCURVE",
"361 495 OFFCURVE",
"426 495 CURVE SMOOTH",
"473 495 OFFCURVE",
"516 471 OFFCURVE",
"530 423 CURVE",
"545 418 LINE",
"606 453 OFFCURVE",
"668 494 OFFCURVE",
"735 494 CURVE SMOOTH",
"817 494 OFFCURVE",
"847 456 OFFCURVE",
"847 315 CURVE SMOOTH",
"847 272 OFFCURVE",
"843 196 OFFCURVE",
"843 154 CURVE SMOOTH",
"843 124 OFFCURVE",
"849 91 OFFCURVE",
"884 91 CURVE SMOOTH",
"909 91 OFFCURVE",
"930 100 OFFCURVE",
"950 114 CURVE",
"960 114 LINE",
"971 93 LINE",
"928 52 OFFCURVE",
"869 -7 OFFCURVE",
"809 -7 CURVE SMOOTH",
"772 -7 OFFCURVE",
"735 13 OFFCURVE",
"735 114 CURVE SMOOTH",
"735 165 OFFCURVE",
"739 232 OFFCURVE",
"739 283 CURVE SMOOTH",
"739 339 OFFCURVE",
"743 431 OFFCURVE",
"667 431 CURVE SMOOTH",
"624 431 OFFCURVE",
"571 396 OFFCURVE",
"532 369 CURVE",
"532 250 OFFCURVE",
"533 93 OFFCURVE",
"538 26 CURVE",
"439 -9 LINE",
"423 -1 LINE",
"427 98 OFFCURVE",
"427 193 OFFCURVE",
"427 289 CURVE SMOOTH",
"427 345 OFFCURVE",
"431 433 OFFCURVE",
"358 433 CURVE SMOOTH",
"312 433 OFFCURVE",
"263 406 OFFCURVE"
);
}
);
width = 965;
}
);
unicode = 006D;
},
{
color = 1;
glyphname = n;
lastChange = "2016-09-03 06:52:56 +0000";
layers = (
{
anchors = (
{
name = bottom;
position = "{329, 0}";
},
{
name = top;
position = "{329, 485}";
}
);
layerId = "2927A78B-FE88-4016-B2C6-41428F7EDB2B";
paths = (
{
closed = 1;
nodes = (
"224 378 CURVE",
"224 261 OFFCURVE",
"227 59 OFFCURVE",
"234 28 CURVE",
"124 -4 LINE",
"112 3 LINE",
"115 101 OFFCURVE",
"119 295 OFFCURVE",
"119 296 CURVE SMOOTH",
"119 360 OFFCURVE",
"121 423 OFFCURVE",
"81 423 CURVE SMOOTH",
"61 423 OFFCURVE",
"24 398 OFFCURVE",
"11 390 CURVE",
"-7 414 LINE",
"39 451 OFFCURVE",
"100 497 OFFCURVE",
"155 497 CURVE SMOOTH",
"207 497 OFFCURVE",
"218 462 OFFCURVE",
"221 428 CURVE",
"233 424 LINE",
"291 460 OFFCURVE",
"365 494 OFFCURVE",
"432 494 CURVE SMOOTH",
"543 494 OFFCURVE",
"533 404 OFFCURVE",
"533 273 CURVE SMOOTH",
"533 242 OFFCURVE",
"530 202 OFFCURVE",
"530 170 CURVE SMOOTH",
"530 113 OFFCURVE",
"537 106 OFFCURVE",
"546 98 CURVE",
"553 91 OFFCURVE",
"563 88 OFFCURVE",
"574 88 CURVE SMOOTH",
"599 88 OFFCURVE",
"621 100 OFFCURVE",
"641 114 CURVE",
"653 114 LINE",
"664 97 LINE",
"620 53 OFFCURVE",
"561 -10 OFFCURVE",
"505 -10 CURVE SMOOTH",
"485 -10 OFFCURVE",
"465 -3 OFFCURVE",
"451 10 CURVE SMOOTH",
"421 38 OFFCURVE",
"428 94 OFFCURVE",
"428 240 CURVE SMOOTH",
"428 298 OFFCURVE",
"428 383 OFFCURVE",
"401 408 CURVE SMOOTH",
"386 422 OFFCURVE",
"365 424 OFFCURVE",
"345 424 CURVE SMOOTH",
"315 424 OFFCURVE",
"261 398 OFFCURVE"
);
}
);
width = 658;
}
);
unicode = 006E;
},
{
color = 1;
glyphname = o;
lastChange = "2016-09-03 07:09:33 +0000";
layers = (
{
anchors = (
{
name = top;
position = "{295, 476}";
}
);
layerId = "2927A78B-FE88-4016-B2C6-41428F7EDB2B";
paths = (
{
closed = 1;
nodes = (
"188 446 OFFCURVE",
"161 321 OFFCURVE",
"161 234 CURVE SMOOTH",
"161 167 OFFCURVE",
"183 30 OFFCURVE",
"281 30 CURVE SMOOTH",
"409 30 OFFCURVE",
"414 156 OFFCURVE",
"414 268 CURVE SMOOTH",
"414 353 OFFCURVE",
"387 446 OFFCURVE",
"293 446 CURVE SMOOTH"
);
},
{
closed = 1;
nodes = (
"48 88 OFFCURVE",
"32 162 OFFCURVE",
"32 233 CURVE SMOOTH",
"32 378 OFFCURVE",
"143 486 OFFCURVE",
"299 486 CURVE SMOOTH",
"363 486 OFFCURVE",
"429 473 OFFCURVE",
"476 431 CURVE SMOOTH",
"522 389 OFFCURVE",
"543 332 OFFCURVE",
"543 274 CURVE SMOOTH",
"543 68 OFFCURVE",
"420 -11 OFFCURVE",
"273 -11 CURVE SMOOTH",
"212 -11 OFFCURVE",
"148 -3 OFFCURVE",
"104 37 CURVE SMOOTH"
);
}
);
width = 575;
}
);
leftKerningGroup = o_L;
unicode = 006F;
},
{
color = 1;
glyphname = p;
lastChange = "2016-09-03 06:28:14 +0000";
layers = (
{
layerId = "2927A78B-FE88-4016-B2C6-41428F7EDB2B";
paths = (
{
closed = 1;
nodes = (
"222 -217 LINE",
"101 -247 LINE",
"89 -238 LINE",
"95 -75 OFFCURVE",
"110 12 OFFCURVE",
"110 297 CURVE SMOOTH",
"110 359 OFFCURVE",
"112 413 OFFCURVE",
"71 413 CURVE SMOOTH",
"53 413 OFFCURVE",
"26 396 OFFCURVE",
"8 385 CURVE",
"-6 409 LINE",
"40 445 OFFCURVE",
"97 488 OFFCURVE",
"153 488 CURVE SMOOTH",
"197 488 OFFCURVE",
"216 460 OFFCURVE",
"218 425 CURVE",
"226 421 LINE",
"277 454 OFFCURVE",
"343 488 OFFCURVE",
"400 488 CURVE SMOOTH",
"534 488 OFFCURVE",
"569 380 OFFCURVE",
"569 284 CURVE SMOOTH",
"569 143 OFFCURVE",
"478 0 OFFCURVE",
"310 0 CURVE SMOOTH",
"280 0 OFFCURVE",
"250 4 OFFCURVE",
"224 21 CURVE",
"222 15 LINE"
);
},
{
closed = 1;
nodes = (
"242 69 CURVE SMOOTH",
"261 52 OFFCURVE",
"287 42 OFFCURVE",
"314 42 CURVE SMOOTH",
"423 42 OFFCURVE",
"449 148 OFFCURVE",
"449 230 CURVE SMOOTH",
"449 307 OFFCURVE",
"433 414 OFFCURVE",
"332 414 CURVE SMOOTH",
"291 414 OFFCURVE",
"249 389 OFFCURVE",
"215 366 CURVE",
"215 163 LINE SMOOTH",
"215 129 OFFCURVE",
"218 91 OFFCURVE"
);
}
);
width = 597;
}
);
unicode = 0070;
},
{
color = 1;
glyphname = q;
lastChange = "2016-09-03 06:28:14 +0000";
layers = (
{
layerId = "2927A78B-FE88-4016-B2C6-41428F7EDB2B";
paths = (
{
closed = 1;
nodes = (
"490 -213 CURVE",
"381 -247 LINE",
"373 -240 LINE",
"373 54 LINE",
"364 59 LINE",
"305 21 OFFCURVE",
"241 -13 OFFCURVE",
"171 -13 CURVE SMOOTH",
"50 -13 OFFCURVE",
"35 100 OFFCURVE",
"35 202 CURVE SMOOTH",
"35 340 OFFCURVE",
"104 495 OFFCURVE",
"288 495 CURVE SMOOTH",
"330 495 OFFCURVE",
"374 484 OFFCURVE",
"409 464 CURVE",
"468 538 LINE",
"489 535 LINE",
"483 433 OFFCURVE",
"478 331 OFFCURVE",
"478 228 CURVE SMOOTH",
"478 97 OFFCURVE",
"482 -85 OFFCURVE"
);
},
{
closed = 1;
nodes = (
"373 112 CURVE",
"373 349 LINE SMOOTH",
"373 416 OFFCURVE",
"337 455 OFFCURVE",
"281 455 CURVE SMOOTH",
"173 455 OFFCURVE",
"150 324 OFFCURVE",
"150 235 CURVE SMOOTH",
"150 164 OFFCURVE",
"166 61 OFFCURVE",
"257 61 CURVE SMOOTH",
"305 61 OFFCURVE",
"343 89 OFFCURVE"
);
}
);
width = 543;
}
);
unicode = 0071;
},
{
color = 1;
glyphname = r;
lastChange = "2016-09-03 06:28:14 +0000";
layers = (
{
layerId = "2927A78B-FE88-4016-B2C6-41428F7EDB2B";
paths = (
{
closed = 1;
nodes = (
"232 33 CURVE",
"126 -6 LINE",
"106 1 LINE",
"109 101 OFFCURVE",
"113 293 OFFCURVE",
"113 294 CURVE SMOOTH",
"113 354 OFFCURVE",
"116 415 OFFCURVE",
"77 415 CURVE SMOOTH",
"58 415 OFFCURVE",
"28 400 OFFCURVE",
"9 385 CURVE",
"-7 408 LINE",
"38 443 OFFCURVE",
"96 489 OFFCURVE",
"151 489 CURVE SMOOTH",
"206 489 OFFCURVE",
"217 451 OFFCURVE",
"217 402 CURVE",
"228 397 LINE",
"268 438 OFFCURVE",
"321 486 OFFCURVE",
"379 486 CURVE SMOOTH",
"436 486 OFFCURVE",
"458 441 OFFCURVE",
"458 396 CURVE",
"383 338 LINE",
"370 346 LINE",
"364 374 OFFCURVE",
"346 401 OFFCURVE",
"313 401 CURVE SMOOTH",
"235 401 OFFCURVE",
"218 313 OFFCURVE",
"218 257 CURVE SMOOTH",
"218 225 OFFCURVE",
"225 109 OFFCURVE"
);
}
);
width = 457;
}
);
unicode = 0072;
},
{
color = 1;
glyphname = s;
lastChange = "2016-09-03 06:28:14 +0000";
layers = (
{
layerId = "2927A78B-FE88-4016-B2C6-41428F7EDB2B";
paths = (
{
closed = 1;
nodes = (
"396 426 CURVE",
"323 352 LINE",
"308 356 LINE",
"301 403 OFFCURVE",
"273 457 OFFCURVE",
"210 457 CURVE SMOOTH",
"165 457 OFFCURVE",
"145 429 OFFCURVE",
"145 385 CURVE SMOOTH",
"145 327 OFFCURVE",
"219 294 OFFCURVE",
"270 271 CURVE SMOOTH",
"362 229 OFFCURVE",
"402 204 OFFCURVE",
"402 138 CURVE SMOOTH",
"402 33 OFFCURVE",
"284 -15 OFFCURVE",
"185 -15 CURVE SMOOTH",
"119 -15 OFFCURVE",
"59 0 OFFCURVE",
"12 52 CURVE",
"75 146 LINE",
"90 145 LINE",
"105 88 OFFCURVE",
"131 22 OFFCURVE",
"207 22 CURVE SMOOTH",
"251 22 OFFCURVE",
"290 50 OFFCURVE",
"290 95 CURVE SMOOTH",
"290 113 OFFCURVE",
"281 128 OFFCURVE",
"267 141 CURVE SMOOTH",
"216 188 OFFCURVE",
"48 219 OFFCURVE",
"48 331 CURVE SMOOTH",
"48 445 OFFCURVE",
"144 494 OFFCURVE",
"247 494 CURVE SMOOTH",
"306 494 OFFCURVE",
"367 484 OFFCURVE"
);
}
);
width = 423;
}
);
unicode = 0073;
},
{
color = 1;
glyphname = t;
lastChange = "2016-09-03 07:08:19 +0000";
layers = (
{
layerId = "2927A78B-FE88-4016-B2C6-41428F7EDB2B";
paths = (
{
closed = 1;
nodes = (
"101 588 CURVE",
"208 624 LINE",
"223 617 LINE",
"223 616 OFFCURVE",
"215 515 OFFCURVE",
"211 453 CURVE",
"218 445 LINE",
"343 445 LINE",
"350 435 LINE",
"340 409 LINE",
"328 400 LINE",
"218 400 LINE",
"210 392 LINE",
"210 233 LINE SMOOTH",
"210 149 OFFCURVE",
"210 73 OFFCURVE",
"265 73 CURVE SMOOTH",
"292 73 OFFCURVE",
"324 93 OFFCURVE",
"346 113 CURVE",
"356 113 LINE",
"368 98 LINE",
"330 48 OFFCURVE",
"270 -11 OFFCURVE",
"203 -11 CURVE SMOOTH",
"107 -11 OFFCURVE",
"105 79 OFFCURVE",
"105 163 CURVE SMOOTH",
"105 391 LINE",
"96 400 LINE",
"-14 400 LINE",
"-20 408 LINE",
"-10 437 LINE",
"1 444 LINE",
"97 444 LINE",
"104 453 LINE",
"103 505 OFFCURVE",
"101 587 OFFCURVE"
);
}
);
width = 370;
}
);
unicode = 0074;
},
{
color = 1;
glyphname = u;
lastChange = "2016-09-03 06:55:07 +0000";
layers = (
{
anchors = (
{
name = bottom;
position = "{327, 0}";
},
{
name = top;
position = "{327, 485}";
}
);
layerId = "2927A78B-FE88-4016-B2C6-41428F7EDB2B";
paths = (
{
closed = 1;
nodes = (
"428 314 OFFCURVE",
"426 393 OFFCURVE",
"422 466 CURVE",
"525 500 LINE",
"537 490 LINE",
"533 399 OFFCURVE",
"532 309 OFFCURVE",
"532 217 CURVE SMOOTH",
"532 189 OFFCURVE",
"518 90 OFFCURVE",
"573 90 CURVE SMOOTH",
"593 90 OFFCURVE",
"619 105 OFFCURVE",
"641 118 CURVE",
"651 118 LINE",
"659 98 LINE",
"616 55 OFFCURVE",
"554 -8 OFFCURVE",
"503 -8 CURVE SMOOTH",
"456 -8 OFFCURVE",
"437 23 OFFCURVE",
"431 61 CURVE",
"421 67 LINE",
"362 36 OFFCURVE",
"288 -8 OFFCURVE",
"233 -8 CURVE SMOOTH",
"196 -8 OFFCURVE",
"162 1 OFFCURVE",
"136 25 CURVE SMOOTH",
"103 55 OFFCURVE",
"107 109 OFFCURVE",
"107 204 CURVE SMOOTH",
"107 227 OFFCURVE",
"108 249 OFFCURVE",
"108 269 CURVE SMOOTH",
"108 346 OFFCURVE",
"115 420 OFFCURVE",
"69 420 CURVE SMOOTH",
"52 420 OFFCURVE",
"26 404 OFFCURVE",
"8 393 CURVE",
"-6 418 LINE",
"39 451 OFFCURVE",
"98 496 OFFCURVE",
"148 496 CURVE SMOOTH",
"212 496 OFFCURVE",
"224 451 OFFCURVE",
"224 401 CURVE SMOOTH",
"224 360 OFFCURVE",
"217 287 OFFCURVE",
"217 226 CURVE SMOOTH",
"217 125 OFFCURVE",
"229 66 OFFCURVE",
"313 66 CURVE SMOOTH",
"359 66 OFFCURVE",
"393 88 OFFCURVE",
"427 114 CURVE",
"428 153 OFFCURVE",
"428 194 OFFCURVE",
"428 236 CURVE SMOOTH"
);
}
);
width = 654;
}
);
unicode = 0075;
},
{
color = 1;
glyphname = v;
lastChange = "2016-09-03 06:58:54 +0000";
layers = (
{
layerId = "2927A78B-FE88-4016-B2C6-41428F7EDB2B";
paths = (
{
closed = 1;
nodes = (
"8 386 CURVE",
"-7 411 LINE",
"40 444 OFFCURVE",
"101 487 OFFCURVE",
"152 487 CURVE SMOOTH",
"166 487 OFFCURVE",
"182 484 OFFCURVE",
"193 475 CURVE SMOOTH",
"245 433 OFFCURVE",
"261 113 OFFCURVE",
"320 113 CURVE SMOOTH",
"330 113 OFFCURVE",
"341 118 OFFCURVE",
"347 124 CURVE",
"401 171 OFFCURVE",
"441 230 OFFCURVE",
"441 302 CURVE SMOOTH",
"441 340 OFFCURVE",
"422 385 OFFCURVE",
"397 416 CURVE",
"397 433 LINE",
"472 490 LINE",
"485 490 LINE",
"521 468 OFFCURVE",
"537 428 OFFCURVE",
"537 389 CURVE SMOOTH",
"537 321 OFFCURVE",
"501 260 OFFCURVE",
"461 204 CURVE SMOOTH",
"369 77 OFFCURVE",
"281 8 OFFCURVE",
"257 -12 CURVE",
"214 -12 LINE",
"200 51 OFFCURVE",
"174 161 OFFCURVE",
"153 245 CURVE SMOOTH",
"137 308 OFFCURVE",
"128 412 OFFCURVE",
"77 412 CURVE SMOOTH",
"63 412 OFFCURVE",
"30 400 OFFCURVE"
);
}
);
width = 552;
}
);
unicode = 0076;
},
{
color = 1;
glyphname = w;
lastChange = "2016-09-03 06:28:14 +0000";
layers = (
{
layerId = "2927A78B-FE88-4016-B2C6-41428F7EDB2B";
paths = (
{
closed = 1;
nodes = (
"231 382 CURVE SMOOTH",
"266 142 LINE",
"276 139 LINE",
"346 244 OFFCURVE",
"413 351 OFFCURVE",
"469 463 CURVE",
"523 493 LINE",
"536 491 LINE",
"561 365 OFFCURVE",
"594 241 OFFCURVE",
"645 121 CURVE SMOOTH",
"647 116 OFFCURVE",
"650 109 OFFCURVE",
"654 109 CURVE SMOOTH",
"660 109 OFFCURVE",
"669 111 OFFCURVE",
"674 115 CURVE SMOOTH",
"732 160 OFFCURVE",
"788 229 OFFCURVE",
"788 302 CURVE SMOOTH",
"788 342 OFFCURVE",
"764 388 OFFCURVE",
"741 423 CURVE",
"741 436 LINE",
"823 496 LINE",
"839 494 LINE",
"867 463 OFFCURVE",
"890 427 OFFCURVE",
"890 387 CURVE SMOOTH",
"890 285 OFFCURVE",
"775 161 OFFCURVE",
"687 68 CURVE SMOOTH",
"663 43 OFFCURVE",
"621 -7 OFFCURVE",
"588 -7 CURVE SMOOTH",
"567 -7 OFFCURVE",
"556 24 OFFCURVE",
"550 43 CURVE SMOOTH",
"456 336 LINE",
"446 336 LINE",
"381 224 OFFCURVE",
"307 115 OFFCURVE",
"245 2 CURVE",
"183 -13 LINE",
"172 -7 LINE",
"168 67 OFFCURVE",
"159 140 OFFCURVE",
"150 213 CURVE SMOOTH",
"139 302 OFFCURVE",
"129 408 OFFCURVE",
"78 408 CURVE SMOOTH",
"54 408 OFFCURVE",
"26 400 OFFCURVE",
"6 388 CURVE",
"-8 407 LINE",
"38 443 OFFCURVE",
"99 490 OFFCURVE",
"155 490 CURVE SMOOTH",
"178 490 OFFCURVE",
"194 479 OFFCURVE",
"210 465 CURVE SMOOTH",
"222 454 OFFCURVE",
"223 432 OFFCURVE"
);
}
);
width = 904;
}
);
unicode = 0077;
},
{
color = 1;
glyphname = x;
lastChange = "2016-09-03 06:28:14 +0000";
layers = (
{
layerId = "2927A78B-FE88-4016-B2C6-41428F7EDB2B";
paths = (
{
closed = 1;
nodes = (
"482 489 LINE",
"519 453 LINE",
"519 443 LINE",
"439 396 OFFCURVE",
"370 332 OFFCURVE",
"311 267 CURVE",
"351 190 OFFCURVE",
"410 77 OFFCURVE",
"456 77 CURVE SMOOTH",
"482 77 OFFCURVE",
"509 98 OFFCURVE",
"528 117 CURVE",
"538 117 LINE",
"549 103 LINE",
"515 53 OFFCURVE",
"460 -12 OFFCURVE",
"399 -12 CURVE SMOOTH",
"353 -12 OFFCURVE",
"330 24 OFFCURVE",
"308 58 CURVE",
"241 182 LINE",
"231 182 LINE",
"184 126 OFFCURVE",
"143 62 OFFCURVE",
"114 -4 CURVE",
"98 -8 LINE",
"50 17 LINE",
"50 24 LINE",
"99 94 OFFCURVE",
"155 165 OFFCURVE",
"217 227 CURVE",
"195 276 OFFCURVE",
"158 341 OFFCURVE",
"148 358 CURVE SMOOTH",
"133 384 OFFCURVE",
"111 418 OFFCURVE",
"82 418 CURVE SMOOTH",
"63 418 OFFCURVE",
"33 400 OFFCURVE",
"13 386 CURVE",
"-5 410 LINE",
"36 446 OFFCURVE",
"88 491 OFFCURVE",
"141 491 CURVE SMOOTH",
"160 491 OFFCURVE",
"179 489 OFFCURVE",
"194 476 CURVE SMOOTH",
"236 438 OFFCURVE",
"265 367 OFFCURVE",
"290 310 CURVE",
"296 310 LINE",
"350 372 OFFCURVE",
"406 434 OFFCURVE",
"470 489 CURVE"
);
}
);
width = 550;
}
);
unicode = 0078;
},
{
color = 1;
glyphname = y;
lastChange = "2016-09-03 06:56:08 +0000";
layers = (
{
anchors = (
{
name = bottom;
position = "{297, 0}";
},
{
name = top;
position = "{317, 485}";
}
);
layerId = "2927A78B-FE88-4016-B2C6-41428F7EDB2B";
paths = (
{
closed = 1;
nodes = (
"534 487 LINE",
"530 415 OFFCURVE",
"530 398 OFFCURVE",
"530 137 CURVE SMOOTH",
"530 61 OFFCURVE",
"527 15 OFFCURVE",
"515 -35 CURVE SMOOTH",
"487 -155 OFFCURVE",
"351 -232 OFFCURVE",
"228 -232 CURVE SMOOTH",
"171 -232 OFFCURVE",
"104 -203 OFFCURVE",
"68 -161 CURVE",
"128 -82 LINE",
"149 -82 LINE",
"180 -136 OFFCURVE",
"222 -182 OFFCURVE",
"273 -182 CURVE SMOOTH",
"387 -182 OFFCURVE",
"414 -76 OFFCURVE",
"417 54 CURVE",
"407 58 LINE",
"353 23 OFFCURVE",
"276 -11 OFFCURVE",
"218 -11 CURVE SMOOTH",
"105 -11 OFFCURVE",
"107 82 OFFCURVE",
"107 176 CURVE SMOOTH",
"107 227 OFFCURVE",
"113 279 OFFCURVE",
"113 330 CURVE SMOOTH",
"113 362 OFFCURVE",
"114 417 OFFCURVE",
"69 417 CURVE SMOOTH",
"52 417 OFFCURVE",
"27 400 OFFCURVE",
"11 386 CURVE",
"-7 411 LINE",
"36 448 OFFCURVE",
"98 489 OFFCURVE",
"157 489 CURVE SMOOTH",
"174 489 OFFCURVE",
"190 482 OFFCURVE",
"202 471 CURVE SMOOTH",
"213 461 OFFCURVE",
"220 446 OFFCURVE",
"220 384 CURVE SMOOTH",
"220 325 OFFCURVE",
"215 270 OFFCURVE",
"215 208 CURVE SMOOTH",
"215 101 OFFCURVE",
"233 61 OFFCURVE",
"306 61 CURVE SMOOTH",
"347 61 OFFCURVE",
"402 92 OFFCURVE",
"418 103 CURVE",
"423 161 OFFCURVE",
"425 224 OFFCURVE",
"425 287 CURVE SMOOTH",
"425 345 OFFCURVE",
"423 403 OFFCURVE",
"416 456 CURVE",
"516 491 LINE"
);
}
);
width = 593;
}
);
unicode = 0079;
},
{
color = 1;
glyphname = z;
lastChange = "2016-09-03 06:28:14 +0000";
layers = (
{
layerId = "2927A78B-FE88-4016-B2C6-41428F7EDB2B";
paths = (
{
closed = 1;
nodes = (
"452 492 CURVE",
"473 474 LINE",
"410 396 OFFCURVE",
"337 312 OFFCURVE",
"267 240 CURVE SMOOTH",
"153 116 LINE",
"157 107 LINE",
"224 107 OFFCURVE",
"292 93 OFFCURVE",
"357 93 CURVE SMOOTH",
"413 93 OFFCURVE",
"450 128 OFFCURVE",
"480 171 CURVE",
"505 155 LINE",
"459 69 LINE SMOOTH",
"435 23 OFFCURVE",
"412 -8 OFFCURVE",
"350 -8 CURVE SMOOTH",
"259 -8 OFFCURVE",
"170 17 OFFCURVE",
"79 17 CURVE SMOOTH",
"52 17 OFFCURVE",
"34 -1 OFFCURVE",
"22 -14 CURVE",
"12 -14 LINE",
"-2 -2 LINE",
"99 135 OFFCURVE",
"236 248 OFFCURVE",
"340 377 CURVE",
"333 377 OFFCURVE",
"325 376 OFFCURVE",
"318 376 CURVE SMOOTH",
"251 376 OFFCURVE",
"175 398 OFFCURVE",
"135 398 CURVE SMOOTH",
"104 398 OFFCURVE",
"75 365 OFFCURVE",
"56 342 CURVE",
"30 354 LINE",
"99 468 LINE SMOOTH",
"109 484 OFFCURVE",
"132 492 OFFCURVE",
"153 492 CURVE SMOOTH",
"216 492 OFFCURVE",
"285 462 OFFCURVE",
"358 462 CURVE SMOOTH",
"393 462 OFFCURVE",
"424 473 OFFCURVE"
);
}
);
width = 509;
}
);
unicode = 007A;
},
{
color = 0;
glyphname = dotlessi;
lastChange = "2016-09-03 06:57:47 +0000";
layers = (
{
anchors = (
{
name = bottom;
position = "{172, 0}";
},
{
name = top;
position = "{172, 485}";
}
);
layerId = "2927A78B-FE88-4016-B2C6-41428F7EDB2B";
paths = (
{
closed = 1;
nodes = (
"284 72 OFFCURVE",
"311 99 OFFCURVE",
"331 119 CURVE",
"348 103 LINE",
"348 92 LINE",
"310 45 OFFCURVE",
"252 -13 OFFCURVE",
"192 -13 CURVE SMOOTH",
"168 -13 OFFCURVE",
"145 -3 OFFCURVE",
"132 15 CURVE SMOOTH",
"105 50 OFFCURVE",
"113 101 OFFCURVE",
"113 254 CURVE SMOOTH",
"113 371 LINE",
"111 392 OFFCURVE",
"106 420 OFFCURVE",
"78 420 CURVE SMOOTH",
"56 420 OFFCURVE",
"33 405 OFFCURVE",
"9 388 CURVE",
"-7 410 LINE",
"39 447 OFFCURVE",
"100 493 OFFCURVE",
"158 493 CURVE SMOOTH",
"178 493 OFFCURVE",
"198 486 OFFCURVE",
"208 470 CURVE SMOOTH",
"216 457 OFFCURVE",
"220 445 OFFCURVE",
"220 386 CURVE SMOOTH",
"220 346 OFFCURVE",
"217 305 OFFCURVE",
"217 265 CURVE SMOOTH",
"217 143 OFFCURVE",
"207 72 OFFCURVE",
"260 72 CURVE SMOOTH"
);
}
);
width = 344;
}
);
leftMetricsKey = i;
rightMetricsKey = i;
unicode = 0131;
},
{
color = 0;
glyphname = dotlessj;
lastChange = "2016-09-03 06:57:47 +0000";
layers = (
{
layerId = "2927A78B-FE88-4016-B2C6-41428F7EDB2B";
paths = (
{
closed = 1;
nodes = (
"7 389 CURVE",
"-9 411 LINE",
"36 445 OFFCURVE",
"97 493 OFFCURVE",
"150 493 CURVE SMOOTH",
"233 493 OFFCURVE",
"220 417 OFFCURVE",
"220 256 CURVE SMOOTH",
"220 191 OFFCURVE",
"220 81 OFFCURVE",
"215 27 CURVE SMOOTH",
"203 -85 OFFCURVE",
"81 -180 OFFCURVE",
"-22 -246 CURVE",
"-49 -227 LINE",
"32 -166 OFFCURVE",
"104 -101 OFFCURVE",
"111 0 CURVE SMOOTH",
"113 32 OFFCURVE",
"114 78 OFFCURVE",
"114 125 CURVE SMOOTH",
"114 275 OFFCURVE",
"130 420 OFFCURVE",
"76 420 CURVE SMOOTH",
"54 420 OFFCURVE",
"27 405 OFFCURVE"
);
}
);
width = 273;
}
);
leftMetricsKey = j;
rightMetricsKey = j;
unicode = 0237;
userData = {
public.markColor = "0,0,1,1";
};
},
{
color = 1;
glyphname = weierstrass;
lastChange = "2016-09-03 06:59:20 +0000";
layers = (
{
layerId = "2927A78B-FE88-4016-B2C6-41428F7EDB2B";
paths = (
{
closed = 1;
nodes = (
"323 59 CURVE",
"364 105 LINE",
"374 105 LINE",
"382 80 OFFCURVE",
"401 56 OFFCURVE",
"433 56 CURVE SMOOTH",
"523 56 OFFCURVE",
"537 182 OFFCURVE",
"537 257 CURVE SMOOTH",
"537 322 OFFCURVE",
"508 412 OFFCURVE",
"425 412 CURVE SMOOTH",
"341 412 OFFCURVE",
"269 330 OFFCURVE",
"220 257 CURVE",
"257 193 OFFCURVE",
"305 130 OFFCURVE"
);
},
{
closed = 1;
nodes = (
"218 489 CURVE",
"234 475 LINE",
"206 445 OFFCURVE",
"175 406 OFFCURVE",
"175 364 CURVE SMOOTH",
"175 342 OFFCURVE",
"189 314 OFFCURVE",
"197 299 CURVE",
"208 299 LINE",
"268 377 OFFCURVE",
"367 486 OFFCURVE",
"488 486 CURVE SMOOTH",
"595 486 OFFCURVE",
"627 395 OFFCURVE",
"627 318 CURVE SMOOTH",
"627 216 OFFCURVE",
"580 121 OFFCURVE",
"502 49 CURVE SMOOTH",
"470 20 OFFCURVE",
"428 -9 OFFCURVE",
"383 -9 CURVE SMOOTH",
"364 -9 OFFCURVE",
"345 -5 OFFCURVE",
"329 3 CURVE",
"325 -83 OFFCURVE",
"278 -202 OFFCURVE",
"164 -202 CURVE SMOOTH",
"89 -202 OFFCURVE",
"43 -138 OFFCURVE",
"43 -76 CURVE SMOOTH",
"43 19 OFFCURVE",
"89 112 OFFCURVE",
"138 194 CURVE",
"119 222 OFFCURVE",
"94 263 OFFCURVE",
"94 301 CURVE SMOOTH",
"94 371 OFFCURVE",
"158 441 OFFCURVE"
);
},
{
closed = 1;
nodes = (
"156 153 LINE",
"128 104 OFFCURVE",
"101 43 OFFCURVE",
"101 -15 CURVE SMOOTH",
"101 -70 OFFCURVE",
"128 -152 OFFCURVE",
"197 -152 CURVE SMOOTH",
"257 -152 OFFCURVE",
"275 -84 OFFCURVE",
"275 -39 CURVE SMOOTH",
"275 13 OFFCURVE",
"219 81 OFFCURVE",
"180 134 CURVE SMOOTH",
"166 153 LINE"
);
}
);
width = 667;
}
);
unicode = 2118;
},
{
color = 1;
glyphname = f.alt;
lastChange = "2016-09-03 06:59:20 +0000";
layers = (
{
layerId = "2927A78B-FE88-4016-B2C6-41428F7EDB2B";
paths = (
{
closed = 1;
nodes = (
"361 644 LINE",
"285 644 LINE SMOOTH",
"265 644 OFFCURVE",
"237 617 OFFCURVE",
"228 571 CURVE SMOOTH",
"222 543 OFFCURVE",
"222 517 OFFCURVE",
"222 454 CURVE",
"231 445 LINE",
"357 445 LINE",
"363 435 LINE",
"354 409 LINE",
"342 400 LINE",
"231 400 LINE",
"222 392 LINE",
"222 266 OFFCURVE",
"231 128 OFFCURVE",
"238 18 CURVE",
"129 -10 LINE",
"112 -1 LINE",
"116 102 OFFCURVE",
"119 261 OFFCURVE",
"119 391 CURVE",
"110 400 LINE",
"-1 400 LINE",
"-6 408 LINE",
"4 437 LINE",
"15 444 LINE",
"111 444 LINE",
"119 454 LINE",
"129 668 OFFCURVE",
"252 686 OFFCURVE",
"309 686 CURVE SMOOTH",
"361 684 LINE"
);
}
);
width = 357;
}
);
},
{
color = 1;
glyphname = bracketleft;
lastChange = "2016-09-03 06:59:20 +0000";
layers = (
{
layerId = "2927A78B-FE88-4016-B2C6-41428F7EDB2B";
paths = (
{
closed = 1;
nodes = (
"280 712 LINE",
"140 699 LINE",
"140 -100 LINE",
"280 -100 LINE",
"280 -119 LINE",
"216 -119 OFFCURVE",
"153 -124 OFFCURVE",
"90 -130 CURVE",
"90 741 LINE",
"136 736 OFFCURVE",
"216 736 OFFCURVE",
"280 736 CURVE"
);
}
);
width = 297;
}
);
unicode = 005B;
},
{
color = 1;
glyphname = bracketright;
lastChange = "2016-09-03 06:59:20 +0000";
layers = (
{
layerId = "2927A78B-FE88-4016-B2C6-41428F7EDB2B";
paths = (
{
closed = 1;
nodes = (
"161 700 LINE",
"17 709 LINE",
"17 733 LINE",
"82 733 OFFCURVE",
"155 733 OFFCURVE",
"211 739 CURVE",
"211 -132 LINE",
"147 -125 OFFCURVE",
"82 -124 OFFCURVE",
"17 -124 CURVE",
"17 -103 LINE",
"161 -92 LINE"
);
}
);
width = 301;
}
);
unicode = 005D;
},
{
color = 1;
glyphname = exclam;
lastChange = "2016-09-03 06:59:20 +0000";
layers = (
{
layerId = "2927A78B-FE88-4016-B2C6-41428F7EDB2B";
paths = (
{
closed = 1;
nodes = (
"57 46 CURVE SMOOTH",
"57 80 OFFCURVE",
"85 108 OFFCURVE",
"119 108 CURVE SMOOTH",
"153 108 OFFCURVE",
"181 80 OFFCURVE",
"181 46 CURVE SMOOTH",
"181 12 OFFCURVE",
"153 -16 OFFCURVE",
"119 -16 CURVE SMOOTH",
"85 -16 OFFCURVE",
"57 12 OFFCURVE"
);
},
{
closed = 1;
nodes = (
"162 557 CURVE SMOOTH",
"120 186 LINE",
"101 184 LINE",
"69 567 LINE SMOOTH",
"67 586 OFFCURVE",
"65 608 OFFCURVE",
"65 625 CURVE SMOOTH",
"65 680 OFFCURVE",
"91 690 OFFCURVE",
"125 690 CURVE SMOOTH",
"157 690 OFFCURVE",
"169 666 OFFCURVE",
"169 644 CURVE SMOOTH",
"169 615 OFFCURVE",
"165 586 OFFCURVE"
);
}
);
width = 231;
}
);
unicode = 0021;
},
{
color = 1;
glyphname = ampersand;
lastChange = "2016-09-03 06:59:20 +0000";
layers = (
{
layerId = "2927A78B-FE88-4016-B2C6-41428F7EDB2B";
paths = (
{
closed = 1;
nodes = (
"421 355 CURVE",
"422 404 LINE",
"460 402 OFFCURVE",
"498 401 OFFCURVE",
"536 401 CURVE SMOOTH",
"633 401 OFFCURVE",
"729 404 OFFCURVE",
"826 408 CURVE",
"823 351 LINE",
"789 353 OFFCURVE",
"703 355 OFFCURVE",
"669 355 CURVE",
"672 341 OFFCURVE",
"675 324 OFFCURVE",
"675 309 CURVE SMOOTH",
"675 236 OFFCURVE",
"642 163 OFFCURVE",
"584 112 CURVE",
"616 92 OFFCURVE",
"658 71 OFFCURVE",
"698 71 CURVE SMOOTH",
"759 71 OFFCURVE",
"786 138 OFFCURVE",
"805 184 CURVE",
"830 178 LINE",
"807 94 OFFCURVE",
"756 -16 OFFCURVE",
"639 -16 CURVE SMOOTH",
"582 -16 OFFCURVE",
"528 5 OFFCURVE",
"486 37 CURVE",
"421 8 OFFCURVE",
"351 -14 OFFCURVE",
"277 -14 CURVE SMOOTH",
"149 -14 OFFCURVE",
"32 68 OFFCURVE",
"32 184 CURVE SMOOTH",
"32 272 OFFCURVE",
"89 330 OFFCURVE",
"203 394 CURVE",
"186 433 OFFCURVE",
"175 467 OFFCURVE",
"175 508 CURVE SMOOTH",
"175 556 OFFCURVE",
"186 606 OFFCURVE",
"227 641 CURVE SMOOTH",
"272 679 OFFCURVE",
"336 697 OFFCURVE",
"400 697 CURVE SMOOTH",
"462 697 OFFCURVE",
"522 667 OFFCURVE",
"522 603 CURVE SMOOTH",
"522 509 OFFCURVE",
"420 460 OFFCURVE",
"324 414 CURVE",
"422 273 OFFCURVE",
"465 212 OFFCURVE",
"557 133 CURVE",
"590 165 OFFCURVE",
"601 210 OFFCURVE",
"601 252 CURVE SMOOTH",
"601 310 OFFCURVE",
"558 357 OFFCURVE",
"481 357 CURVE SMOOTH",
"461 357 OFFCURVE",
"441 357 OFFCURVE"
);
},
{
closed = 1;
nodes = (
"458 64 CURVE",
"363 155 OFFCURVE",
"289 251 OFFCURVE",
"219 363 CURVE",
"160 333 OFFCURVE",
"149 288 OFFCURVE",
"149 237 CURVE SMOOTH",
"149 139 OFFCURVE",
"239 38 OFFCURVE",
"357 38 CURVE SMOOTH",
"386 38 OFFCURVE",
"428 50 OFFCURVE"
);
},
{
closed = 1;
nodes = (
"309 445 CURVE",
"381 481 OFFCURVE",
"409 526 OFFCURVE",
"409 588 CURVE SMOOTH",
"409 620 OFFCURVE",
"382 662 OFFCURVE",
"345 662 CURVE SMOOTH",
"289 662 OFFCURVE",
"268 616 OFFCURVE",
"268 576 CURVE SMOOTH",
"268 530 OFFCURVE",
"283 485 OFFCURVE"
);
}
);
width = 863;
}
);
unicode = 0026;
},
{
color = 1;
glyphname = quotedbl;
lastChange = "2016-09-03 06:59:20 +0000";
layers = (
{
layerId = "2927A78B-FE88-4016-B2C6-41428F7EDB2B";
paths = (
{
closed = 1;
nodes = (
"102 432 LINE",
"79 584 LINE SMOOTH",
"75 608 OFFCURVE",
"72 633 OFFCURVE",
"72 657 CURVE SMOOTH",
"72 679 OFFCURVE",
"85 695 OFFCURVE",
"113 695 CURVE SMOOTH",
"128 695 OFFCURVE",
"152 689 OFFCURVE",
"152 675 CURVE SMOOTH",
"152 623 LINE",
"127 432 LINE"
);
},
{
closed = 1;
nodes = (
"245 432 LINE",
"219 625 LINE SMOOTH",
"217 639 OFFCURVE",
"213 663 OFFCURVE",
"213 668 CURVE SMOOTH",
"213 687 OFFCURVE",
"239 692 OFFCURVE",
"259 692 CURVE SMOOTH",
"273 692 OFFCURVE",
"293 686 OFFCURVE",
"293 673 CURVE SMOOTH",
"293 657 OFFCURVE",
"294 641 OFFCURVE",
"292 626 CURVE SMOOTH",
"270 432 LINE"
);
}
);
width = 368;
}
);
unicode = 0022;
},
{
color = 1;
glyphname = quotesingle;
lastChange = "2016-09-03 06:59:20 +0000";
layers = (
{
layerId = "2927A78B-FE88-4016-B2C6-41428F7EDB2B";
paths = (
{
closed = 1;
nodes = (
"98 436 LINE",
"76 629 LINE SMOOTH",
"75 641 OFFCURVE",
"74 653 OFFCURVE",
"74 666 CURVE SMOOTH",
"74 685 OFFCURVE",
"96 695 OFFCURVE",
"117 695 CURVE SMOOTH",
"140 695 OFFCURVE",
"153 682 OFFCURVE",
"153 662 CURVE SMOOTH",
"153 651 OFFCURVE",
"150 635 OFFCURVE",
"148 622 CURVE SMOOTH",
"117 436 LINE"
);
}
);
width = 222;
}
);
unicode = 0027;
},
{
color = 1;
glyphname = parenleft;
lastChange = "2016-09-03 06:59:20 +0000";
layers = (
{
layerId = "2927A78B-FE88-4016-B2C6-41428F7EDB2B";
paths = (
{
closed = 1;
nodes = (
"271 -172 CURVE",
"271 -186 LINE",
"151 -169 OFFCURVE",
"100 -58 OFFCURVE",
"79 38 CURVE SMOOTH",
"62 118 OFFCURVE",
"58 199 OFFCURVE",
"58 280 CURVE SMOOTH",
"58 357 OFFCURVE",
"63 435 OFFCURVE",
"81 510 CURVE SMOOTH",
"104 606 OFFCURVE",
"149 706 OFFCURVE",
"271 738 CURVE",
"271 719 LINE",
"129 657 OFFCURVE",
"118 430 OFFCURVE",
"118 274 CURVE SMOOTH",
"118 188 OFFCURVE",
"122 102 OFFCURVE",
"139 18 CURVE SMOOTH",
"152 -45 OFFCURVE",
"185 -151 OFFCURVE"
);
}
);
width = 286;
}
);
unicode = 0028;
},
{
color = 1;
glyphname = parenright;
lastChange = "2016-09-03 06:59:20 +0000";
layers = (
{
layerId = "2927A78B-FE88-4016-B2C6-41428F7EDB2B";
paths = (
{
closed = 1;
nodes = (
"16 715 CURVE",
"16 735 LINE",
"211 701 OFFCURVE",
"237 438 OFFCURVE",
"237 272 CURVE SMOOTH",
"237 188 OFFCURVE",
"232 103 OFFCURVE",
"213 20 CURVE SMOOTH",
"191 -75 OFFCURVE",
"152 -164 OFFCURVE",
"16 -187 CURVE",
"16 -171 LINE",
"70 -152 OFFCURVE",
"115 -130 OFFCURVE",
"138 -69 CURVE SMOOTH",
"177 34 OFFCURVE",
"175 162 OFFCURVE",
"175 276 CURVE SMOOTH",
"175 355 OFFCURVE",
"170 434 OFFCURVE",
"152 511 CURVE SMOOTH",
"134 588 OFFCURVE",
"105 678 OFFCURVE"
);
}
);
width = 295;
}
);
unicode = 0029;
},
{
color = 1;
glyphname = asterisk;
lastChange = "2016-09-03 06:59:20 +0000";
layers = (
{
layerId = "2927A78B-FE88-4016-B2C6-41428F7EDB2B";
paths = (
{
closed = 1;
nodes = (
"198 449 CURVE",
"150 449 LINE",
"157 494 OFFCURVE",
"159 506 OFFCURVE",
"160 557 CURVE",
"128 534 OFFCURVE",
"100 514 OFFCURVE",
"70 481 CURVE",
"46 521 LINE",
"81 536 OFFCURVE",
"114 553 OFFCURVE",
"145 574 CURVE",
"107 601 OFFCURVE",
"73 618 OFFCURVE",
"50 629 CURVE",
"78 662 LINE",
"104 638 OFFCURVE",
"136 614 OFFCURVE",
"159 598 CURVE",
"159 637 OFFCURVE",
"159 662 OFFCURVE",
"150 702 CURVE",
"198 702 LINE",
"189 663 OFFCURVE",
"187 642 OFFCURVE",
"184 602 CURVE",
"215 624 OFFCURVE",
"237 640 OFFCURVE",
"260 665 CURVE",
"290 628 LINE",
"262 616 OFFCURVE",
"225 601 OFFCURVE",
"190 578 CURVE",
"227 549 OFFCURVE",
"260 536 OFFCURVE",
"292 524 CURVE",
"260 488 LINE",
"241 508 OFFCURVE",
"216 526 OFFCURVE",
"184 548 CURVE",
"186 506 OFFCURVE",
"188 492 OFFCURVE"
);
}
);
width = 338;
}
);
unicode = 002A;
},
{
color = 1;
glyphname = plus;
lastChange = "2016-09-03 06:59:20 +0000";
layers = (
{
layerId = "2927A78B-FE88-4016-B2C6-41428F7EDB2B";
paths = (
{
closed = 1;
nodes = (
"464 288 LINE",
"829 288 LINE",
"813 238 LINE",
"464 238 LINE",
"464 -64 LINE",
"414 -83 LINE",
"414 238 LINE",
"48 238 LINE",
"65 288 LINE",
"414 288 LINE",
"414 584 LINE",
"464 598 LINE"
);
}
);
width = 877;
}
);
unicode = 002B;
},
{
color = 1;
glyphname = minus;
lastChange = "2016-09-03 06:59:20 +0000";
layers = (
{
layerId = "2927A78B-FE88-4016-B2C6-41428F7EDB2B";
paths = (
{
closed = 1;
nodes = (
"875 231 LINE",
"111 231 LINE",
"130 281 LINE",
"891 281 LINE"
);
}
);
width = 1003;
}
);
unicode = 2212;
},
{
color = 1;
glyphname = equal;
lastChange = "2016-09-03 06:59:20 +0000";
layers = (
{
layerId = "2927A78B-FE88-4016-B2C6-41428F7EDB2B";
paths = (
{
closed = 1;
nodes = (
"625 299 LINE",
"98 299 LINE",
"109 349 LINE",
"635 349 LINE"
);
},
{
closed = 1;
nodes = (
"625 164 LINE",
"98 164 LINE",
"109 214 LINE",
"635 214 LINE"
);
}
);
width = 734;
}
);
unicode = 003D;
},
{
color = 1;
glyphname = question;
lastChange = "2016-09-03 06:59:20 +0000";
layers = (
{
layerId = "2927A78B-FE88-4016-B2C6-41428F7EDB2B";
paths = (
{
closed = 1;
nodes = (
"156 121 CURVE SMOOTH",
"196 121 OFFCURVE",
"229 89 OFFCURVE",
"229 49 CURVE SMOOTH",
"229 9 OFFCURVE",
"196 -24 OFFCURVE",
"156 -24 CURVE SMOOTH",
"117 -24 OFFCURVE",
"84 9 OFFCURVE",
"84 49 CURVE SMOOTH",
"84 89 OFFCURVE",
"117 121 OFFCURVE"
);
},
{
closed = 1;
nodes = (
"140 534 LINE",
"62 489 LINE",
"33 503 OFFCURVE",
"26 526 OFFCURVE",
"26 552 CURVE SMOOTH",
"26 644 OFFCURVE",
"152 699 OFFCURVE",
"250 699 CURVE SMOOTH",
"333 699 OFFCURVE",
"410 654 OFFCURVE",
"410 577 CURVE SMOOTH",
"410 522 OFFCURVE",
"382 475 OFFCURVE",
"334 438 CURVE SMOOTH",
"204 338 LINE SMOOTH",
"184 322 OFFCURVE",
"167 299 OFFCURVE",
"167 275 CURVE SMOOTH",
"167 255 OFFCURVE",
"177 239 OFFCURVE",
"195 224 CURVE",
"195 215 LINE",
"125 168 LINE",
"91 183 OFFCURVE",
"70 207 OFFCURVE",
"70 240 CURVE SMOOTH",
"70 267 OFFCURVE",
"86 293 OFFCURVE",
"110 311 CURVE SMOOTH",
"230 398 LINE SMOOTH",
"284 437 OFFCURVE",
"299 490 OFFCURVE",
"299 549 CURVE SMOOTH",
"299 597 OFFCURVE",
"254 659 OFFCURVE",
"196 659 CURVE SMOOTH",
"152 659 OFFCURVE",
"108 638 OFFCURVE",
"108 591 CURVE SMOOTH",
"108 576 OFFCURVE",
"116 558 OFFCURVE",
"128 546 CURVE SMOOTH"
);
}
);
width = 432;
}
);
unicode = 003F;
},
{
color = 1;
glyphname = colon;
lastChange = "2016-09-03 06:59:20 +0000";
layers = (
{
layerId = "2927A78B-FE88-4016-B2C6-41428F7EDB2B";
paths = (
{
closed = 1;
nodes = (
"115 478 CURVE SMOOTH",
"155 478 OFFCURVE",
"187 446 OFFCURVE",
"187 406 CURVE SMOOTH",
"187 366 OFFCURVE",
"155 334 OFFCURVE",
"115 334 CURVE SMOOTH",
"75 334 OFFCURVE",
"43 366 OFFCURVE",
"43 406 CURVE SMOOTH",
"43 446 OFFCURVE",
"75 478 OFFCURVE"
);
},
{
closed = 1;
nodes = (
"115 129 CURVE SMOOTH",
"155 129 OFFCURVE",
"188 97 OFFCURVE",
"188 57 CURVE SMOOTH",
"188 17 OFFCURVE",
"155 -16 OFFCURVE",
"115 -16 CURVE SMOOTH",
"76 -16 OFFCURVE",
"43 17 OFFCURVE",
"43 57 CURVE SMOOTH",
"43 97 OFFCURVE",
"76 129 OFFCURVE"
);
}
);
width = 230;
}
);
unicode = 003A;
},
{
color = 1;
glyphname = semicolon;
lastChange = "2016-09-03 06:59:20 +0000";
layers = (
{
layerId = "2927A78B-FE88-4016-B2C6-41428F7EDB2B";
paths = (
{
closed = 1;
nodes = (
"108 479 CURVE SMOOTH",
"148 479 OFFCURVE",
"180 447 OFFCURVE",
"180 407 CURVE SMOOTH",
"180 367 OFFCURVE",
"148 334 OFFCURVE",
"108 334 CURVE SMOOTH",
"68 334 OFFCURVE",
"36 367 OFFCURVE",
"36 407 CURVE SMOOTH",
"36 447 OFFCURVE",
"68 479 OFFCURVE"
);
},
{
closed = 1;
nodes = (
"85 -217 LINE",
"58 -197 LINE",
"61 -193 LINE SMOOTH",
"97 -147 OFFCURVE",
"126 -98 OFFCURVE",
"126 -61 CURVE SMOOTH",
"126 -48 OFFCURVE",
"122 -32 OFFCURVE",
"114 -22 CURVE SMOOTH",
"44 61 LINE SMOOTH",
"37 70 OFFCURVE",
"36 87 OFFCURVE",
"36 90 CURVE SMOOTH",
"36 125 OFFCURVE",
"84 143 OFFCURVE",
"100 143 CURVE SMOOTH",
"111 143 OFFCURVE",
"130 134 OFFCURVE",
"138 124 CURVE SMOOTH",
"156 101 OFFCURVE",
"193 25 OFFCURVE",
"193 -27 CURVE SMOOTH",
"193 -79 OFFCURVE",
"160 -129 OFFCURVE",
"88 -214 CURVE"
);
}
);
width = 233;
}
);
unicode = 003B;
},
{
color = 1;
glyphname = quoteleft;
lastChange = "2016-09-03 06:59:20 +0000";
layers = (
{
layerId = "2927A78B-FE88-4016-B2C6-41428F7EDB2B";
paths = (
{
closed = 1;
nodes = (
"153 709 CURVE",
"168 695 LINE",
"144 659 OFFCURVE",
"111 611 OFFCURVE",
"111 577 CURVE SMOOTH",
"111 561 OFFCURVE",
"117 545 OFFCURVE",
"127 532 CURVE SMOOTH",
"165 483 LINE SMOOTH",
"171 475 OFFCURVE",
"175 465 OFFCURVE",
"175 455 CURVE SMOOTH",
"175 434 OFFCURVE",
"146 410 OFFCURVE",
"125 410 CURVE SMOOTH",
"86 410 OFFCURVE",
"40 496 OFFCURVE",
"40 541 CURVE SMOOTH",
"40 591 OFFCURVE",
"106 660 OFFCURVE"
);
}
);
width = 215;
}
);
unicode = 2018;
},
{
color = 1;
glyphname = quoteright;
lastChange = "2016-09-03 06:59:20 +0000";
layers = (
{
layerId = "2927A78B-FE88-4016-B2C6-41428F7EDB2B";
paths = (
{
closed = 1;
nodes = (
"62 394 CURVE",
"47 408 LINE",
"70 444 OFFCURVE",
"104 492 OFFCURVE",
"104 526 CURVE SMOOTH",
"104 541 OFFCURVE",
"98 558 OFFCURVE",
"88 571 CURVE SMOOTH",
"50 620 LINE SMOOTH",
"44 628 OFFCURVE",
"40 638 OFFCURVE",
"40 648 CURVE SMOOTH",
"40 669 OFFCURVE",
"69 693 OFFCURVE",
"90 693 CURVE SMOOTH",
"129 693 OFFCURVE",
"175 606 OFFCURVE",
"175 562 CURVE SMOOTH",
"175 511 OFFCURVE",
"109 443 OFFCURVE"
);
}
);
width = 215;
}
);
unicode = 2019;
},
{
color = 1;
glyphname = asciitilde;
lastChange = "2016-09-03 06:59:20 +0000";
layers = (
{
layerId = "2927A78B-FE88-4016-B2C6-41428F7EDB2B";
paths = (
{
closed = 1;
nodes = (
"411 214 CURVE SMOOTH",
"300 277 LINE SMOOTH",
"272 293 OFFCURVE",
"242 304 OFFCURVE",
"209 305 CURVE SMOOTH",
"162 305 OFFCURVE",
"138 282 OFFCURVE",
"102 228 CURVE",
"83 240 LINE",
"110 290 OFFCURVE",
"155 347 OFFCURVE",
"223 347 CURVE SMOOTH",
"273 347 OFFCURVE",
"329 317 OFFCURVE",
"376 291 CURVE SMOOTH",
"459 245 LINE SMOOTH",
"484 231 OFFCURVE",
"512 219 OFFCURVE",
"542 219 CURVE SMOOTH",
"585 219 OFFCURVE",
"617 253 OFFCURVE",
"636 288 CURVE",
"657 275 LINE",
"633 227 OFFCURVE",
"589 178 OFFCURVE",
"530 178 CURVE SMOOTH",
"487 178 OFFCURVE",
"446 194 OFFCURVE"
);
}
);
width = 739;
}
);
unicode = 007E;
},
{
color = 1;
glyphname = braceleft;
lastChange = "2016-09-03 06:59:20 +0000";
layers = (
{
layerId = "2927A78B-FE88-4016-B2C6-41428F7EDB2B";
paths = (
{
closed = 1;
nodes = (
"349 -161 CURVE",
"349 -178 LINE",
"305 -178 OFFCURVE",
"245 -178 OFFCURVE",
"218 -172 CURVE SMOOTH",
"132 -152 OFFCURVE",
"142 -67 OFFCURVE",
"142 34 CURVE SMOOTH",
"142 103 OFFCURVE",
"142 208 OFFCURVE",
"114 236 CURVE SMOOTH",
"94 256 OFFCURVE",
"49 259 OFFCURVE",
"15 259 CURVE",
"15 285 LINE",
"45 284 OFFCURVE",
"89 287 OFFCURVE",
"112 305 CURVE SMOOTH",
"155 340 OFFCURVE",
"134 542 OFFCURVE",
"142 620 CURVE SMOOTH",
"157 728 OFFCURVE",
"209 730 OFFCURVE",
"349 730 CURVE",
"349 712 LINE",
"316 712 OFFCURVE",
"283 711 OFFCURVE",
"252 702 CURVE SMOOTH",
"196 685 OFFCURVE",
"199 589 OFFCURVE",
"199 518 CURVE SMOOTH",
"199 365 OFFCURVE",
"173 304 OFFCURVE",
"97 274 CURVE",
"97 273 LINE",
"236 222 OFFCURVE",
"185 37 OFFCURVE",
"208 -89 CURVE SMOOTH",
"223 -162 OFFCURVE",
"289 -161 OFFCURVE"
);
}
);
width = 364;
}
);
unicode = 007B;
},
{
color = 1;
glyphname = braceright;
lastChange = "2016-09-03 06:59:20 +0000";
layers = (
{
layerId = "2927A78B-FE88-4016-B2C6-41428F7EDB2B";
paths = (
{
closed = 1;
nodes = (
"14 -178 CURVE",
"14 -161 LINE",
"44 -161 OFFCURVE",
"75 -160 OFFCURVE",
"104 -152 CURVE SMOOTH",
"164 -135 OFFCURVE",
"165 -41 OFFCURVE",
"165 30 CURVE SMOOTH",
"165 126 OFFCURVE",
"169 237 OFFCURVE",
"264 273 CURVE",
"264 274 LINE",
"124 325 OFFCURVE",
"183 495 OFFCURVE",
"157 636 CURVE SMOOTH",
"142 715 OFFCURVE",
"77 712 OFFCURVE",
"14 712 CURVE",
"14 730 LINE",
"61 730 OFFCURVE",
"129 730 OFFCURVE",
"153 723 CURVE SMOOTH",
"251 693 OFFCURVE",
"212 538 OFFCURVE",
"227 363 CURVE SMOOTH",
"236 289 OFFCURVE",
"289 285 OFFCURVE",
"348 285 CURVE",
"348 259 LINE",
"314 259 OFFCURVE",
"269 256 OFFCURVE",
"249 236 CURVE SMOOTH",
"221 208 OFFCURVE",
"221 103 OFFCURVE",
"221 34 CURVE SMOOTH",
"221 -181 OFFCURVE",
"182 -178 OFFCURVE"
);
}
);
width = 363;
}
);
unicode = 007D;
},
{
color = 1;
glyphname = bar;
lastChange = "2016-09-03 06:59:20 +0000";
layers = (
{
layerId = "2927A78B-FE88-4016-B2C6-41428F7EDB2B";
paths = (
{
closed = 1;
nodes = (
"140 -159 LINE",
"90 -172 LINE",
"90 719 LINE",
"140 738 LINE"
);
}
);
width = 230;
}
);
unicode = 007C;
},
{
color = 1;
glyphname = backslash;
lastChange = "2016-09-03 06:59:20 +0000";
layers = (
{
layerId = "2927A78B-FE88-4016-B2C6-41428F7EDB2B";
paths = (
{
closed = 1;
nodes = (
"430 -194 LINE",
"-13 709 LINE",
"33 728 LINE",
"472 -169 LINE"
);
}
);
width = 460;
}
);
unicode = 005C;
},
{
color = 1;
glyphname = logicalnot;
lastChange = "2016-09-03 06:59:20 +0000";
layers = (
{
layerId = "2927A78B-FE88-4016-B2C6-41428F7EDB2B";
paths = (
{
closed = 1;
nodes = (
"748 401 LINE",
"748 205 LINE",
"698 205 LINE",
"698 351 LINE",
"69 351 LINE",
"69 401 LINE"
);
}
);
width = 868;
}
);
unicode = 00AC;
},
{
color = 1;
glyphname = section;
lastChange = "2016-09-03 06:59:20 +0000";
layers = (
{
layerId = "2927A78B-FE88-4016-B2C6-41428F7EDB2B";
paths = (
{
closed = 1;
nodes = (
"431 232 CURVE SMOOTH",
"431 348 OFFCURVE",
"209 360 OFFCURVE",
"125 440 CURVE",
"108 421 OFFCURVE",
"96 397 OFFCURVE",
"96 373 CURVE SMOOTH",
"96 267 OFFCURVE",
"333 231 OFFCURVE",
"408 166 CURVE",
"423 185 OFFCURVE",
"431 209 OFFCURVE"
);
},
{
closed = 1;
nodes = (
"35 23 CURVE",
"114 50 LINE",
"123 44 LINE",
"129 -22 OFFCURVE",
"170 -76 OFFCURVE",
"250 -76 CURVE SMOOTH",
"322 -76 OFFCURVE",
"375 -23 OFFCURVE",
"375 48 CURVE SMOOTH",
"375 110 OFFCURVE",
"308 138 OFFCURVE",
"215 176 CURVE SMOOTH",
"121 214 OFFCURVE",
"53 248 OFFCURVE",
"53 338 CURVE SMOOTH",
"53 384 OFFCURVE",
"77 426 OFFCURVE",
"107 464 CURVE",
"100 484 OFFCURVE",
"95 504 OFFCURVE",
"95 525 CURVE SMOOTH",
"95 622 OFFCURVE",
"173 701 OFFCURVE",
"287 701 CURVE SMOOTH",
"341 701 OFFCURVE",
"421 684 OFFCURVE",
"421 622 CURVE SMOOTH",
"421 615 OFFCURVE",
"417 597 OFFCURVE",
"414 585 CURVE",
"347 564 LINE",
"331 575 LINE",
"331 633 OFFCURVE",
"306 670 OFFCURVE",
"254 670 CURVE SMOOTH",
"195 670 OFFCURVE",
"160 613 OFFCURVE",
"160 561 CURVE SMOOTH",
"160 529 OFFCURVE",
"175 497 OFFCURVE",
"210 480 CURVE SMOOTH",
"312 431 LINE SMOOTH",
"383 394 OFFCURVE",
"481 372 OFFCURVE",
"481 285 CURVE SMOOTH",
"481 235 OFFCURVE",
"461 186 OFFCURVE",
"423 150 CURVE",
"438 128 OFFCURVE",
"444 101 OFFCURVE",
"444 75 CURVE SMOOTH",
"444 -26 OFFCURVE",
"349 -107 OFFCURVE",
"240 -107 CURVE SMOOTH",
"148 -107 OFFCURVE",
"48 -76 OFFCURVE"
);
}
);
width = 517;
}
);
unicode = 00A7;
},
{
color = 1;
glyphname = hyphen;
lastChange = "2016-09-03 06:59:20 +0000";
layers = (
{
layerId = "2927A78B-FE88-4016-B2C6-41428F7EDB2B";
paths = (
{
closed = 1;
nodes = (
"317 231 LINE",
"51 231 LINE",
"70 281 LINE",
"333 281 LINE"
);
}
);
width = 385;
}
);
unicode = 002D;
},
{
color = 1;
glyphname = dollar;
lastChange = "2016-09-03 06:59:20 +0000";
layers = (
{
layerId = "2927A78B-FE88-4016-B2C6-41428F7EDB2B";
paths = (
{
closed = 1;
nodes = (
"312 -89 LINE",
"262 -102 LINE",
"262 789 LINE",
"312 808 LINE"
);
},
{
closed = 1;
nodes = (
"423 538 LINE",
"406 543 LINE",
"398 606 OFFCURVE",
"357 668 OFFCURVE",
"279 668 CURVE SMOOTH",
"218 668 OFFCURVE",
"180 625 OFFCURVE",
"180 573 CURVE SMOOTH",
"180 491 OFFCURVE",
"259 448 OFFCURVE",
"329 413 CURVE SMOOTH",
"441 356 OFFCURVE",
"511 310 OFFCURVE",
"511 220 CURVE SMOOTH",
"511 90 OFFCURVE",
"353 4 OFFCURVE",
"220 4 CURVE SMOOTH",
"143 4 OFFCURVE",
"72 38 OFFCURVE",
"28 100 CURVE",
"120 204 LINE",
"138 197 LINE",
"138 126 OFFCURVE",
"190 51 OFFCURVE",
"274 51 CURVE SMOOTH",
"343 51 OFFCURVE",
"396 108 OFFCURVE",
"396 168 CURVE SMOOTH",
"396 204 OFFCURVE",
"372 233 OFFCURVE",
"345 259 CURVE SMOOTH",
"276 322 OFFCURVE",
"75 372 OFFCURVE",
"75 512 CURVE SMOOTH",
"75 649 OFFCURVE",
"197 705 OFFCURVE",
"322 705 CURVE SMOOTH",
"419 705 OFFCURVE",
"483 680 OFFCURVE",
"513 609 CURVE"
);
}
);
width = 552;
}
);
unicode = 0024;
},
{
color = 1;
glyphname = percent;
lastChange = "2016-09-03 06:59:20 +0000";
layers = (
{
layerId = "2927A78B-FE88-4016-B2C6-41428F7EDB2B";
paths = (
{
closed = 1;
nodes = (
"625 347 CURVE",
"717 324 OFFCURVE",
"783 264 OFFCURVE",
"783 187 CURVE SMOOTH",
"783 95 OFFCURVE",
"674 -12 OFFCURVE",
"571 -12 CURVE SMOOTH",
"483 -12 OFFCURVE",
"431 60 OFFCURVE",
"431 127 CURVE SMOOTH",
"431 229 OFFCURVE",
"510 305 OFFCURVE"
);
},
{
closed = 1;
nodes = (
"568 292 CURVE",
"522 270 OFFCURVE",
"503 221 OFFCURVE",
"503 178 CURVE SMOOTH",
"503 121 OFFCURVE",
"550 45 OFFCURVE",
"622 45 CURVE SMOOTH",
"702 45 OFFCURVE",
"708 96 OFFCURVE",
"708 143 CURVE SMOOTH",
"708 208 OFFCURVE",
"639 274 OFFCURVE"
);
},
{
closed = 1;
nodes = (
"254 801 CURVE",
"346 778 OFFCURVE",
"412 718 OFFCURVE",
"412 641 CURVE SMOOTH",
"412 549 OFFCURVE",
"303 442 OFFCURVE",
"200 442 CURVE SMOOTH",
"112 442 OFFCURVE",
"60 514 OFFCURVE",
"60 581 CURVE SMOOTH",
"60 683 OFFCURVE",
"139 759 OFFCURVE"
);
},
{
closed = 1;
nodes = (
"197 746 CURVE",
"151 724 OFFCURVE",
"132 675 OFFCURVE",
"132 632 CURVE SMOOTH",
"132 575 OFFCURVE",
"179 499 OFFCURVE",
"251 499 CURVE SMOOTH",
"331 499 OFFCURVE",
"337 550 OFFCURVE",
"337 597 CURVE SMOOTH",
"337 662 OFFCURVE",
"268 728 OFFCURVE"
);
},
{
closed = 1;
nodes = (
"766 770 LINE",
"768 757 LINE",
"147 3 LINE",
"106 27 LINE",
"108 42 LINE",
"723 789 LINE",
"734 788 LINE"
);
}
);
width = 846;
}
);
unicode = 0025;
},
{
color = 1;
glyphname = numbersign;
lastChange = "2016-09-03 06:59:20 +0000";
layers = (
{
layerId = "2927A78B-FE88-4016-B2C6-41428F7EDB2B";
paths = (
{
closed = 1;
nodes = (
"95 508 LINE",
"103 517 LINE",
"756 517 LINE",
"763 470 LINE",
"752 461 LINE",
"108 461 LINE",
"101 472 LINE"
);
},
{
closed = 1;
nodes = (
"12 258 LINE",
"20 267 LINE",
"694 267 LINE",
"701 220 LINE",
"690 211 LINE",
"25 211 LINE",
"18 222 LINE"
);
},
{
closed = 1;
nodes = (
"641 714 LINE",
"648 704 LINE",
"450 -3 LINE",
"403 2 LINE",
"398 16 LINE",
"594 715 LINE",
"605 718 LINE"
);
},
{
closed = 1;
nodes = (
"391 714 LINE",
"398 704 LINE",
"200 -3 LINE",
"153 2 LINE",
"148 16 LINE",
"344 715 LINE",
"355 718 LINE"
);
}
);
width = 778;
}
);
unicode = 0023;
},
{
color = 0;
glyphname = underscore;
lastChange = "2016-09-03 06:48:54 +0000";
layers = (
{
layerId = "2927A78B-FE88-4016-B2C6-41428F7EDB2B";
paths = (
{
closed = 1;
nodes = (
"893 -119 LINE",
"0 -119 LINE",
"0 -69 LINE",
"893 -69 LINE"
);
}
);
width = 893;
}
);
unicode = 005F;
},
{
color = 1;
glyphname = at;
lastChange = "2016-09-03 06:59:20 +0000";
layers = (
{
layerId = "2927A78B-FE88-4016-B2C6-41428F7EDB2B";
paths = (
{
closed = 1;
nodes = (
"456 304 CURVE SMOOTH",
"456 341 OFFCURVE",
"446 394 OFFCURVE",
"385 394 CURVE SMOOTH",
"297 394 OFFCURVE",
"280 296 OFFCURVE",
"280 233 CURVE SMOOTH",
"280 185 OFFCURVE",
"297 117 OFFCURVE",
"360 117 CURVE SMOOTH",
"395 117 OFFCURVE",
"425 134 OFFCURVE",
"449 154 CURVE",
"453 185 OFFCURVE",
"456 256 OFFCURVE"
);
},
{
closed = 1;
nodes = (
"535 418 LINE",
"546 411 LINE",
"539 347 OFFCURVE",
"534 284 OFFCURVE",
"534 220 CURVE SMOOTH",
"534 157 OFFCURVE",
"534 124 OFFCURVE",
"559 124 CURVE SMOOTH",
"612 124 OFFCURVE",
"635 217 OFFCURVE",
"638 263 CURVE SMOOTH",
"651 440 OFFCURVE",
"490 553 OFFCURVE",
"321 521 CURVE SMOOTH",
"269 511 OFFCURVE",
"221 488 OFFCURVE",
"180 455 CURVE",
"110 369 OFFCURVE",
"80 223 OFFCURVE",
"147 107 CURVE SMOOTH",
"185 41 OFFCURVE",
"258 -9 OFFCURVE",
"349 -16 CURVE",
"365 -31 LINE",
"315 -81 LINE",
"209 -73 OFFCURVE",
"125 -2 OFFCURVE",
"82 73 CURVE SMOOTH",
"25 171 OFFCURVE",
"34 293 OFFCURVE",
"90 385 CURVE SMOOTH",
"143 472 OFFCURVE",
"245 565 OFFCURVE",
"355 586 CURVE SMOOTH",
"531 620 OFFCURVE",
"717 483 OFFCURVE",
"703 297 CURVE SMOOTH",
"698 234 OFFCURVE",
"671 181 OFFCURVE",
"632 142 CURVE SMOOTH",
"604 112 OFFCURVE",
"561 64 OFFCURVE",
"501 64 CURVE SMOOTH",
"467 64 OFFCURVE",
"458 88 OFFCURVE",
"454 110 CURVE",
"444 114 LINE",
"403 87 OFFCURVE",
"354 62 OFFCURVE",
"302 62 CURVE SMOOTH",
"219 62 OFFCURVE",
"194 147 OFFCURVE",
"194 206 CURVE SMOOTH",
"194 352 OFFCURVE",
"261 421 OFFCURVE",
"379 421 CURVE SMOOTH",
"420 421 OFFCURVE",
"456 410 OFFCURVE",
"490 391 CURVE"
);
}
);
width = 744;
}
);
unicode = 0040;
},
{
color = 1;
glyphname = sterling;
lastChange = "2016-09-03 06:59:20 +0000";
layers = (
{
layerId = "2927A78B-FE88-4016-B2C6-41428F7EDB2B";
paths = (
{
closed = 1;
nodes = (
"237 360 CURVE",
"232 320 LINE",
"189 318 OFFCURVE",
"146 317 OFFCURVE",
"103 316 CURVE",
"111 366 LINE",
"161 365 OFFCURVE",
"190 363 OFFCURVE"
);
},
{
closed = 1;
nodes = (
"283 362 LINE",
"465 368 LINE",
"461 315 LINE",
"365 318 OFFCURVE",
"331 319 OFFCURVE",
"263 320 CURVE"
);
},
{
closed = 1;
nodes = (
"221 411 CURVE SMOOTH",
"245 566 OFFCURVE",
"299 710 OFFCURVE",
"518 710 CURVE SMOOTH",
"583 710 OFFCURVE",
"654 685 OFFCURVE",
"654 624 CURVE SMOOTH",
"654 588 OFFCURVE",
"629 549 OFFCURVE",
"588 549 CURVE SMOOTH",
"479 549 OFFCURVE",
"567 670 OFFCURVE",
"468 670 CURVE SMOOTH",
"422 670 OFFCURVE",
"393 633 OFFCURVE",
"380 595 CURVE SMOOTH",
"351 510 OFFCURVE",
"347 424 OFFCURVE",
"316 340 CURVE SMOOTH",
"295 283 OFFCURVE",
"240 234 OFFCURVE",
"169 192 CURVE",
"170 183 LINE",
"327 183 OFFCURVE",
"414 89 OFFCURVE",
"555 89 CURVE SMOOTH",
"594 89 OFFCURVE",
"633 96 OFFCURVE",
"662 121 CURVE SMOOTH",
"703 157 OFFCURVE",
"715 246 OFFCURVE",
"715 277 CURVE",
"744 278 LINE",
"744 209 LINE SMOOTH",
"744 103 OFFCURVE",
"658 -12 OFFCURVE",
"532 -12 CURVE SMOOTH",
"380 -12 OFFCURVE",
"274 102 OFFCURVE",
"152 102 CURVE SMOOTH",
"89 102 OFFCURVE",
"70 54 OFFCURVE",
"56 0 CURVE",
"29 13 LINE",
"32 81 OFFCURVE",
"47 125 OFFCURVE",
"116 180 CURVE",
"169 228 OFFCURVE",
"200 266 OFFCURVE"
);
}
);
width = 783;
}
);
unicode = 00A3;
},
{
color = 1;
glyphname = yen;
lastChange = "2016-09-03 06:59:20 +0000";
layers = (
{
layerId = "2927A78B-FE88-4016-B2C6-41428F7EDB2B";
paths = (
{
closed = 1;
nodes = (
"272 375 LINE",
"97 375 LINE",
"104 420 LINE",
"253 420 LINE"
);
},
{
closed = 1;
nodes = (
"427 420 LINE",
"577 420 LINE",
"571 375 LINE",
"400 375 LINE"
);
},
{
closed = 1;
nodes = (
"569 243 LINE",
"99 243 LINE",
"106 288 LINE",
"575 288 LINE"
);
},
{
closed = 1;
nodes = (
"675 695 LINE",
"392 323 LINE",
"392 224 OFFCURVE",
"396 129 OFFCURVE",
"401 28 CURVE",
"287 -4 LINE",
"269 5 LINE",
"271 107 OFFCURVE",
"275 296 OFFCURVE",
"275 297 CURVE",
"274 298 OFFCURVE",
"180 488 OFFCURVE",
"134 576 CURVE SMOOTH",
"118 607 OFFCURVE",
"99 648 OFFCURVE",
"67 657 CURVE SMOOTH",
"21 669 LINE",
"21 695 LINE",
"29 704 LINE",
"212 704 LINE",
"219 687 OFFCURVE",
"312 503 OFFCURVE",
"362 402 CURVE SMOOTH",
"364 398 OFFCURVE",
"370 396 OFFCURVE",
"374 396 CURVE SMOOTH",
"379 396 OFFCURVE",
"382 397 OFFCURVE",
"386 401 CURVE",
"572 690 LINE",
"674 707 LINE"
);
}
);
width = 696;
}
);
unicode = 00A5;
},
{
color = 1;
glyphname = cent;
lastChange = "2016-09-03 06:59:20 +0000";
layers = (
{
layerId = "2927A78B-FE88-4016-B2C6-41428F7EDB2B";
paths = (
{
closed = 1;
nodes = (
"295 -159 LINE",
"245 -172 LINE",
"245 665 LINE",
"295 684 LINE"
);
},
{
closed = 1;
nodes = (
"468 379 CURVE",
"376 324 LINE",
"359 331 LINE",
"359 393 OFFCURVE",
"336 456 OFFCURVE",
"271 456 CURVE SMOOTH",
"184 456 OFFCURVE",
"160 317 OFFCURVE",
"160 248 CURVE SMOOTH",
"160 173 OFFCURVE",
"191 59 OFFCURVE",
"296 59 CURVE SMOOTH",
"353 59 OFFCURVE",
"410 89 OFFCURVE",
"461 128 CURVE",
"473 125 LINE",
"483 111 LINE",
"415 43 OFFCURVE",
"327 -10 OFFCURVE",
"225 -10 CURVE SMOOTH",
"93 -10 OFFCURVE",
"42 94 OFFCURVE",
"42 193 CURVE SMOOTH",
"42 338 OFFCURVE",
"113 496 OFFCURVE",
"312 496 CURVE SMOOTH",
"387 496 OFFCURVE",
"462 469 OFFCURVE"
);
}
);
width = 512;
}
);
unicode = 00A2;
},
{
color = 1;
glyphname = brokenbar;
lastChange = "2016-09-03 06:59:20 +0000";
layers = (
{
layerId = "2927A78B-FE88-4016-B2C6-41428F7EDB2B";
paths = (
{
closed = 1;
nodes = (
"137 328 LINE",
"87 315 LINE",
"87 719 LINE",
"137 738 LINE"
);
},
{
closed = 1;
nodes = (
"137 -159 LINE",
"87 -172 LINE",
"87 232 LINE",
"137 251 LINE"
);
}
);
width = 224;
}
);
unicode = 00A6;
},
{
color = 1;
glyphname = exclamdown;
lastChange = "2016-09-03 06:59:20 +0000";
layers = (
{
layerId = "2927A78B-FE88-4016-B2C6-41428F7EDB2B";
paths = (
{
closed = 1;
nodes = (
"57 442 CURVE SMOOTH",
"57 408 OFFCURVE",
"85 380 OFFCURVE",
"119 380 CURVE SMOOTH",
"153 380 OFFCURVE",
"181 408 OFFCURVE",
"181 442 CURVE SMOOTH",
"181 476 OFFCURVE",
"153 504 OFFCURVE",
"119 504 CURVE SMOOTH",
"85 504 OFFCURVE",
"57 476 OFFCURVE"
);
},
{
closed = 1;
nodes = (
"162 -69 CURVE SMOOTH",
"120 302 LINE",
"101 304 LINE",
"69 -79 LINE SMOOTH",
"67 -98 OFFCURVE",
"65 -120 OFFCURVE",
"65 -137 CURVE SMOOTH",
"65 -192 OFFCURVE",
"91 -202 OFFCURVE",
"125 -202 CURVE SMOOTH",
"157 -202 OFFCURVE",
"169 -178 OFFCURVE",
"169 -156 CURVE SMOOTH",
"169 -127 OFFCURVE",
"165 -98 OFFCURVE"
);
}
);
width = 231;
}
);
unicode = 00A1;
},
{
color = 1;
glyphname = questiondown;
lastChange = "2016-09-03 06:59:20 +0000";
layers = (
{
layerId = "2927A78B-FE88-4016-B2C6-41428F7EDB2B";
paths = (
{
closed = 1;
nodes = (
"276 358 CURVE SMOOTH",
"236 358 OFFCURVE",
"203 390 OFFCURVE",
"203 430 CURVE SMOOTH",
"203 470 OFFCURVE",
"236 503 OFFCURVE",
"276 503 CURVE SMOOTH",
"315 503 OFFCURVE",
"348 470 OFFCURVE",
"348 430 CURVE SMOOTH",
"348 390 OFFCURVE",
"315 358 OFFCURVE"
);
},
{
closed = 1;
nodes = (
"292 -55 LINE",
"370 -10 LINE",
"399 -24 OFFCURVE",
"406 -47 OFFCURVE",
"406 -73 CURVE SMOOTH",
"406 -165 OFFCURVE",
"280 -220 OFFCURVE",
"182 -220 CURVE SMOOTH",
"99 -220 OFFCURVE",
"22 -175 OFFCURVE",
"22 -98 CURVE SMOOTH",
"22 -43 OFFCURVE",
"50 4 OFFCURVE",
"98 41 CURVE SMOOTH",
"228 141 LINE SMOOTH",
"248 157 OFFCURVE",
"265 180 OFFCURVE",
"265 204 CURVE SMOOTH",
"265 224 OFFCURVE",
"255 240 OFFCURVE",
"237 255 CURVE",
"237 264 LINE",
"307 311 LINE",
"341 296 OFFCURVE",
"362 272 OFFCURVE",
"362 239 CURVE SMOOTH",
"362 212 OFFCURVE",
"346 186 OFFCURVE",
"322 168 CURVE SMOOTH",
"202 81 LINE SMOOTH",
"148 42 OFFCURVE",
"133 -11 OFFCURVE",
"133 -70 CURVE SMOOTH",
"133 -118 OFFCURVE",
"178 -180 OFFCURVE",
"236 -180 CURVE SMOOTH",
"280 -180 OFFCURVE",
"324 -159 OFFCURVE",
"324 -112 CURVE SMOOTH",
"324 -97 OFFCURVE",
"316 -79 OFFCURVE",
"304 -67 CURVE SMOOTH"
);
}
);
width = 432;
}
);
unicode = 00BF;
},
{
color = 1;
glyphname = periodcentered;
lastChange = "2016-09-03 06:59:20 +0000";
layers = (
{
layerId = "2927A78B-FE88-4016-B2C6-41428F7EDB2B";
paths = (
{
closed = 1;
nodes = (
"69 261 CURVE SMOOTH",
"69 300 OFFCURVE",
"101 332 OFFCURVE",
"140 332 CURVE SMOOTH",
"178 332 OFFCURVE",
"210 300 OFFCURVE",
"210 261 CURVE SMOOTH",
"210 223 OFFCURVE",
"178 191 OFFCURVE",
"140 191 CURVE SMOOTH",
"101 191 OFFCURVE",
"69 223 OFFCURVE"
);
}
);
width = 280;
}
);
unicode = 00B7;
},
{
color = 1;
glyphname = plusminus;
lastChange = "2016-09-03 06:59:20 +0000";
layers = (
{
layerId = "2927A78B-FE88-4016-B2C6-41428F7EDB2B";
paths = (
{
closed = 1;
nodes = (
"472 288 LINE",
"837 288 LINE",
"821 238 LINE",
"472 238 LINE",
"472 -64 LINE",
"422 -83 LINE",
"422 238 LINE",
"56 238 LINE",
"73 288 LINE",
"422 288 LINE",
"422 584 LINE",
"472 598 LINE"
);
},
{
closed = 1;
nodes = (
"818 -84 LINE",
"54 -84 LINE",
"73 -34 LINE",
"834 -34 LINE"
);
}
);
width = 893;
}
);
unicode = 00B1;
},
{
color = 1;
glyphname = guillemotright;
lastChange = "2016-09-03 06:59:20 +0000";
layers = (
{
layerId = "2927A78B-FE88-4016-B2C6-41428F7EDB2B";
paths = (
{
closed = 1;
nodes = (
"258 221 LINE",
"69 441 LINE",
"38 387 LINE",
"184 218 LINE",
"28 17 LINE",
"42 -15 LINE"
);
},
{
closed = 1;
nodes = (
"410 221 LINE",
"220 441 LINE",
"189 387 LINE",
"336 218 LINE",
"180 17 LINE",
"194 -15 LINE"
);
}
);
width = 428;
}
);
unicode = 00BB;
},
{
color = 1;
glyphname = guillemotleft;
lastChange = "2016-09-03 06:59:20 +0000";
layers = (
{
layerId = "2927A78B-FE88-4016-B2C6-41428F7EDB2B";
paths = (
{
closed = 1;
nodes = (
"170 221 LINE",
"359 441 LINE",
"390 387 LINE",
"244 218 LINE",
"400 17 LINE",
"386 -15 LINE"
);
},
{
closed = 1;
nodes = (
"18 221 LINE",
"208 441 LINE",
"239 387 LINE",
"92 218 LINE",
"248 17 LINE",
"234 -15 LINE"
);
}
);
width = 428;
}
);
unicode = 00AB;
},
{
color = 1;
glyphname = ordfeminine;
lastChange = "2016-09-03 06:59:20 +0000";
layers = (
{
layerId = "2927A78B-FE88-4016-B2C6-41428F7EDB2B";
paths = (
{
closed = 1;
nodes = (
"337 590 LINE",
"346 585 LINE",
"340 526 OFFCURVE",
"335 466 OFFCURVE",
"335 407 CURVE SMOOTH",
"335 349 OFFCURVE",
"336 317 OFFCURVE",
"359 317 CURVE SMOOTH",
"375 317 OFFCURVE",
"394 333 OFFCURVE",
"408 345 CURVE",
"422 331 LINE",
"394 300 OFFCURVE",
"354 262 OFFCURVE",
"305 262 CURVE SMOOTH",
"274 262 OFFCURVE",
"265 285 OFFCURVE",
"261 305 CURVE",
"252 308 LINE",
"214 283 OFFCURVE",
"168 260 OFFCURVE",
"120 260 CURVE SMOOTH",
"43 260 OFFCURVE",
"19 339 OFFCURVE",
"19 394 CURVE SMOOTH",
"19 529 OFFCURVE",
"81 594 OFFCURVE",
"191 594 CURVE SMOOTH",
"229 594 OFFCURVE",
"263 584 OFFCURVE",
"294 566 CURVE"
);
},
{
closed = 1;
nodes = (
"262 485 CURVE SMOOTH",
"262 519 OFFCURVE",
"254 569 OFFCURVE",
"197 569 CURVE SMOOTH",
"116 569 OFFCURVE",
"99 478 OFFCURVE",
"99 420 CURVE SMOOTH",
"99 375 OFFCURVE",
"115 311 OFFCURVE",
"173 311 CURVE SMOOTH",
"205 311 OFFCURVE",
"234 328 OFFCURVE",
"257 346 CURVE",
"261 375 OFFCURVE",
"262 441 OFFCURVE"
);
}
);
width = 400;
}
);
unicode = 00AA;
},
{
color = 1;
glyphname = ordmasculine;
lastChange = "2016-09-03 06:59:20 +0000";
layers = (
{
layerId = "2927A78B-FE88-4016-B2C6-41428F7EDB2B";
paths = (
{
closed = 1;
nodes = (
"105 422 CURVE SMOOTH",
"105 378 OFFCURVE",
"120 290 OFFCURVE",
"190 290 CURVE SMOOTH",
"280 290 OFFCURVE",
"283 371 OFFCURVE",
"283 444 CURVE SMOOTH",
"283 496 OFFCURVE",
"266 560 OFFCURVE",
"198 560 CURVE SMOOTH",
"123 560 OFFCURVE",
"105 479 OFFCURVE"
);
},
{
closed = 1;
nodes = (
"13 421 CURVE SMOOTH",
"13 516 OFFCURVE",
"92 586 OFFCURVE",
"202 586 CURVE SMOOTH",
"248 586 OFFCURVE",
"294 577 OFFCURVE",
"327 550 CURVE SMOOTH",
"359 523 OFFCURVE",
"375 486 OFFCURVE",
"375 448 CURVE SMOOTH",
"375 314 OFFCURVE",
"288 263 OFFCURVE",
"184 263 CURVE SMOOTH",
"140 263 OFFCURVE",
"95 268 OFFCURVE",
"64 294 CURVE SMOOTH",
"24 327 OFFCURVE",
"13 375 OFFCURVE"
);
}
);
width = 388;
}
);
unicode = 00BA;
},
{
color = 1;
glyphname = uni00B2;
lastChange = "2016-09-03 06:59:20 +0000";
layers = (
{
layerId = "2927A78B-FE88-4016-B2C6-41428F7EDB2B";
paths = (
{
closed = 1;
nodes = (
"342 341 LINE",
"321 273 LINE",
"-23 273 LINE",
"-23 286 LINE",
"47 339 OFFCURVE",
"109 396 OFFCURVE",
"162 461 CURVE SMOOTH",
"194 501 OFFCURVE",
"221 548 OFFCURVE",
"221 597 CURVE SMOOTH",
"221 639 OFFCURVE",
"202 687 OFFCURVE",
"138 687 CURVE SMOOTH",
"100 687 OFFCURVE",
"64 665 OFFCURVE",
"33 647 CURVE",
"21 663 LINE",
"66 700 OFFCURVE",
"126 735 OFFCURVE",
"188 735 CURVE SMOOTH",
"253 735 OFFCURVE",
"315 700 OFFCURVE",
"315 640 CURVE SMOOTH",
"315 535 OFFCURVE",
"182 437 OFFCURVE",
"99 347 CURVE SMOOTH",
"98 346 OFFCURVE",
"98 345 OFFCURVE",
"98 344 CURVE SMOOTH",
"98 343 OFFCURVE",
"100 341 OFFCURVE",
"102 341 CURVE SMOOTH"
);
}
);
width = 340;
}
);
unicode = 00B2;
},
{
color = 1;
glyphname = uni00B3;
lastChange = "2016-09-03 06:59:20 +0000";
layers = (
{
layerId = "2927A78B-FE88-4016-B2C6-41428F7EDB2B";
paths = (
{
closed = 1;
nodes = (
"167 524 CURVE",
"167 520 LINE",
"265 512 OFFCURVE",
"319 478 OFFCURVE",
"319 415 CURVE SMOOTH",
"319 318 OFFCURVE",
"217 265 OFFCURVE",
"117 265 CURVE SMOOTH",
"69 265 OFFCURVE",
"21 277 OFFCURVE",
"-15 304 CURVE",
"26 374 LINE",
"39 373 LINE",
"50 337 OFFCURVE",
"76 291 OFFCURVE",
"122 291 CURVE SMOOTH",
"199 291 OFFCURVE",
"229 345 OFFCURVE",
"229 401 CURVE SMOOTH",
"229 487 OFFCURVE",
"145 503 OFFCURVE",
"62 503 CURVE",
"62 522 LINE",
"122 525 OFFCURVE",
"207 550 OFFCURVE",
"207 622 CURVE SMOOTH",
"207 662 OFFCURVE",
"175 689 OFFCURVE",
"130 689 CURVE SMOOTH",
"95 689 OFFCURVE",
"62 670 OFFCURVE",
"31 652 CURVE",
"19 668 LINE",
"64 699 OFFCURVE",
"119 731 OFFCURVE",
"177 731 CURVE SMOOTH",
"234 731 OFFCURVE",
"290 701 OFFCURVE",
"290 648 CURVE SMOOTH",
"290 587 OFFCURVE",
"233 545 OFFCURVE"
);
}
);
width = 326;
}
);
unicode = 00B3;
},
{
color = 1;
glyphname = uni00B9;
lastChange = "2016-09-03 06:59:20 +0000";
layers = (
{
layerId = "2927A78B-FE88-4016-B2C6-41428F7EDB2B";
paths = (
{
closed = 1;
nodes = (
"-23 677 LINE",
"170 735 LINE",
"181 723 LINE",
"173 634 OFFCURVE",
"170 545 OFFCURVE",
"170 455 CURVE SMOOTH",
"170 400 OFFCURVE",
"170 333 OFFCURVE",
"172 291 CURVE",
"96 264 LINE",
"82 273 LINE",
"91 350 OFFCURVE",
"95 428 OFFCURVE",
"95 505 CURVE SMOOTH",
"95 549 OFFCURVE",
"95 591 OFFCURVE",
"92 635 CURVE SMOOTH",
"91 647 OFFCURVE",
"80 656 OFFCURVE",
"68 656 CURVE SMOOTH",
"-23 656 LINE"
);
}
);
width = 220;
}
);
unicode = 00B9;
},
{
color = 1;
glyphname = copyright;
lastChange = "2016-09-03 06:59:20 +0000";
layers = (
{
layerId = "2927A78B-FE88-4016-B2C6-41428F7EDB2B";
paths = (
{
closed = 1;
nodes = (
"48 445 CURVE SMOOTH",
"48 601 OFFCURVE",
"176 727 OFFCURVE",
"333 727 CURVE SMOOTH",
"490 727 OFFCURVE",
"618 601 OFFCURVE",
"618 445 CURVE SMOOTH",
"618 289 OFFCURVE",
"490 163 OFFCURVE",
"333 163 CURVE SMOOTH",
"176 163 OFFCURVE",
"48 289 OFFCURVE"
);
},
{
closed = 1;
nodes = (
"78 445 CURVE SMOOTH",
"78 306 OFFCURVE",
"192 193 OFFCURVE",
"333 193 CURVE SMOOTH",
"474 193 OFFCURVE",
"588 306 OFFCURVE",
"588 445 CURVE SMOOTH",
"588 584 OFFCURVE",
"474 697 OFFCURVE",
"333 697 CURVE SMOOTH",
"192 697 OFFCURVE",
"78 584 OFFCURVE"
);
},
{
closed = 1;
nodes = (
"507 562 CURVE",
"452 520 LINE",
"444 521 LINE",
"430 565 OFFCURVE",
"400 603 OFFCURVE",
"336 603 CURVE SMOOTH",
"237 603 OFFCURVE",
"207 512 OFFCURVE",
"207 450 CURVE SMOOTH",
"207 380 OFFCURVE",
"250 291 OFFCURVE",
"358 291 CURVE SMOOTH",
"405 291 OFFCURVE",
"449 306 OFFCURVE",
"490 323 CURVE",
"502 310 LINE",
"453 280 OFFCURVE",
"396 261 OFFCURVE",
"334 261 CURVE SMOOTH",
"176 261 OFFCURVE",
"122 347 OFFCURVE",
"122 436 CURVE SMOOTH",
"122 486 OFFCURVE",
"136 536 OFFCURVE",
"182 572 CURVE SMOOTH",
"226 607 OFFCURVE",
"287 625 OFFCURVE",
"351 625 CURVE SMOOTH",
"421 625 OFFCURVE",
"473 608 OFFCURVE"
);
}
);
width = 666;
}
);
unicode = 00A9;
},
{
color = 1;
glyphname = registered;
lastChange = "2016-09-03 06:59:20 +0000";
layers = (
{
layerId = "2927A78B-FE88-4016-B2C6-41428F7EDB2B";
paths = (
{
closed = 1;
nodes = (
"48 445 CURVE SMOOTH",
"48 601 OFFCURVE",
"176 727 OFFCURVE",
"333 727 CURVE SMOOTH",
"490 727 OFFCURVE",
"618 601 OFFCURVE",
"618 445 CURVE SMOOTH",
"618 289 OFFCURVE",
"490 163 OFFCURVE",
"333 163 CURVE SMOOTH",
"176 163 OFFCURVE",
"48 289 OFFCURVE"
);
},
{
closed = 1;
nodes = (
"78 445 CURVE SMOOTH",
"78 306 OFFCURVE",
"192 193 OFFCURVE",
"333 193 CURVE SMOOTH",
"474 193 OFFCURVE",
"588 306 OFFCURVE",
"588 445 CURVE SMOOTH",
"588 584 OFFCURVE",
"474 697 OFFCURVE",
"333 697 CURVE SMOOTH",
"192 697 OFFCURVE",
"78 584 OFFCURVE"
);
},
{
closed = 1;
nodes = (
"291 432 CURVE",
"298 290 LINE",
"218 266 LINE",
"214 270 LINE",
"219 348 OFFCURVE",
"221 425 OFFCURVE",
"221 503 CURVE SMOOTH",
"221 529 OFFCURVE",
"221 570 OFFCURVE",
"219 582 CURVE",
"217 602 OFFCURVE",
"186 603 OFFCURVE",
"166 605 CURVE",
"166 618 LINE",
"169 621 LINE",
"356 621 LINE SMOOTH",
"440 621 OFFCURVE",
"493 600 OFFCURVE",
"493 546 CURVE SMOOTH",
"493 522 OFFCURVE",
"486 495 OFFCURVE",
"464 478 CURVE SMOOTH",
"440 460 OFFCURVE",
"411 453 OFFCURVE",
"379 446 CURVE",
"376 440 LINE",
"426 390 OFFCURVE",
"492 322 OFFCURVE",
"522 298 CURVE",
"524 290 LINE",
"456 265 LINE",
"444 266 LINE",
"299 432 LINE",
"299 432 OFFCURVE",
"296 432 OFFCURVE"
);
},
{
closed = 1;
nodes = (
"291 452 CURVE",
"318 452 OFFCURVE",
"366 460 OFFCURVE",
"384 476 CURVE SMOOTH",
"403 492 OFFCURVE",
"411 515 OFFCURVE",
"411 538 CURVE SMOOTH",
"411 582 OFFCURVE",
"374 601 OFFCURVE",
"324 601 CURVE SMOOTH",
"314 601 OFFCURVE",
"296 603 OFFCURVE",
"294 590 CURVE",
"294 588 OFFCURVE",
"291 498 OFFCURVE"
);
}
);
width = 666;
}
);
unicode = 00AE;
},
{
color = 0;
glyphname = gravecomb;
lastChange = "2016-09-03 06:31:29 +0000";
layers = (
{
anchors = (
{
name = _top;
position = "{0, 485}";
},
{
name = top;
position = "{0, 711}";
}
);
layerId = "2927A78B-FE88-4016-B2C6-41428F7EDB2B";
paths = (
{
closed = 1;
nodes = (
"71 511 LINE",
"91 546 LINE",
"-19 709 LINE",
"-32 711 LINE",
"-91 665 LINE"
);
}
);
width = 0;
}
);
unicode = 0300;
},
{
color = 0;
glyphname = acutecomb;
lastChange = "2016-09-03 06:31:29 +0000";
layers = (
{
anchors = (
{
name = _top;
position = "{0, 485}";
},
{
name = top;
position = "{0, 711}";
}
);
layerId = "2927A78B-FE88-4016-B2C6-41428F7EDB2B";
paths = (
{
closed = 1;
nodes = (
"-71 511 LINE",
"-91 546 LINE",
"19 709 LINE",
"32 711 LINE",
"91 665 LINE"
);
}
);
width = 0;
}
);
unicode = 0301;
},
{
color = 0;
glyphname = uni0302;
lastChange = "2016-09-03 06:31:29 +0000";
layers = (
{
anchors = (
{
name = _top;
position = "{0, 485}";
},
{
name = top;
position = "{0, 708}";
}
);
layerId = "2927A78B-FE88-4016-B2C6-41428F7EDB2B";
paths = (
{
closed = 1;
nodes = (
"7 708 LINE",
"190 550 LINE",
"145 524 LINE",
"4 646 LINE",
"-163 516 LINE",
"-190 528 LINE"
);
}
);
width = 0;
}
);
unicode = 0302;
},
{
color = 0;
glyphname = tildecomb;
lastChange = "2016-09-03 06:31:29 +0000";
layers = (
{
anchors = (
{
name = _top;
position = "{-1, 485}";
},
{
name = top;
position = "{-1, 632}";
}
);
layerId = "2927A78B-FE88-4016-B2C6-41428F7EDB2B";
paths = (
{
closed = 1;
nodes = (
"-2 610 CURVE SMOOTH",
"45 589 LINE SMOOTH",
"59 583 OFFCURVE",
"75 578 OFFCURVE",
"91 580 CURVE SMOOTH",
"115 583 OFFCURVE",
"122 596 OFFCURVE",
"131 619 CURVE",
"146 613 LINE",
"143 584 OFFCURVE",
"122 528 OFFCURVE",
"90 523 CURVE SMOOTH",
"68 520 OFFCURVE",
"46 526 OFFCURVE",
"26 535 CURVE SMOOTH",
"-37 565 LINE SMOOTH",
"-52 572 OFFCURVE",
"-70 576 OFFCURVE",
"-87 574 CURVE SMOOTH",
"-111 571 OFFCURVE",
"-119 559 OFFCURVE",
"-131 526 CURVE",
"-148 533 LINE",
"-140 568 OFFCURVE",
"-120 626 OFFCURVE",
"-85 631 CURVE SMOOTH",
"-59 635 OFFCURVE",
"-28 621 OFFCURVE"
);
}
);
width = 0;
}
);
unicode = 0303;
},
{
color = 0;
glyphname = uni0304;
lastChange = "2016-09-03 06:31:29 +0000";
layers = (
{
anchors = (
{
name = _top;
position = "{0, 485}";
},
{
name = top;
position = "{0, 601}";
}
);
layerId = "2927A78B-FE88-4016-B2C6-41428F7EDB2B";
paths = (
{
closed = 1;
nodes = (
"125 551 LINE",
"-141 551 LINE",
"-122 601 LINE",
"141 601 LINE"
);
}
);
width = 0;
}
);
unicode = 0304;
},
{
color = 0;
glyphname = uni0308;
lastChange = "2016-09-03 06:31:29 +0000";
layers = (
{
anchors = (
{
name = _top;
position = "{0, 485}";
},
{
name = top;
position = "{0, 650}";
}
);
layerId = "2927A78B-FE88-4016-B2C6-41428F7EDB2B";
paths = (
{
closed = 1;
nodes = (
"34 584 CURVE SMOOTH",
"34 620 OFFCURVE",
"64 650 OFFCURVE",
"100 650 CURVE SMOOTH",
"136 650 OFFCURVE",
"166 620 OFFCURVE",
"166 584 CURVE SMOOTH",
"166 548 OFFCURVE",
"136 518 OFFCURVE",
"100 518 CURVE SMOOTH",
"64 518 OFFCURVE",
"34 548 OFFCURVE"
);
},
{
closed = 1;
nodes = (
"-166 584 CURVE SMOOTH",
"-166 620 OFFCURVE",
"-136 650 OFFCURVE",
"-100 650 CURVE SMOOTH",
"-64 650 OFFCURVE",
"-34 620 OFFCURVE",
"-34 584 CURVE SMOOTH",
"-34 548 OFFCURVE",
"-64 518 OFFCURVE",
"-100 518 CURVE SMOOTH",
"-136 518 OFFCURVE",
"-166 548 OFFCURVE"
);
}
);
width = 0;
}
);
unicode = 0308;
},
{
color = 0;
glyphname = uni030A;
lastChange = "2016-09-03 06:31:29 +0000";
layers = (
{
anchors = (
{
name = _top;
position = "{0, 485}";
},
{
name = top;
position = "{0, 681}";
}
);
layerId = "2927A78B-FE88-4016-B2C6-41428F7EDB2B";
paths = (
{
closed = 1;
nodes = (
"-106 575 CURVE SMOOTH",
"-106 633 OFFCURVE",
"-58 681 OFFCURVE",
"0 681 CURVE SMOOTH",
"58 681 OFFCURVE",
"106 633 OFFCURVE",
"106 575 CURVE SMOOTH",
"106 517 OFFCURVE",
"58 470 OFFCURVE",
"0 470 CURVE SMOOTH",
"-58 470 OFFCURVE",
"-106 517 OFFCURVE"
);
},
{
closed = 1;
nodes = (
"-70 575 CURVE SMOOTH",
"-70 537 OFFCURVE",
"-39 505 OFFCURVE",
"0 505 CURVE SMOOTH",
"38 505 OFFCURVE",
"70 537 OFFCURVE",
"70 575 CURVE SMOOTH",
"70 614 OFFCURVE",
"38 646 OFFCURVE",
"0 646 CURVE SMOOTH",
"-39 646 OFFCURVE",
"-70 614 OFFCURVE"
);
}
);
width = 0;
}
);
unicode = 030A;
},
{
color = 0;
glyphname = uni0327;
lastChange = "2016-09-03 06:31:29 +0000";
layers = (
{
anchors = (
{
name = _bottom;
position = "{5, 0}";
},
{
name = bottom;
position = "{5, -259}";
}
);
layerId = "2927A78B-FE88-4016-B2C6-41428F7EDB2B";
paths = (
{
closed = 1;
nodes = (
"-29 6 LINE",
"25 6 LINE",
"5 -41 LINE",
"18 -46 OFFCURVE",
"59 -69 OFFCURVE",
"78 -92 CURVE SMOOTH",
"101 -120 OFFCURVE",
"110 -156 OFFCURVE",
"84 -192 CURVE SMOOTH",
"51 -236 OFFCURVE",
"-29 -249 OFFCURVE",
"-84 -259 CURVE",
"-90 -244 LINE",
"-85 -234 LINE",
"-59 -224 OFFCURVE",
"-43 -217 OFFCURVE",
"-29 -199 CURVE SMOOTH",
"-1 -161 OFFCURVE",
"-49 -133 OFFCURVE",
"-86 -122 CURVE"
);
}
);
width = 0;
}
);
unicode = 0327;
},
{
color = 1;
glyphname = divide;
lastChange = "2016-09-03 07:10:53 +0000";
layers = (
{
components = (
{
name = minus;
transform = "{1, 0, 0, 1, -62, 0}";
}
);
layerId = "2927A78B-FE88-4016-B2C6-41428F7EDB2B";
paths = (
{
closed = 1;
nodes = (
"373 5 CURVE SMOOTH",
"373 41 OFFCURVE",
"403 71 OFFCURVE",
"439 71 CURVE SMOOTH",
"475 71 OFFCURVE",
"505 41 OFFCURVE",
"505 5 CURVE SMOOTH",
"505 -31 OFFCURVE",
"475 -61 OFFCURVE",
"439 -61 CURVE SMOOTH",
"403 -61 OFFCURVE",
"373 -31 OFFCURVE"
);
},
{
closed = 1;
nodes = (
"373 512 CURVE SMOOTH",
"373 548 OFFCURVE",
"403 578 OFFCURVE",
"439 578 CURVE SMOOTH",
"475 578 OFFCURVE",
"505 548 OFFCURVE",
"505 512 CURVE SMOOTH",
"505 476 OFFCURVE",
"475 446 OFFCURVE",
"439 446 CURVE SMOOTH",
"403 446 OFFCURVE",
"373 476 OFFCURVE"
);
}
);
width = 878;
}
);
unicode = 00F7;
},
{
color = 1;
glyphname = multiply;
lastChange = "2016-09-03 06:59:20 +0000";
layers = (
{
layerId = "2927A78B-FE88-4016-B2C6-41428F7EDB2B";
paths = (
{
closed = 1;
nodes = (
"346 265 LINE",
"564 46 LINE",
"527 16 LINE",
"312 231 LINE",
"100 20 LINE",
"61 49 LINE",
"278 265 LINE",
"61 481 LINE",
"100 510 LINE",
"312 299 LINE",
"524 511 LINE",
"562 481 LINE"
);
}
);
width = 623;
}
);
unicode = 00D7;
},
{
color = 0;
glyphname = fraction;
lastChange = "2016-09-03 06:49:09 +0000";
layers = (
{
layerId = "2927A78B-FE88-4016-B2C6-41428F7EDB2B";
paths = (
{
closed = 1;
nodes = (
"272 672 LINE",
"274 660 LINE",
"-150 -6 LINE",
"-194 13 LINE",
"-194 27 LINE",
"226 686 LINE",
"238 687 LINE"
);
}
);
width = 80;
}
);
unicode = 2044;
},
{
color = 0;
glyphname = onequarter;
lastChange = "2016-09-03 06:49:09 +0000";
layers = (
{
components = (
{
name = fraction;
transform = "{1, 0, 0, 1, 407, 0}";
}
);
layerId = "2927A78B-FE88-4016-B2C6-41428F7EDB2B";
paths = (
{
closed = 1;
nodes = (
"723 151 LINE",
"795 151 LINE",
"797 146 LINE",
"777 109 LINE",
"723 109 LINE",
"719 104 LINE",
"719 75 OFFCURVE",
"720 46 OFFCURVE",
"723 17 CURVE",
"649 -9 LINE",
"639 -2 LINE",
"643 33 OFFCURVE",
"645 69 OFFCURVE",
"645 105 CURVE",
"641 109 LINE",
"437 109 LINE",
"437 140 LINE",
"645 406 LINE",
"719 423 LINE",
"719 417 LINE",
"719 156 LINE"
);
},
{
closed = 1;
nodes = (
"645 154 LINE",
"645 341 LINE",
"641 347 LINE",
"638 347 OFFCURVE",
"608 315 OFFCURVE",
"573 271 CURVE SMOOTH",
"502 182 OFFCURVE",
"494 157 OFFCURVE",
"493 155 CURVE",
"497 151 LINE",
"641 151 LINE"
);
},
{
closed = 1;
nodes = (
"25 652 LINE",
"214 705 LINE",
"224 694 LINE",
"216 612 OFFCURVE",
"214 530 OFFCURVE",
"214 447 CURVE SMOOTH",
"214 397 OFFCURVE",
"214 333 OFFCURVE",
"216 295 CURVE",
"142 271 LINE",
"127 279 LINE",
"136 350 OFFCURVE",
"140 422 OFFCURVE",
"140 493 CURVE SMOOTH",
"140 533 OFFCURVE",
"140 573 OFFCURVE",
"137 613 CURVE SMOOTH",
"136 624 OFFCURVE",
"125 633 OFFCURVE",
"114 633 CURVE SMOOTH",
"25 633 LINE"
);
}
);
width = 842;
}
);
unicode = 00BC;
},
{
color = 0;
glyphname = onehalf;
lastChange = "2016-09-03 06:49:09 +0000";
layers = (
{
components = (
{
name = fraction;
transform = "{1, 0, 0, 1, 361, 0}";
}
);
layerId = "2927A78B-FE88-4016-B2C6-41428F7EDB2B";
paths = (
{
closed = 1;
nodes = (
"823 62 LINE",
"802 0 LINE",
"464 0 LINE",
"464 12 LINE",
"532 61 OFFCURVE",
"594 113 OFFCURVE",
"646 173 CURVE SMOOTH",
"678 210 OFFCURVE",
"704 253 OFFCURVE",
"704 299 CURVE SMOOTH",
"704 337 OFFCURVE",
"685 382 OFFCURVE",
"623 382 CURVE SMOOTH",
"586 382 OFFCURVE",
"550 362 OFFCURVE",
"520 345 CURVE",
"508 359 LINE",
"551 393 OFFCURVE",
"611 426 OFFCURVE",
"672 426 CURVE SMOOTH",
"736 426 OFFCURVE",
"796 394 OFFCURVE",
"796 338 CURVE SMOOTH",
"796 242 OFFCURVE",
"665 151 OFFCURVE",
"584 68 CURVE SMOOTH",
"583 67 OFFCURVE",
"583 66 OFFCURVE",
"583 65 CURVE SMOOTH",
"583 64 OFFCURVE",
"585 62 OFFCURVE",
"587 62 CURVE SMOOTH"
);
},
{
closed = 1;
nodes = (
"25 652 LINE",
"214 705 LINE",
"224 694 LINE",
"216 612 OFFCURVE",
"214 530 OFFCURVE",
"214 447 CURVE SMOOTH",
"214 397 OFFCURVE",
"214 333 OFFCURVE",
"216 295 CURVE",
"142 271 LINE",
"127 279 LINE",
"136 350 OFFCURVE",
"140 422 OFFCURVE",
"140 493 CURVE SMOOTH",
"140 533 OFFCURVE",
"140 573 OFFCURVE",
"137 613 CURVE SMOOTH",
"136 624 OFFCURVE",
"125 633 OFFCURVE",
"114 633 CURVE SMOOTH",
"25 633 LINE"
);
}
);
width = 842;
}
);
unicode = 00BD;
},
{
color = 0;
glyphname = threequarters;
lastChange = "2016-09-03 06:49:09 +0000";
layers = (
{
components = (
{
name = fraction;
transform = "{1, 0, 0, 1, 407, 0}";
}
);
layerId = "2927A78B-FE88-4016-B2C6-41428F7EDB2B";
paths = (
{
closed = 1;
nodes = (
"206 506 CURVE",
"206 501 LINE",
"303 494 OFFCURVE",
"356 463 OFFCURVE",
"356 405 CURVE SMOOTH",
"356 316 OFFCURVE",
"256 266 OFFCURVE",
"157 266 CURVE SMOOTH",
"110 266 OFFCURVE",
"63 278 OFFCURVE",
"28 303 CURVE",
"68 367 LINE",
"81 366 LINE",
"92 332 OFFCURVE",
"118 290 OFFCURVE",
"162 290 CURVE SMOOTH",
"238 290 OFFCURVE",
"268 341 OFFCURVE",
"268 392 CURVE SMOOTH",
"268 471 OFFCURVE",
"185 486 OFFCURVE",
"103 486 CURVE",
"103 504 LINE",
"162 507 OFFCURVE",
"246 530 OFFCURVE",
"246 596 CURVE SMOOTH",
"246 633 OFFCURVE",
"213 657 OFFCURVE",
"170 657 CURVE SMOOTH",
"135 657 OFFCURVE",
"102 640 OFFCURVE",
"73 624 CURVE",
"61 639 LINE",
"105 667 OFFCURVE",
"160 696 OFFCURVE",
"216 696 CURVE SMOOTH",
"272 696 OFFCURVE",
"328 669 OFFCURVE",
"328 620 CURVE SMOOTH",
"328 562 OFFCURVE",
"268 526 OFFCURVE"
);
},
{
closed = 1;
nodes = (
"723 151 LINE",
"795 151 LINE",
"797 146 LINE",
"777 109 LINE",
"723 109 LINE",
"719 104 LINE",
"719 75 OFFCURVE",
"720 46 OFFCURVE",
"723 17 CURVE",
"649 -9 LINE",
"639 -2 LINE",
"643 33 OFFCURVE",
"645 69 OFFCURVE",
"645 105 CURVE",
"641 109 LINE",
"437 109 LINE",
"437 140 LINE",
"645 406 LINE",
"719 423 LINE",
"719 417 LINE",
"719 156 LINE"
);
},
{
closed = 1;
nodes = (
"645 154 LINE",
"645 341 LINE",
"641 347 LINE",
"638 347 OFFCURVE",
"608 315 OFFCURVE",
"573 271 CURVE SMOOTH",
"502 182 OFFCURVE",
"494 157 OFFCURVE",
"493 155 CURVE",
"497 151 LINE",
"641 151 LINE"
);
}
);
width = 842;
}
);
unicode = 00BE;
},
{
color = 1;
glyphname = germandbls;
lastChange = "2016-09-03 06:59:20 +0000";
layers = (
{
layerId = "2927A78B-FE88-4016-B2C6-41428F7EDB2B";
paths = (
{
closed = 1;
nodes = (
"191 392 LINE",
"191 266 OFFCURVE",
"200 128 OFFCURVE",
"207 18 CURVE",
"98 -10 LINE",
"81 -1 LINE",
"85 102 OFFCURVE",
"88 261 OFFCURVE",
"88 391 CURVE",
"79 400 LINE",
"-1 400 LINE",
"-6 408 LINE",
"4 437 LINE",
"15 444 LINE",
"80 444 LINE",
"88 454 LINE",
"98 668 OFFCURVE",
"221 686 OFFCURVE",
"278 686 CURVE SMOOTH",
"297 686 OFFCURVE",
"361 679 OFFCURVE",
"395 609 CURVE",
"325 558 LINE",
"309 565 LINE",
"309 613 OFFCURVE",
"275 644 OFFCURVE",
"254 644 CURVE SMOOTH",
"234 644 OFFCURVE",
"206 617 OFFCURVE",
"197 571 CURVE SMOOTH",
"191 543 OFFCURVE",
"191 517 OFFCURVE",
"191 454 CURVE",
"200 445 LINE",
"457 445 LINE",
"463 435 LINE",
"454 409 LINE",
"369 259 LINE",
"413 223 OFFCURVE",
"495 157 OFFCURVE",
"495 76 CURVE SMOOTH",
"495 -82 OFFCURVE",
"394 -160 OFFCURVE",
"205 -160 CURVE",
"202 -135 LINE",
"291 -117 OFFCURVE",
"361 -62 OFFCURVE",
"384 12 CURVE SMOOTH",
"396 49 OFFCURVE",
"395 82 OFFCURVE",
"380 116 CURVE SMOOTH",
"355 173 OFFCURVE",
"300 217 OFFCURVE",
"269 242 CURVE",
"269 266 LINE",
"345 400 LINE",
"200 400 LINE"
);
}
);
width = 513;
}
);
unicode = 00DF;
},
{
color = 1;
glyphname = Oslash;
lastChange = "2016-09-03 07:10:23 +0000";
layers = (
{
components = (
{
name = O;
}
);
layerId = "2927A78B-FE88-4016-B2C6-41428F7EDB2B";
paths = (
{
closed = 1;
nodes = (
"632 791 LINE",
"637 780 LINE",
"248 -116 LINE",
"202 -104 LINE",
"199 -90 LINE",
"585 798 LINE",
"596 800 LINE"
);
}
);
width = 830;
}
);
leftMetricsKey = O;
rightMetricsKey = O;
unicode = 00D8;
},
{
color = 1;
glyphname = oslash;
lastChange = "2016-09-03 07:10:34 +0000";
layers = (
{
components = (
{
name = o;
}
);
layerId = "2927A78B-FE88-4016-B2C6-41428F7EDB2B";
paths = (
{
closed = 1;
nodes = (
"454 556 LINE",
"458 545 LINE",
"176 -104 LINE",
"130 -92 LINE",
"128 -78 LINE",
"406 563 LINE",
"418 565 LINE"
);
}
);
width = 575;
}
);
leftMetricsKey = o;
rightMetricsKey = o;
unicode = 00F8;
},
{
color = 1;
glyphname = Eth;
lastChange = "2016-09-03 07:10:40 +0000";
layers = (
{
components = (
{
name = D;
transform = "{1, 0, 0, 1, 16, 0}";
}
);
layerId = "2927A78B-FE88-4016-B2C6-41428F7EDB2B";
paths = (
{
closed = 1;
nodes = (
"352 336 LINE",
"16 336 LINE",
"35 386 LINE",
"368 386 LINE"
);
}
);
width = 848;
}
);
rightMetricsKey = D;
unicode = 00D0;
},
{
color = 1;
glyphname = currency;
lastChange = "2016-09-03 06:59:20 +0000";
layers = (
{
layerId = "2927A78B-FE88-4016-B2C6-41428F7EDB2B";
paths = (
{
closed = 1;
nodes = (
"77 141 LINE",
"126 190 LINE",
"96 228 OFFCURVE",
"84 263 OFFCURVE",
"84 313 CURVE SMOOTH",
"84 365 OFFCURVE",
"96 401 OFFCURVE",
"126 435 CURVE",
"77 484 LINE",
"124 531 LINE",
"172 483 LINE",
"209 511 OFFCURVE",
"249 524 OFFCURVE",
"296 524 CURVE SMOOTH",
"342 524 OFFCURVE",
"379 512 OFFCURVE",
"416 484 CURVE",
"464 533 LINE",
"513 484 LINE",
"467 436 LINE",
"494 401 OFFCURVE",
"506 363 OFFCURVE",
"506 314 CURVE SMOOTH",
"506 265 OFFCURVE",
"494 227 OFFCURVE",
"466 189 CURVE",
"512 141 LINE",
"467 96 LINE",
"420 145 LINE",
"383 115 OFFCURVE",
"346 102 OFFCURVE",
"295 102 CURVE SMOOTH",
"244 102 OFFCURVE",
"207 114 OFFCURVE",
"170 144 CURVE",
"122 96 LINE"
);
},
{
closed = 1;
nodes = (
"296 447 CURVE SMOOTH",
"222 447 OFFCURVE",
"161 386 OFFCURVE",
"161 312 CURVE SMOOTH",
"161 240 OFFCURVE",
"222 178 OFFCURVE",
"294 178 CURVE SMOOTH",
"369 178 OFFCURVE",
"429 239 OFFCURVE",
"429 314 CURVE SMOOTH",
"429 386 OFFCURVE",
"369 447 OFFCURVE"
);
}
);
width = 590;
}
);
unicode = 00A4;
},
{
color = 1;
glyphname = paragraph;
lastChange = "2016-09-03 06:59:20 +0000";
layers = (
{
layerId = "2927A78B-FE88-4016-B2C6-41428F7EDB2B";
paths = (
{
closed = 1;
nodes = (
"328 20 CURVE",
"405 -6 LINE",
"417 4 LINE",
"410 156 OFFCURVE",
"409 307 OFFCURVE",
"409 459 CURVE SMOOTH",
"409 514 OFFCURVE",
"409 592 OFFCURVE",
"413 623 CURVE",
"421 659 OFFCURVE",
"466 665 OFFCURVE",
"499 669 CURVE",
"499 691 LINE",
"491 699 LINE",
"275 699 LINE SMOOTH",
"115 699 OFFCURVE",
"39 607 OFFCURVE",
"34 512 CURVE SMOOTH",
"29 416 OFFCURVE",
"94 317 OFFCURVE",
"215 307 CURVE SMOOTH",
"243 305 OFFCURVE",
"333 315 OFFCURVE",
"333 282 CURVE SMOOTH",
"333 281 OFFCURVE",
"330 104 OFFCURVE"
);
}
);
width = 513;
}
);
unicode = 00B6;
},
{
color = 1;
glyphname = AE;
lastChange = "2016-09-03 07:09:59 +0000";
layers = (
{
layerId = "2927A78B-FE88-4016-B2C6-41428F7EDB2B";
paths = (
{
closed = 1;
nodes = (
"384 638 CURVE",
"385 639 OFFCURVE",
"385 641 OFFCURVE",
"385 643 CURVE SMOOTH",
"385 644 OFFCURVE",
"384 647 OFFCURVE",
"382 647 CURVE",
"283 659 LINE",
"283 697 LINE",
"465 692 OFFCURVE",
"632 697 OFFCURVE",
"789 709 CURVE",
"802 704 LINE",
"802 642 LINE",
"790 631 LINE",
"713 636 OFFCURVE",
"563 645 OFFCURVE",
"562 645 CURVE SMOOTH",
"526 645 OFFCURVE",
"527 622 OFFCURVE",
"527 595 CURVE SMOOTH",
"527 415 LINE SMOOTH",
"527 406 OFFCURVE",
"535 389 OFFCURVE",
"547 389 CURVE SMOOTH",
"609 389 OFFCURVE",
"764 405 OFFCURVE",
"767 406 CURVE",
"768 406 OFFCURVE",
"776 401 OFFCURVE",
"780 398 CURVE",
"780 340 LINE",
"711 343 OFFCURVE",
"631 343 OFFCURVE",
"555 343 CURVE SMOOTH",
"532 343 OFFCURVE",
"527 330 OFFCURVE",
"527 316 CURVE SMOOTH",
"527 251 OFFCURVE",
"527 174 OFFCURVE",
"536 123 CURVE",
"541 82 OFFCURVE",
"562 61 OFFCURVE",
"603 61 CURVE SMOOTH",
"618 61 OFFCURVE",
"888 76 OFFCURVE",
"888 76 CURVE",
"898 68 LINE",
"872 -8 LINE",
"758 -1 OFFCURVE",
"644 0 OFFCURVE",
"530 0 CURVE SMOOTH",
"498 0 OFFCURVE",
"450 0 OFFCURVE",
"435 4 CURVE",
"420 12 OFFCURVE",
"402 32 OFFCURVE",
"402 51 CURVE SMOOTH",
"402 268 LINE",
"247 268 LINE",
"213 204 OFFCURVE",
"171 97 OFFCURVE",
"137 10 CURVE",
"11 -1 LINE",
"9 9 LINE",
"141 205 OFFCURVE",
"274 429 OFFCURVE"
);
},
{
closed = 1;
nodes = (
"402 320 LINE",
"402 540 LINE SMOOTH",
"402 547 OFFCURVE",
"395 548 OFFCURVE",
"392 543 CURVE",
"287 335 LINE",
"285 332 OFFCURVE",
"285 330 OFFCURVE",
"285 326 CURVE SMOOTH",
"285 323 OFFCURVE",
"292 320 OFFCURVE",
"296 320 CURVE SMOOTH"
);
}
);
width = 908;
}
);
leftMetricsKey = A;
rightMetricsKey = E;
unicode = 00C6;
},
{
color = 1;
glyphname = ae;
lastChange = "2016-09-03 07:09:49 +0000";
layers = (
{
layerId = "2927A78B-FE88-4016-B2C6-41428F7EDB2B";
paths = (
{
closed = 1;
nodes = (
"780 101 LINE",
"791 82 LINE",
"725 35 OFFCURVE",
"644 -16 OFFCURVE",
"562 -16 CURVE SMOOTH",
"505 -16 OFFCURVE",
"446 -2 OFFCURVE",
"406 35 CURVE SMOOTH",
"395 45 OFFCURVE",
"386 57 OFFCURVE",
"378 69 CURVE",
"322 28 OFFCURVE",
"253 -15 OFFCURVE",
"177 -15 CURVE SMOOTH",
"69 -15 OFFCURVE",
"35 108 OFFCURVE",
"35 191 CURVE SMOOTH",
"35 393 OFFCURVE",
"118 498 OFFCURVE",
"277 498 CURVE SMOOTH",
"346 498 OFFCURVE",
"401 470 OFFCURVE",
"449 438 CURVE",
"493 473 OFFCURVE",
"552 495 OFFCURVE",
"625 495 CURVE SMOOTH",
"719 495 OFFCURVE",
"816 459 OFFCURVE",
"816 349 CURVE SMOOTH",
"816 328 OFFCURVE",
"806 318 OFFCURVE",
"787 312 CURVE",
"786 312 OFFCURVE",
"572 246 OFFCURVE",
"465 213 CURVE",
"465 133 OFFCURVE",
"516 52 OFFCURVE",
"613 52 CURVE SMOOTH",
"668 52 OFFCURVE",
"719 77 OFFCURVE",
"765 105 CURVE"
);
},
{
closed = 1;
nodes = (
"478 258 CURVE",
"663 317 OFFCURVE",
"693 315 OFFCURVE",
"693 344 CURVE SMOOTH",
"693 395 OFFCURVE",
"667 455 OFFCURVE",
"602 455 CURVE SMOOTH",
"494 455 OFFCURVE",
"465 335 OFFCURVE",
"465 262 CURVE SMOOTH",
"465 258 OFFCURVE",
"468 257 OFFCURVE",
"472 257 CURVE SMOOTH",
"474 257 OFFCURVE",
"476 258 OFFCURVE"
);
},
{
closed = 1;
nodes = (
"378 349 CURVE",
"375 399 OFFCURVE",
"358 460 OFFCURVE",
"286 460 CURVE SMOOTH",
"171 460 OFFCURVE",
"148 321 OFFCURVE",
"148 230 CURVE SMOOTH",
"148 161 OFFCURVE",
"169 63 OFFCURVE",
"253 63 CURVE SMOOTH",
"293 63 OFFCURVE",
"331 84 OFFCURVE",
"359 108 CURVE",
"348 139 OFFCURVE",
"345 172 OFFCURVE",
"345 204 CURVE SMOOTH",
"345 255 OFFCURVE",
"356 305 OFFCURVE"
);
}
);
width = 826;
}
);
leftMetricsKey = a;
rightMetricsKey = e;
unicode = 00E6;
},
{
color = 1;
glyphname = eth;
lastChange = "2016-09-03 06:59:20 +0000";
layers = (
{
layerId = "2927A78B-FE88-4016-B2C6-41428F7EDB2B";
paths = (
{
closed = 1;
nodes = (
"460 634 LINE",
"152 502 LINE",
"149 555 LINE",
"456 687 LINE"
);
},
{
closed = 1;
nodes = (
"195 697 LINE",
"362 624 OFFCURVE",
"496 519 OFFCURVE",
"500 279 CURVE SMOOTH",
"503 145 OFFCURVE",
"437 -18 OFFCURVE",
"254 -18 CURVE SMOOTH",
"191 -18 OFFCURVE",
"135 3 OFFCURVE",
"91 43 CURVE SMOOTH",
"43 86 OFFCURVE",
"29 164 OFFCURVE",
"29 225 CURVE SMOOTH",
"29 291 OFFCURVE",
"46 360 OFFCURVE",
"99 408 CURVE SMOOTH",
"150 455 OFFCURVE",
"219 477 OFFCURVE",
"291 477 CURVE SMOOTH",
"298 477 OFFCURVE",
"314 476 OFFCURVE",
"330 474 CURVE",
"336 484 LINE",
"307 551 OFFCURVE",
"258 615 OFFCURVE",
"176 663 CURVE"
);
},
{
closed = 1;
nodes = (
"353 430 CURVE",
"337 436 OFFCURVE",
"319 441 OFFCURVE",
"302 441 CURVE SMOOTH",
"181 441 OFFCURVE",
"147 342 OFFCURVE",
"147 240 CURVE SMOOTH",
"147 165 OFFCURVE",
"166 21 OFFCURVE",
"271 21 CURVE SMOOTH",
"377 21 OFFCURVE",
"386 166 OFFCURVE",
"386 261 CURVE SMOOTH",
"386 319 OFFCURVE",
"374 376 OFFCURVE"
);
}
);
width = 537;
}
);
unicode = 00F0;
},
{
color = 1;
glyphname = OE;
lastChange = "2016-09-03 07:09:55 +0000";
layers = (
{
layerId = "2927A78B-FE88-4016-B2C6-41428F7EDB2B";
paths = (
{
closed = 1;
nodes = (
"1071 76 CURVE",
"1081 68 LINE",
"1055 -8 LINE",
"941 -1 OFFCURVE",
"827 0 OFFCURVE",
"713 0 CURVE SMOOTH",
"681 0 OFFCURVE",
"440 0 OFFCURVE",
"425 4 CURVE",
"410 12 OFFCURVE",
"585 47 OFFCURVE",
"585 66 CURVE SMOOTH",
"585 480 LINE SMOOTH",
"585 524 OFFCURVE",
"585 594 OFFCURVE",
"581 612 CURVE SMOOTH",
"569 657 OFFCURVE",
"523 661 OFFCURVE",
"487 666 CURVE",
"487 689 LINE",
"494 696 LINE",
"655 696 OFFCURVE",
"859 696 OFFCURVE",
"972 709 CURVE",
"985 704 LINE",
"985 642 LINE",
"973 631 LINE",
"896 636 OFFCURVE",
"746 645 OFFCURVE",
"745 645 CURVE SMOOTH",
"709 645 OFFCURVE",
"710 622 OFFCURVE",
"710 595 CURVE SMOOTH",
"710 415 LINE SMOOTH",
"710 406 OFFCURVE",
"718 389 OFFCURVE",
"730 389 CURVE SMOOTH",
"792 389 OFFCURVE",
"947 405 OFFCURVE",
"950 406 CURVE",
"951 406 OFFCURVE",
"959 401 OFFCURVE",
"963 398 CURVE",
"963 340 LINE",
"894 343 OFFCURVE",
"814 343 OFFCURVE",
"738 343 CURVE SMOOTH",
"715 343 OFFCURVE",
"710 330 OFFCURVE",
"710 316 CURVE SMOOTH",
"710 251 OFFCURVE",
"710 174 OFFCURVE",
"719 123 CURVE",
"724 82 OFFCURVE",
"745 61 OFFCURVE",
"786 61 CURVE SMOOTH",
"801 61 OFFCURVE",
"1071 76 OFFCURVE"
);
},
{
closed = 1;
nodes = (
"696 114 LINE",
"615 24 OFFCURVE",
"490 -15 OFFCURVE",
"357 -15 CURVE SMOOTH",
"277 -15 OFFCURVE",
"197 7 OFFCURVE",
"140 59 CURVE SMOOTH",
"66 127 OFFCURVE",
"40 233 OFFCURVE",
"40 330 CURVE SMOOTH",
"40 438 OFFCURVE",
"76 553 OFFCURVE",
"161 630 CURVE SMOOTH",
"238 700 OFFCURVE",
"338 720 OFFCURVE",
"457 720 CURVE SMOOTH",
"542 720 OFFCURVE",
"629 699 OFFCURVE",
"690 644 CURVE"
);
},
{
closed = 1;
nodes = (
"178 366 CURVE SMOOTH",
"178 229 OFFCURVE",
"239 31 OFFCURVE",
"422 31 CURVE SMOOTH",
"598 31 OFFCURVE",
"647 187 OFFCURVE",
"647 325 CURVE SMOOTH",
"647 464 OFFCURVE",
"601 680 OFFCURVE",
"415 680 CURVE SMOOTH",
"253 680 OFFCURVE",
"178 506 OFFCURVE"
);
}
);
width = 1091;
}
);
leftMetricsKey = O;
rightMetricsKey = E;
unicode = 0152;
},
{
color = 1;
glyphname = oe;
lastChange = "2016-09-03 07:09:45 +0000";
layers = (
{
layerId = "2927A78B-FE88-4016-B2C6-41428F7EDB2B";
paths = (
{
closed = 1;
nodes = (
"549 258 CURVE",
"734 317 OFFCURVE",
"764 315 OFFCURVE",
"764 344 CURVE SMOOTH",
"764 395 OFFCURVE",
"738 455 OFFCURVE",
"673 455 CURVE SMOOTH",
"565 455 OFFCURVE",
"536 335 OFFCURVE",
"536 262 CURVE SMOOTH",
"536 258 OFFCURVE",
"539 257 OFFCURVE",
"543 257 CURVE SMOOTH",
"545 257 OFFCURVE",
"547 258 OFFCURVE"
);
},
{
closed = 1;
nodes = (
"851 101 LINE",
"862 82 LINE",
"796 35 OFFCURVE",
"715 -16 OFFCURVE",
"633 -16 CURVE SMOOTH",
"576 -16 OFFCURVE",
"517 -2 OFFCURVE",
"477 35 CURVE SMOOTH",
"429 79 OFFCURVE",
"416 143 OFFCURVE",
"416 204 CURVE SMOOTH",
"416 351 OFFCURVE",
"507 495 OFFCURVE",
"696 495 CURVE SMOOTH",
"790 495 OFFCURVE",
"887 459 OFFCURVE",
"887 349 CURVE SMOOTH",
"887 328 OFFCURVE",
"877 318 OFFCURVE",
"858 312 CURVE",
"857 312 OFFCURVE",
"643 246 OFFCURVE",
"536 213 CURVE",
"536 133 OFFCURVE",
"587 52 OFFCURVE",
"684 52 CURVE SMOOTH",
"739 52 OFFCURVE",
"790 77 OFFCURVE",
"836 105 CURVE"
);
},
{
closed = 1;
nodes = (
"161 234 CURVE SMOOTH",
"161 167 OFFCURVE",
"183 30 OFFCURVE",
"281 30 CURVE SMOOTH",
"409 30 OFFCURVE",
"414 156 OFFCURVE",
"414 268 CURVE SMOOTH",
"414 353 OFFCURVE",
"387 446 OFFCURVE",
"293 446 CURVE SMOOTH",
"188 446 OFFCURVE",
"161 321 OFFCURVE"
);
},
{
closed = 1;
nodes = (
"506 109 LINE",
"459 24 OFFCURVE",
"371 -11 OFFCURVE",
"273 -11 CURVE SMOOTH",
"212 -11 OFFCURVE",
"148 -3 OFFCURVE",
"104 37 CURVE SMOOTH",
"48 88 OFFCURVE",
"32 162 OFFCURVE",
"32 233 CURVE SMOOTH",
"32 378 OFFCURVE",
"143 486 OFFCURVE",
"299 486 CURVE SMOOTH",
"363 486 OFFCURVE",
"429 473 OFFCURVE",
"476 431 CURVE SMOOTH",
"494 414 OFFCURVE",
"508 395 OFFCURVE",
"519 374 CURVE"
);
}
);
width = 897;
}
);
leftKerningGroup = o_L;
leftMetricsKey = o;
rightMetricsKey = e;
unicode = 0153;
},
{
color = 1;
glyphname = Thorn;
lastChange = "2016-09-03 06:59:20 +0000";
layers = (
{
layerId = "2927A78B-FE88-4016-B2C6-41428F7EDB2B";
paths = (
{
closed = 1;
nodes = (
"223 688 LINE",
"221 574 LINE",
"359 574 LINE SMOOTH",
"519 574 OFFCURVE",
"574 508 OFFCURVE",
"574 415 CURVE SMOOTH",
"574 354 OFFCURVE",
"556 294 OFFCURVE",
"508 250 CURVE SMOOTH",
"460 205 OFFCURVE",
"379 188 OFFCURVE",
"307 182 CURVE SMOOTH",
"279 180 OFFCURVE",
"222 190 OFFCURVE",
"222 157 CURVE SMOOTH",
"222 156 OFFCURVE",
"225 114 OFFCURVE",
"227 30 CURVE",
"100 -6 LINE",
"88 4 LINE",
"95 156 OFFCURVE",
"96 307 OFFCURVE",
"96 459 CURVE SMOOTH",
"96 514 OFFCURVE",
"96 592 OFFCURVE",
"92 623 CURVE",
"84 659 OFFCURVE",
"39 665 OFFCURVE",
"6 669 CURVE",
"6 691 LINE",
"14 699 LINE",
"81 699 OFFCURVE",
"147 699 OFFCURVE",
"214 699 CURVE"
);
},
{
closed = 1;
nodes = (
"222 236 CURVE SMOOTH",
"222 224 OFFCURVE",
"235 216 OFFCURVE",
"249 216 CURVE SMOOTH",
"365 216 OFFCURVE",
"432 299 OFFCURVE",
"432 397 CURVE SMOOTH",
"432 474 OFFCURVE",
"383 539 OFFCURVE",
"292 539 CURVE SMOOTH",
"267 539 OFFCURVE",
"220 546 OFFCURVE",
"220 516 CURVE SMOOTH",
"220 515 OFFCURVE",
"221 329 OFFCURVE"
);
}
);
width = 600;
}
);
unicode = 00DE;
},
{
color = 1;
glyphname = thorn;
lastChange = "2016-09-03 06:59:20 +0000";
layers = (
{
layerId = "2927A78B-FE88-4016-B2C6-41428F7EDB2B";
paths = (
{
closed = 1;
nodes = (
"220 -217 LINE",
"99 -247 LINE",
"87 -238 LINE",
"93 -75 OFFCURVE",
"108 12 OFFCURVE",
"108 297 CURVE SMOOTH",
"108 359 OFFCURVE",
"110 464 OFFCURVE",
"69 464 CURVE SMOOTH",
"51 464 OFFCURVE",
"24 447 OFFCURVE",
"6 436 CURVE",
"-8 460 LINE",
"38 496 OFFCURVE",
"95 539 OFFCURVE",
"151 539 CURVE SMOOTH",
"186 539 OFFCURVE",
"214 527 OFFCURVE",
"218 457 CURVE SMOOTH",
"219 439 OFFCURVE",
"219 364 OFFCURVE",
"219 337 CURVE",
"227 333 LINE",
"278 366 OFFCURVE",
"341 400 OFFCURVE",
"398 400 CURVE SMOOTH",
"532 400 OFFCURVE",
"567 292 OFFCURVE",
"567 196 CURVE SMOOTH",
"567 55 OFFCURVE",
"476 -88 OFFCURVE",
"308 -88 CURVE SMOOTH",
"278 -88 OFFCURVE",
"248 -84 OFFCURVE",
"222 -67 CURVE",
"220 -73 LINE"
);
},
{
closed = 1;
nodes = (
"240 -19 CURVE SMOOTH",
"259 -36 OFFCURVE",
"285 -46 OFFCURVE",
"312 -46 CURVE SMOOTH",
"421 -46 OFFCURVE",
"447 60 OFFCURVE",
"447 142 CURVE SMOOTH",
"447 219 OFFCURVE",
"431 326 OFFCURVE",
"330 326 CURVE SMOOTH",
"289 326 OFFCURVE",
"250 301 OFFCURVE",
"216 278 CURVE",
"213 75 LINE SMOOTH",
"212 41 OFFCURVE",
"216 3 OFFCURVE"
);
}
